{
.appVersion = "3151";
.formatVersion = 3;
axes = (
{
name = Weight;
tag = wght;
},
{
name = Width;
tag = wdth;
},
{
name = Slant;
tag = slnt;
}
);
classes = (
{
code = "zero one two three four five six seven eight nine ";
name = Num;
},
{
code = "zero.canadian one.canadian two.canadian three.canadian four.canadian five.canadian six.canadian seven.canadian eight.canadian nine.canadian 
";
name = Num_can;
},
{

glyphs = (
{
glyphname = idotless;
lastChange = "2023-01-13 15:28:18 +0000";
layers = (
{
layerId = "9563F490-07F6-43DA-A81C-32B2684714C2";
shapes = (
{
closed = 1;
nodes = (
(97,0,l),
(211,538,l),
(118,538,l),
(4,0,l)
);
}
);
width = 206;
}
);
note = dotlessi;
unicode = 305;
},
{
glyphname = "acuteFinal-canadian";
lastChange = "2023-01-13 15:29:45 +0000";
layers = (
{
layerId = "9563F490-07F6-43DA-A81C-32B2684714C2";
shapes = (
{
closed = 1;
nodes = (
(128,357,l),
(333,714,l),
(255,714,l),
(50,357,l)
);
}
);
width = 261;
}
);
metricRight = "=|";
note = uni141F;
unicode = 5151;
},
{
glyphname = "graveFinal-canadian";
kernLeft = mwestleft;
kernRight = mwestright;
lastChange = "2023-01-13 15:29:45 +0000";
layers = (
{
layerId = "9563F490-07F6-43DA-A81C-32B2684714C2";
shapes = (
{
closed = 1;
nodes = (
(257,357,l),
(196,714,l),
(126,714,l),
(186,357,l)
);
}
);
width = 261;
}
);
metricLeft = "=|acuteFinal-canadian";
metricRight = "=|acuteFinal-canadian";
note = uni1420;
unicode = 5152;
},
{
glyphname = "ringBottomhalfFinal-canadian";
kernLeft = mwestleft;
kernRight = mwestright;
lastChange = "2023-01-13 15:29:45 +0000";
layers = (
{
layerId = "9563F490-07F6-43DA-A81C-32B2684714C2";
shapes = (
{
closed = 1;
nodes = (
(291,351,o),
(333,395,o),
(350,474,cs),
(401,714,l),
(337,714,l),
(287,478,ls),
(276,428,o),
(255,409,o),
(215,409,cs),
(170,409,o),
(155,437,o),
(165,482,cs),
(214,714,l),
(150,714,l),
(102,489,ls),
(85,404,o),
(126,351,o),
(210,351,cs)
);
}
);
width = 353;
}
);
metricLeft = "ai-canadian";
metricRight = "==|ai-canadian";
note = uni1421;
unicode = 5153;
},
{
glyphname = "ringTophalfFinal-canadian";
lastChange = "2023-01-13 15:29:45 +0000";
layers = (
{
layerId = "9563F490-07F6-43DA-A81C-32B2684714C2";
shapes = (
{
closed = 1;
nodes = (
(138,357,l),
(188,593,ls),
(199,643,o),
(220,662,o),
(260,662,cs),
(305,662,o),
(319,634,o),
(310,589,cs),
(261,357,l),
(325,357,l),
(372,582,ls),
(390,667,o),
(349,720,o),
(264,720,cs),
(184,720,o),
(142,676,o),
(125,597,cs),
(74,357,l)
);
}
);
width = 353;
}
);
metricLeft = "ai-canadian";
metricRight = "==|ai-canadian";
note = uni1422;
unicode = 5154;
},
{
glyphname = "ringRighthalfFinal-canadian";
kernLeft = mwestleft;
kernRight = mwestright;
lastChange = "2023-01-13 15:29:45 +0000";
layers = (
{
layerId = "9563F490-07F6-43DA-A81C-32B2684714C2";
shapes = (
{
closed = 1;
nodes = (
(118,357,ls),
(267,357,o),
(319,477,o),
(319,578,cs),
(319,666,o),
(267,714,o),
(181,714,cs),
(148,714,l),
(135,653,l),
(174,653,ls),
(226,653,o),
(254,625,o),
(254,572,cs),
(254,512,o),
(231,418,o),
(126,418,cs),
(86,418,l),
(72,357,l)
);
}
);
width = 303;
}
);
metricLeft = "=|t-canadian";
metricWidth = "t-canadian";
note = uni1423;
unicode = 5155;
},
{
glyphname = "ringFinal-canadian";
kernLeft = mwestleft;
kernRight = mwestright;
lastChange = "2023-01-13 15:28:18 +0000";
layers = (
{
layerId = "9563F490-07F6-43DA-A81C-32B2684714C2";
shapes = (
{
closed = 1;
nodes = (
(371,403,o),
(437,471,o),
(437,562,cs),
(437,652,o),
(370,720,o),
(276,720,cs),
(182,720,o),
(115,652,o),
(115,562,cs),
(115,471,o),
(182,403,o),
(276,403,cs)
);
},
{
closed = 1;
nodes = (
(215,458,o),
(175,500,o),
(175,562,cs),
(175,622,o),
(215,665,o),
(276,665,cs),
(336,665,o),
(377,621,o),
(377,562,cs),
(377,500,o),
(336,458,o),
(276,458,cs)
);
}
);
width = 418;
}
);
note = uni1424;
unicode = 5156;
},
{
glyphname = "doubleacuteFinal-canadian";
lastChange = "2023-01-13 15:29:45 +0000";
layers = (
{
layerId = "9563F490-07F6-43DA-A81C-32B2684714C2";
shapes = (
{
closed = 1;
nodes = (
(125,357,l),
(332,714,l),
(257,714,l),
(50,357,l)
);
},
{
closed = 1;
nodes = (
(255,357,l),
(463,714,l),
(387,714,l),
(180,357,l)
);
}
);
width = 391;
}
);
metricLeft = "acuteFinal-canadian";
metricRight = "=|";
note = uni1425;
unicode = 5157;
},
{
glyphname = "doubleshortverticalstrokesFinal-canadian";
kernLeft = mwestleft;
kernRight = mwestright;
lastChange = "2023-01-13 15:28:18 +0000";
layers = (
{
layerId = "9563F490-07F6-43DA-A81C-32B2684714C2";
shapes = (
{
closed = 1;
nodes = (
(138,357,l),
(214,714,l),
(150,714,l),
(74,357,l)
);
},
{
closed = 1;
nodes = (
(253,357,l),
(329,714,l),
(265,714,l),
(189,357,l)
);
}
);
width = 281;
}
);
metricLeft = "pWestCree-canadian";
metricRight = "pWestCree-canadian";
note = uni1426;
unicode = 5158;
},
{
glyphname = "middledotFinal-canadian";
lastChange = "2023-01-13 15:28:18 +0000";
layers = (
{
layerId = "9563F490-07F6-43DA-A81C-32B2684714C2";
shapes = (
{
closed = 1;
nodes = (
(150,315,o),
(173,338,o),
(173,367,cs),
(173,396,o),
(150,419,o),
(121,419,cs),
(93,419,o),
(69,396,o),
(69,367,cs),
(69,338,o),
(93,315,o),
(121,315,cs)
);
}
);
width = 191;
}
);
note = uni1427;
unicode = 5159;
},
{
glyphname = "shorthorizontalstrokeFinal-canadian";
kernLeft = mwestleft;
kernRight = mwestright;
lastChange = "2023-01-13 15:28:18 +0000";
layers = (
{
layerId = "9563F490-07F6-43DA-A81C-32B2684714C2";
shapes = (
{
closed = 1;
nodes = (
(377,517,l),
(391,581,l),
(122,581,l),
(108,517,l)
);
}
);
width = 371;
}
);
metricRight = "=|";
note = uni1428;
unicode = 5160;
},
{
glyphname = "plusFinal-canadian";
kernLeft = mwestleft;
kernRight = mwestright;
lastChange = "2023-01-13 15:28:18 +0000";
layers = (
{
layerId = "9563F490-07F6-43DA-A81C-32B2684714C2";
shapes = (
{
closed = 1;
nodes = (
(251,413,l),
(277,534,l),
(381,534,l),
(394,596,l),
(290,596,l),
(315,714,l),
(255,714,l),
(230,596,l),
(125,596,l),
(112,534,l),
(216,534,l),
(191,413,l)
);
}
);
width = 371;
}
);
metricLeft = "shorthorizontalstrokeFinal-canadian";
metricRight = "shorthorizontalstrokeFinal-canadian";
note = uni1429;
unicode = 5161;
},
{
glyphname = "downtackFinal-canadian";
kernLeft = mwestleft;
kernRight = mwestright;
lastChange = "2023-01-13 15:28:18 +0000";
layers = (
{
layerId = "9563F490-07F6-43DA-A81C-32B2684714C2";
shapes = (
{
closed = 1;
nodes = (
(241,357,l),
(304,653,l),
(406,653,l),
(419,714,l),
(150,714,l),
(137,653,l),
(240,653,l),
(177,357,l)
);
}
);
width = 371;
}
);
metricLeft = "shorthorizontalstrokeFinal-canadian";
metricRight = "shorthorizontalstrokeFinal-canadian";
note = uni142A;
unicode = 5162;
},
{
glyphname = "thFinalWoodScree-canadian";
lastChange = "2023-01-13 15:29:45 +0000";
layers = (
{
layerId = "9563F490-07F6-43DA-A81C-32B2684714C2";
shapes = (
{
closed = 1;
nodes = (
(240,357,l),
(257,435,l),
(359,435,l),
(371,491,l),
(269,491,l),
(288,580,l),
(389,580,l),
(401,636,l),
(300,636,l),
(316,714,l),
(252,714,l),
(236,636,l),
(133,636,l),
(121,580,l),
(224,580,l),
(205,491,l),
(102,491,l),
(90,435,l),
(193,435,l),
(176,357,l)
);
}
);
width = 369;
}
);
metricLeft = "hyphen-canadian";
metricRight = "hyphen-canadian";
note = uni167E;
unicode = 5758;
},
{
glyphname = "ringSmallFinal-canadian";
kernLeft = mwestleft;
kernRight = mwestright;
lastChange = "2023-01-13 15:28:18 +0000";
layers = (
{
layerId = "9563F490-07F6-43DA-A81C-32B2684714C2";
shapes = (
{
closed = 1;
nodes = (
(280,539,o),
(323,579,o),
(323,633,cs),
(323,688,o),
(280,727,o),
(228,727,cs),
(176,727,o),
(133,688,o),
(133,633,cs),
(133,579,o),
(175,539,o),
(228,539,cs)
);
},
{
closed = 1;
nodes = (
(197,581,o),
(177,603,o),
(177,633,cs),
(177,663,o),
(198,685,o),
(228,685,cs),
(258,685,o),
(279,663,o),
(279,633,cs),
(279,603,o),
(258,581,o),
(228,581,cs)
);
}
);
width = 292;
}
);
note = g725;
unicode = 6366;
},
{
glyphname = "raiseddotFinal-canadian";
kernLeft = mwestleft;
kernRight = mwestright;
lastChange = "2023-01-13 15:28:18 +0000";
layers = (
{
layerId = "9563F490-07F6-43DA-A81C-32B2684714C2";
shapes = (
{
closed = 1;
nodes = (
(219,623,o),
(242,646,o),
(242,675,cs),
(242,704,o),
(219,727,o),
(190,727,cs),
(161,727,o),
(138,704,o),
(138,675,cs),
(138,646,o),
(161,623,o),
(190,623,cs)
);
}
);
width = 197;
}
);
note = g725;
unicode = 6367;
},
{
glyphname = "plusFinal-canadian.base";
lastChange = "2023-01-13 15:28:18 +0000";
layers = (
{
layerId = "9563F490-07F6-43DA-A81C-32B2684714C2";
shapes = (
{
closed = 1;
nodes = (
(163,0,l),
(189,121,l),
(293,121,l),
(306,183,l),
(202,183,l),
(227,301,l),
(167,301,l),
(142,183,l),
(37,183,l),
(24,121,l),
(129,121,l),
(103,0,l)
);
}
);
width = 371;
}
);
metricLeft = "shorthorizontalstrokeFinal-canadian";
metricRight = "shorthorizontalstrokeFinal-canadian";
note = uni1429;
},
{
glyphname = "e-canadian";
kernLeft = ecanleft;
kernRight = ecanright;
lastChange = "2023-01-13 15:29:45 +0000";
layers = (
{
anchors = (
{
name = middle_center_can;
pos = (341,470);
},
{
name = top_center_can;
pos = (396,714);
},
{
name = top_left_can;
pos = (210,714);
},
{
name = top_right_can;
pos = (584,714);
}
);
layerId = "9563F490-07F6-43DA-A81C-32B2684714C2";
shapes = (
{
closed = 1;
nodes = (
(261,0,l),
(665,688,l),
(670,714,l),
(125,714,l),
(119,688,l),
(230,0,l)
);
},
{
closed = 1;
nodes = (
(289,101,l),
(209,659,l),
(188,638,l),
(570,638,l),
(554,659,l),
(240,101,l)
);
}
);
width = 596;
}
);
metricRight = "=|";
note = uni1401;
unicode = 5121;
},
{
glyphname = "i-canadian";
kernLeft = icanleft;
kernRight = icanright;
lastChange = "2023-01-13 15:29:45 +0000";
layers = (
{
anchors = (
{
name = middle_center_can;
pos = (328,376);
},
{
name = top_center_can;
pos = (397,714);
},
{
name = top_left_can;
pos = (209,714);
},
{
name = top_right_can;
pos = (583,714);
}
);
layerId = "9563F490-07F6-43DA-A81C-32B2684714C2";
shapes = (
{
closed = 1;
nodes = (
(381,714,l),
(-22,26,l),
(-28,0,l),
(518,0,l),
(523,26,l),
(413,714,l)
);
},
{
closed = 1;
nodes = (
(354,613,l),
(434,55,l),
(455,76,l),
(72,76,l),
(89,55,l),
(403,613,l)
);
}
);
width = 596;
}
);
metricLeft = "e-canadian";
metricWidth = "e-canadian";
note = uni1403;
unicode = 5123;
},
{
glyphname = "o-canadian";
kernLeft = ocanleft;
kernRight = ocanright;
lastChange = "2023-01-13 15:28:18 +0000";
layers = (
{
anchors = (
{
name = middle_center_can;
pos = (262,366);
},
{
name = top_center_can;
pos = (396,714);
},
{
name = top_double;
pos = (483,714);
},
{
name = top_left_can;
pos = (198,714);
},
{
name = top_right_can;
pos = (595,714);
}
);
layerId = "9563F490-07F6-43DA-A81C-32B2684714C2";
shapes = (
{
closed = 1;
nodes = (
(33,0,l),
(558,340,l),
(566,374,l),
(185,714,l),
(160.996,714,l),
(8.996,0,l)
);
},
{
closed = 1;
nodes = (
(216,609,l),
(181,622,l),
(479,352,l),
(477,375,l),
(78,112,l),
(108,105,l)
);
}
);
width = 569;
}
);
metricLeft = "nunavuth-canadian";
note = uni1405;
unicode = 5125;
},
{
glyphname = "eeCarrier-canadian";
lastChange = "2023-01-13 15:28:18 +0000";
layers = (
{
layerId = "9563F490-07F6-43DA-A81C-32B2684714C2";
shapes = (
{
closed = 1;
nodes = (
(33,0,l),
(558,340,l),
(566,374,l),
(185,714,l),
(160.996,714,l),
(8.996,0,l)
);
},
{
closed = 1;
nodes = (
(210,609,l),
(195,613,l),
(483,352,l),
(489,380,l),
(91,118,l),
(102,105,l)
);
},
{
closed = 1;
nodes = (
(255,278,l),
(291,449,l),
(256,449,l),
(220,278,l)
);
}
);
width = 569;
}
);
metricLeft = "nunavuth-canadian";
metricRight = "o-canadian";
note = uni1408;
unicode = 5128;
},
{
glyphname = "a-canadian";
kernLeft = acanleft;
kernRight = acanright;
lastChange = "2023-01-13 15:29:45 +0000";
layers = (
{
anchors = (
{
name = middle_center_can;
pos = (353,357);
},
{
name = top_center_can;
pos = (352,714);
},
{
name = top_left_can;
pos = (174,714);
},
{
name = top_right_can;
pos = (566,714);
}
);
layerId = "9563F490-07F6-43DA-A81C-32B2684714C2";
shapes = (
{
closed = 1;
nodes = (
(582,714,l),
(57,374,l),
(50,340,l),
(430,0,l),
(455,0,l),
(607,714,l)
);
},
{
closed = 1;
nodes = (
(400,105,l),
(434,92,l),
(136,362,l),
(138,339,l),
(538,602,l),
(508,609,l)
);
}
);
width = 570;
}
);
metricRight = "nunavuth-canadian";
note = uni140A;
unicode = 5130;
},
{
glyphname = "ai-canadian";
lastChange = "2023-01-13 15:28:18 +0000";
layers = (
{
layerId = "9563F490-07F6-43DA-A81C-32B2684714C2";
shapes = (
{
closed = 1;
nodes = (
(248,351,o),
(289,381,o),
(309,434,c),
(291,434,l),
(294,380,o),
(327,351,o),
(384,351,cs),
(457,351,o),
(498,393,o),
(517,484,cs),
(566,714,l),
(506,714,l),
(457,484,ls),
(446,432,o),
(424,409,o),
(386,409,cs),
(344,409,o),
(328,433,o),
(339,484,cs),
(388,714,l),
(328,714,l),
(280,487,ls),
(269,434,o),
(245,409,o),
(207,409,cs),
(168,409,o),
(151,435,o),
(161,481,cs),
(211,714,l),
(150,714,l),
(100,477,ls),
(84,404,o),
(121.998,351,o),
(195,351,cs)
);
}
);
width = 518;
}
);
metricRight = "=|";
note = uni141C;
unicode = 5148;
},
{
glyphname = "ycreew-canadian";
lastChange = "2023-01-13 15:28:18 +0000";
layers = (
{
layerId = "9563F490-07F6-43DA-A81C-32B2684714C2";
shapes = (
{
closed = 1;
nodes = (
(368,528,o),
(396,564,o),
(396,624,cs),
(396,684,o),
(367,720,o),
(325,720,cs),
(283,720,o),
(253,684,o),
(253,624,cs),
(253,564,o),
(282,528,o),
(325,528,cs)
);
},
{
closed = 1;
nodes = (
(211,351,o),
(240,387,o),
(240,447,cs),
(240,507,o),
(210,543,o),
(168,543,cs),
(126,543,o),
(97,507,o),
(97,447,cs),
(97,387,o),
(126,351,o),
(168,351,cs)
);
},
{
closed = 1;
nodes = (
(146,386,o),
(133,406,o),
(133,447,cs),
(133,489,o),
(146,508,o),
(168,508,cs),
(190,508,o),
(204,489,o),
(204,447,cs),
(204,406,o),
(190,386,o),
(168,386,cs)
);
},
{
closed = 1;
nodes = (
(303,563,o),
(289,583,o),
(289,624,cs),
(289,666,o),
(303,685,o),
(325,685,cs),
(347,685,o),
(360,666,o),
(360,624,cs),
(360,583,o),
(347,563,o),
(325,563,cs)
);
}
);
width = 371;
}
);
metricRight = "=|";
note = uni141D;
unicode = 5149;
},
{
glyphname = "glottalstop-canadian";
lastChange = "2023-01-13 15:29:45 +0000";
layers = (
{
layerId = "9563F490-07F6-43DA-A81C-32B2684714C2";
shapes = (
{
closed = 1;
nodes = (
(342,357,l),
(345,372,l),
(290,714,l),
(274,714,l),
(72,372,l),
(69,357,l)
);
},
{
closed = 1;
nodes = (
(285,647,l),
(255,650,l),
(292,385,l),
(306,406,l),
(129,406,l),
(136,385,l)
);
}
);
width = 365;
}
);
metricRight = "=|";
note = uni141E;
unicode = 5150;
},
{
glyphname = "pe-canadian";
kernLeft = ecanleft;
kernRight = ecanright;
lastChange = "2023-01-13 15:29:45 +0000";
layers = (
{
anchors = (
{
name = middle_center_can;
pos = (341,470);
},
{
name = top_center_can;
pos = (398,714);
},
{
name = top_left_can;
pos = (209,714);
},
{
name = top_right_can;
pos = (584,714);
}
);
layerId = "9563F490-07F6-43DA-A81C-32B2684714C2";
shapes = (
{
closed = 1;
nodes = (
(261,0,l),
(665,688,l),
(670,714,l),
(580,714,l),
(232,109,l),
(296,109,l),
(204,714,l),
(125,714,l),
(119,688,l),
(230,0,l)
);
}
);
width = 596;
}
);
metricLeft = "e-canadian";
metricRight = "e-canadian";
note = uni142F;
unicode = 5167;
},
{
glyphname = "pi-canadian";
kernLeft = icanleft;
kernRight = icanright;
lastChange = "2023-01-13 15:29:45 +0000";
layers = (
{
anchors = (
{
name = middle_center_can;
pos = (330,376);
},
{
name = top_center_can;
pos = (397,714);
},
{
name = top_left_can;
pos = (209,714);
},
{
name = top_right_can;
pos = (583,714);
}
);
layerId = "9563F490-07F6-43DA-A81C-32B2684714C2";
shapes = (
{
closed = 1;
nodes = (
(381,714,l),
(-22,26,l),
(-28,0,l),
(63,0,l),
(410,605,l),
(347,605,l),
(438,0,l),
(517,0,l),
(523,26,l),
(413,714,l)
);
}
);
width = 595;
}
);
metricLeft = "e-canadian";
metricRight = "e-canadian";
note = uni1431;
unicode = 5169;
},
{
glyphname = "po-canadian";
kernLeft = ocanleft;
kernRight = ocanright;
lastChange = "2023-01-13 15:29:45 +0000";
layers = (
{
anchors = (
{
name = middle_center_can;
pos = (193,368);
},
{
name = top_center_can;
pos = (374,714);
},
{
name = top_double;
pos = (471,714);
},
{
name = top_left_can;
pos = (182,714);
},
{
name = top_right_can;
pos = (571,714);
}
);
layerId = "9563F490-07F6-43DA-A81C-32B2684714C2";
name = "Thin Slanted";
shapes = (
{
closed = 1;
nodes = (
(13,0,l),
(534,340,l),
(541,374,l),
(165,714,l),
(141,714,l),
(124,636,l),
(444,345,l),
(453,388,l),
(10,97,l),
(-11,0,l)
);
}
);
width = 544;
}
);
metricRight = "o-canadian";
note = uni1433;
unicode = 5171;
},
{
glyphname = "pa-canadian";
kernLeft = acanleft;
kernRight = acanright;
lastChange = "2023-01-13 15:29:45 +0000";
layers = (
{
anchors = (
{
name = middle_center_can;
pos = (319,357);
},
{
name = top_center_can;
pos = (372,714);
},
{
name = top_left_can;
pos = (175,714);
},
{
name = top_right_can;
pos = (562,714);
}
);
layerId = "9563F490-07F6-43DA-A81C-32B2684714C2";
shapes = (
{
closed = 1;
nodes = (
(577,714,l),
(58,374,l),
(50,340,l),
(425,0,l),
(450,0,l),
(467,78,l),
(147,369,l),
(139,326,l),
(581,617,l),
(602,714,l)
);
}
);
width = 544;
}
);
metricRight = "=|po-canadian";
note = uni1438;
unicode = 5176;
},
{
glyphname = "p-canadian";
kernLeft = mwestleft;
kernRight = mwestright;
lastChange = "2023-01-13 15:28:18 +0000";
layers = (
{
layerId = "9563F490-07F6-43DA-A81C-32B2684714C2";
shapes = (
{
closed = 1;
nodes = (
(307,357,l),
(319,412,l),
(165,554,l),
(155,507,l),
(369,648,l),
(383,714,l),
(370,714,l),
(114,546,l),
(110,526,l),
(294,357,l)
);
}
);
width = 335;
}
);
note = uni1449;
unicode = 5193;
},
{
glyphname = "pWestCree-canadian";
kernLeft = mwestleft;
kernRight = mwestright;
lastChange = "2023-01-13 15:28:18 +0000";
layers = (
{
layerId = "9563F490-07F6-43DA-A81C-32B2684714C2";
shapes = (
{
closed = 1;
nodes = (
(138,357,l),
(214,714,l),
(150,714,l),
(74,357,l)
);
}
);
width = 166;
}
);
metricRight = "=|";
note = uni144A;
unicode = 5194;
},
{
color = 6;
glyphname = "hCarrier-canadian";
lastChange = "2023-01-13 15:28:18 +0000";
layers = (
{
layerId = "9563F490-07F6-43DA-A81C-32B2684714C2";
shapes = (
{
closed = 1;
nodes = (
(102,189,l),
(133,335,ls),
(141,374,o),
(162,393,o),
(189,393,cs),
(222,393,o),
(234,371,o),
(226,333,cs),
(195,189,l),
(259.005,189,l),
(291,341,ls),
(305,405,o),
(273,450,o),
(213,450,cs),
(174,450,o),
(140,425,o),
(130,388,c),
(143,379,l),
(178,546,l),
(115,546,l),
(39,189,l)
);
}
);
width = 306;
}
);
metricLeft = "pWestCree-canadian";
note = uni144B;
unicode = 5195;
},
{
glyphname = "te-canadian";
lastChange = "2023-01-13 15:29:45 +0000";
layers = (
{
anchors = (
{
name = middle_center_can;
pos = (324,357);
},
{
name = top_center_can;
pos = (400,714);
},
{
name = top_left_can;
pos = (205,714);
},
{
name = top_right_can;
pos = (596,714);
}
);
layerId = "9563F490-07F6-43DA-A81C-32B2684714C2";
shapes = (
{
closed = 1;
nodes = (
(419,-13,o),
(505,68,o),
(541,234,cs),
(643,714,l),
(549,714,l),
(449,244,ls),
(424,125,o),
(372,74,o),
(281,74,cs),
(169,74,o),
(128,137,o),
(155,264,cs),
(251,714,l),
(158,714,l),
(64,271,ls),
(26,92,o),
(106,-13,o),
(275,-13,cs)
);
}
);
width = 603;
}
);
metricRight = "=|";
note = uni144C;
unicode = 5196;
},
{
glyphname = "ti-canadian";
lastChange = "2023-01-13 15:29:45 +0000";
layers = (
{
anchors = (
{
name = middle_center_can;
pos = (324,357);
},
{
name = middle_right_can;
pos = (678,357);
},
{
name = top_center_can;
pos = (400,714);
},
{
name = top_left_can;
pos = (205,714);
},
{
name = top_right_can;
pos = (596,714);
}
);
layerId = "9563F490-07F6-43DA-A81C-32B2684714C2";
shapes = (
{
closed = 1;
nodes = (
(99,0,l),
(199,470,ls),
(224,589,o),
(278,640,o),
(368,640,cs),
(479,640,o),
(520,577,o),
(493,450,cs),
(397,0,l),
(491,0,l),
(585,443,ls),
(623,622,o),
(542,727,o),
(374,727,cs),
(229,727,o),
(143,646,o),
(108,480,cs),
(6,0,l)
);
}
);
width = 603;
}
);
metricLeft = "te-canadian";
metricRight = "te-canadian";
note = uni144E;
unicode = 5198;
},
{
glyphname = "to-canadian";
kernLeft = toleft;
lastChange = "2023-01-13 15:28:18 +0000";
layers = (
{
anchors = (
{
name = middle_center_can;
pos = (226,357);
},
{
name = middle_right_can;
pos = (588,357);
},
{
name = top_center_can;
pos = (326,714);
},
{
name = top_double;
pos = (383,714);
},
{
name = top_left_can;
pos = (183,714);
},
{
name = top_right_can;
pos = (512,714);
}
);
layerId = "9563F490-07F6-43DA-A81C-32B2684714C2";
shapes = (
{
closed = 1;
nodes = (
(107,0,ls),
(414,0,o),
(487,291,o),
(487,457,cs),
(487,623,o),
(394,714,o),
(226,714,cs),
(142,714,l),
(124,628,l),
(209,628,ls),
(332,628,o),
(393,570,o),
(393,452,cs),
(393,328,o),
(340,86,o),
(111,86,cs),
(8,86,l),
(-10,0,l)
);
}
);
width = 504;
}
);
note = uni1450;
unicode = 5200;
},
{
glyphname = "ta-canadian";
kernRight = taright;
lastChange = "2023-01-13 15:28:18 +0000";
layers = (
{
anchors = (
{
name = middle_center_can;
pos = (324,357);
},
{
name = top_center_can;
pos = (376,714);
},
{
name = top_left_can;
pos = (188,714);
},
{
name = top_right_can;
pos = (520,714);
}
);
layerId = "9563F490-07F6-43DA-A81C-32B2684714C2";
shapes = (
{
closed = 1;
nodes = (
(409,0,l),
(427,86,l),
(339,86,ls),
(217,86,o),
(158,144,o),
(158,261,cs),
(158,394,o),
(215,628,o),
(438,628,cs),
(542,628,l),
(560,714,l),
(442,714,ls),
(141,714,o),
(64,430,o),
(64,256,cs),
(64,91,o),
(154,0,o),
(322,0,cs)
);
}
);
width = 504;
}
);
metricLeft = "=|to-canadian";
metricRight = "=|to-canadian";
note = uni1455;
unicode = 5205;
},
{
glyphname = "t-canadian";
kernLeft = mwestleft;
kernRight = mwestright;
lastChange = "2023-01-13 15:28:18 +0000";
layers = (
{
layerId = "9563F490-07F6-43DA-A81C-32B2684714C2";
shapes = (
{
closed = 1;
nodes = (
(277,357,l),
(290,418,l),
(251,418,ls),
(198,418,o),
(171,447,o),
(171,499,cs),
(171,565,o),
(199,653,o),
(301,653,cs),
(340,653,l),
(353,714,l),
(309,714,ls),
(162,714,o),
(106,599,o),
(106,493,cs),
(106,405,o),
(157,357,o),
(244,357,cs)
);
}
);
width = 303;
}
);
note = uni1466;
unicode = 5222;
},
{
glyphname = "ke-canadian";
lastChange = "2023-01-13 15:29:45 +0000";
layers = (
{
anchors = (
{
name = middle_center_can;
pos = (302,457);
},
{
name = top_center_can;
pos = (344,714);
},
{
name = top_left_can;
pos = (196,714);
},
{
name = top_right_can;
pos = (492,714);
}
);
layerId = "9563F490-07F6-43DA-A81C-32B2684714C2";
shapes = (
{
closed = 1;
nodes = (
(387,0,l),
(481,446,ls),
(510,583,o),
(484,727,o),
(329,727,cs),
(149,727,o),
(91,515,o),
(91,386,cs),
(91,272,o),
(143,205,o),
(238,205,cs),
(298,205,o),
(344,239,o),
(375,309,c),
(360,314,l),
(293,0,l)
);
},
{
closed = 1;
nodes = (
(209,286,o),
(181,321,o),
(181,390,cs),
(181,462,o),
(214,647,o),
(321,647,cs),
(374,647,o),
(402,612,o),
(402,543,cs),
(402,471,o),
(369,286,o),
(263,286,cs)
);
}
);
width = 499;
}
);
metricRight = "te-canadian";
note = uni146B;
unicode = 5227;
},
{
glyphname = "ki-canadian";
lastChange = "2023-01-13 15:29:45 +0000";
layers = (
{
anchors = (
{
name = middle_center_can;
pos = (310,457);
},
{
name = top_center_can;
pos = (351,714);
},
{
name = top_left_can;
pos = (204,714);
},
{
name = top_right_can;
pos = (500,714);
}
);
layerId = "9563F490-07F6-43DA-A81C-32B2684714C2";
shapes = (
{
closed = 1;
nodes = (
(99,0,l),
(172,341,l),
(156,314,l),
(155,252,o),
(200,205,o),
(273,205,cs),
(441,205,o),
(500,421,o),
(500,542,cs),
(500,660,o),
(441,727,o),
(336,727,cs),
(220,727,o),
(143,645,o),
(110,487,cs),
(6,0,l)
);
},
{
closed = 1;
nodes = (
(217,286,o),
(189,321,o),
(189,390,cs),
(189,462,o),
(224,647,o),
(329,647,cs),
(382,647,o),
(410,612,o),
(410,544,cs),
(410,469,o),
(376,286,o),
(271,286,cs)
);
}
);
width = 499;
}
);
metricLeft = "te-canadian";
metricRight = "=|ke-canadian";
note = uni146D;
unicode = 5229;
},
{
glyphname = "ko-canadian";
lastChange = "2023-01-13 15:29:45 +0000";
layers = (
{
anchors = (
{
name = middle_center_can;
pos = (285,375);
},
{
name = top_center_can;
pos = (345,714);
},
{
name = top_double;
pos = (493,714);
},
{
name = top_left_can;
pos = (197,714);
},
{
name = top_right_can;
pos = (493,714);
}
);
layerId = "9563F490-07F6-43DA-A81C-32B2684714C2";
shapes = (
{
closed = 1;
nodes = (
(326,-13,o),
(402,69,o),
(436,227,cs),
(539,714,l),
(446,714,l),
(373,373,l),
(389,400,l),
(390,462,o),
(345,509,o),
(272,509,cs),
(104,509,o),
(45,293,o),
(45,172,cs),
(45,55,o),
(104,-13,o),
(210,-13,cs)
);
},
{
closed = 1;
nodes = (
(163,67,o),
(135,102,o),
(135,170,cs),
(135,243,o),
(170,428,o),
(275,428,cs),
(328,428,o),
(356,392,o),
(356,324,cs),
(356,248,o),
(323,67,o),
(217,67,cs)
);
}
);
width = 499;
}
);
metricLeft = "ke-canadian";
metricRight = "te-canadian";
note = uni146F;
unicode = 5231;
},
{
glyphname = "ka-canadian";
lastChange = "2023-01-13 15:29:45 +0000";
layers = (
{
anchors = (
{
name = middle_center_can;
pos = (292,377);
},
{
name = top_center_can;
pos = (352,714);
},
{
name = top_left_can;
pos = (204,714);
},
{
name = top_right_can;
pos = (500,714);
}
);
layerId = "9563F490-07F6-43DA-A81C-32B2684714C2";
shapes = (
{
closed = 1;
nodes = (
(396,-13,o),
(454,199,o),
(454,328,cs),
(454,442,o),
(400,509,o),
(306,509,cs),
(248,509,o),
(202,475,o),
(170,405,c),
(184,400,l),
(251,714,l),
(158,714,l),
(63,268,ls),
(25,91,o),
(86,-13,o),
(216,-13,cs)
);
},
{
closed = 1;
nodes = (
(170,67,o),
(142,102,o),
(142,171,cs),
(142,243,o),
(175,428,o),
(281,428,cs),
(335,428,o),
(363,393,o),
(363,324,cs),
(363,252,o),
(330,67,o),
(224,67,cs)
);
}
);
width = 499;
}
);
metricLeft = "te-canadian";
metricRight = "==|ke-canadian";
note = uni1472;
unicode = 5234;
},
{
glyphname = "k-canadian";
kernLeft = mwestleft;
kernRight = mwestright;
lastChange = "2023-01-13 15:28:18 +0000";
layers = (
{
layerId = "9563F490-07F6-43DA-A81C-32B2684714C2";
shapes = (
{
closed = 1;
nodes = (
(289,351,o),
(322,465,o),
(322,527,cs),
(322,586,o),
(293,622,o),
(245,622,cs),
(205,622,o),
(175,594,o),
(162,553,c),
(180,553,l),
(214,714,l),
(150,714,l),
(104,497,ls),
(90,432,o),
(102,351,o),
(191,351,cs)
);
},
{
closed = 1;
nodes = (
(171,400,o),
(158,418,o),
(158,450,cs),
(158,487,o),
(177,573,o),
(226,573,cs),
(250,573,o),
(263,555,o),
(263,524,cs),
(263,486,o),
(244,400,o),
(195,400,cs)
);
}
);
width = 309;
}
);
note = uni1483;
unicode = 5251;
},
{
glyphname = "kw-canadian";
kernLeft = mwestleft;
kernRight = mwestright;
lastChange = "2023-01-13 15:29:45 +0000";
layers = (
{
layerId = "9563F490-07F6-43DA-A81C-32B2684714C2";
shapes = (
{
closed = 1;
nodes = (
(247,350,o),
(290,394,o),
(309,483,cs),
(357,714,l),
(294,714,l),
(258,546,l),
(274,551,l),
(277,593,o),
(249,621,o),
(208,621,cs),
(124,621,o),
(90,512,o),
(90,452,cs),
(90,389,o),
(124,350,o),
(183,350,cs)
);
},
{
closed = 1;
nodes = (
(160,400,o),
(147,418,o),
(147,449,cs),
(147,486,o),
(166,572,o),
(216,572,cs),
(239,572,o),
(253,554,o),
(253,522,cs),
(253,489,o),
(236,400,o),
(184,400,cs)
);
}
);
width = 310;
}
);
metricLeft = "=|k-canadian";
metricRight = "=|k-canadian";
note = uni1484;
unicode = 5252;
},
{
glyphname = "ce-canadian";
kernLeft = celeft;
lastChange = "2023-01-13 15:29:45 +0000";
layers = (
{
anchors = (
{
name = middle_center_can;
pos = (289,417);
},
{
name = top_center_can;
pos = (342,714);
},
{
name = top_left_can;
pos = (195,714);
},
{
name = top_right_can;
pos = (487,714);
}
);
layerId = "9563F490-07F6-43DA-A81C-32B2684714C2";
shapes = (
{
closed = 1;
nodes = (
(381,0,l),
(483,480,ls),
(515,635,o),
(450,727,o),
(324,727,cs),
(204,727,o),
(136,655,o),
(102,497,cs),
(82,401,l),
(174,401,l),
(197,508,ls),
(218,604,o),
(254,645,o),
(313,645,cs),
(383,645,o),
(414,595,o),
(393,498,cs),
(287,0,l)
);
}
);
width = 493;
}
);
metricRight = "te-canadian";
note = uni1489;
unicode = 5257;
},
{
glyphname = "ci-canadian";
kernRight = ciright;
lastChange = "2023-01-13 15:28:18 +0000";
layers = (
{
anchors = (
{
name = middle_center_can;
pos = (299,417);
},
{
name = top_center_can;
pos = (351,714);
},
{
name = top_left_can;
pos = (205,714);
},
{
name = top_right_can;
pos = (498,714);
}
);
layerId = "9563F490-07F6-43DA-A81C-32B2684714C2";
shapes = (
{
closed = 1;
nodes = (
(99,0,l),
(207,508,ls),
(227,604,o),
(263,645,o),
(324,645,cs),
(393,645,o),
(424,595,o),
(403,498,cs),
(383,401,l),
(475,401,l),
(492,480,ls),
(525,635,o),
(460,727,o),
(333,727,cs),
(213,727,o),
(145,655,o),
(112,497,cs),
(6,0,l)
);
}
);
width = 492;
}
);
metricLeft = "te-canadian";
metricRight = "=|ce-canadian";
note = uni148B;
unicode = 5259;
},
{
glyphname = "co-canadian";
kernLeft = coleft;
lastChange = "2023-01-13 15:29:45 +0000";
layers = (
{
anchors = (
{
name = middle_center_can;
pos = (290,417);
},
{
name = top_center_can;
pos = (341,714);
},
{
name = top_double;
pos = (487,714);
},
{
name = top_left_can;
pos = (195,714);
},
{
name = top_right_can;
pos = (487,714);
}
);
layerId = "9563F490-07F6-43DA-A81C-32B2684714C2";
shapes = (
{
closed = 1;
nodes = (
(325,-13,o),
(393,59,o),
(427,217,cs),
(533,714,l),
(439,714,l),
(332,206,ls),
(311,110,o),
(275,69,o),
(215,69,cs),
(145,69,o),
(114,119,o),
(135,216,cs),
(156,313,l),
(63,313,l),
(46,234,ls),
(13,79,o),
(79,-13,o),
(205,-13,cs)
);
}
);
width = 493;
}
);
metricLeft = "ce-canadian";
metricRight = "te-canadian";
note = uni148D;
unicode = 5261;
},
{
glyphname = "ca-canadian";
kernRight = caright;
lastChange = "2023-01-13 15:29:45 +0000";
layers = (
{
anchors = (
{
name = middle_center_can;
pos = (299,417);
},
{
name = top_center_can;
pos = (352,714);
},
{
name = top_left_can;
pos = (205,714);
},
{
name = top_right_can;
pos = (496,714);
}
);
layerId = "9563F490-07F6-43DA-A81C-32B2684714C2";
shapes = (
{
closed = 1;
nodes = (
(334,-13,o),
(402,59,o),
(436,217,cs),
(456,313,l),
(364,313,l),
(341,206,ls),
(320,110,o),
(284,69,o),
(225,69,cs),
(155,69,o),
(124,119,o),
(145,216,cs),
(251,714,l),
(158,714,l),
(56,234,ls),
(23,79,o),
(88,-13,o),
(214,-13,cs)
);
}
);
width = 491;
}
);
metricLeft = "te-canadian";
metricRight = "=|ce-canadian";
note = uni1490;
unicode = 5264;
},
{
glyphname = "c-canadian";
kernLeft = mwestleft;
kernRight = mwestright;
lastChange = "2023-01-13 15:28:18 +0000";
layers = (
{
layerId = "9563F490-07F6-43DA-A81C-32B2684714C2";
shapes = (
{
closed = 1;
nodes = (
(258.001,351,o),
(300,394,o),
(315,468,cs),
(323,504,l),
(264,504,l),
(254,462,ls),
(246,424,o),
(227,403,o),
(198,403,cs),
(165,403,o),
(154,431,o),
(162,469,cs),
(214,714,l),
(150,714,l),
(101,484,ls),
(85,408,o),
(117,351,o),
(194,351,cs)
);
}
);
width = 299;
}
);
note = uni14A1;
unicode = 5281;
},
{
glyphname = "thSayisi-canadian";
lastChange = "2023-01-13 15:29:45 +0000";
layers = (
{
layerId = "9563F490-07F6-43DA-A81C-32B2684714C2";
shapes = (
{
closed = 1;
nodes = (
(240,351,o),
(280,394,o),
(297,470,cs),
(349,714,l),
(285,714,l),
(232,466,ls),
(223,421,o),
(203,403,o),
(174,403,cs),
(141,403,o),
(130,431,o),
(138,469,cs),
(145,504,l),
(86,504,l),
(81,479,ls),
(66,406,o),
(98,351,o),
(175,351,cs)
);
}
);
width = 301;
}
);
metricLeft = "=|c-canadian";
metricRight = "=|c-canadian";
note = uni14A2;
unicode = 5282;
},
{
glyphname = "me-canadian";
kernLeft = meleft;
lastChange = "2023-01-13 15:29:45 +0000";
layers = (
{
anchors = (
{
name = middle_center_can;
pos = (186,357);
},
{
name = top_center_can;
pos = (311,714);
},
{
name = top_left_can;
pos = (180,714);
},
{
name = top_right_can;
pos = (436,714);
}
);
layerId = "9563F490-07F6-43DA-A81C-32B2684714C2";
shapes = (
{
closed = 1;
nodes = (
(332,0,l),
(484,714,l),
(133,714,l),
(115,628,l),
(372,628,l),
(238,0,l)
);
}
);
width = 447;
}
);
metricRight = "nunavuth-canadian";
note = uni14A3;
unicode = 5283;
},
{
glyphname = "mi-canadian";
kernRight = miright;
lastChange = "2023-01-13 15:28:18 +0000";
layers = (
{
anchors = (
{
name = middle_center_can;
pos = (308,357);
},
{
name = top_center_can;
pos = (336,714);
},
{
name = top_left_can;
pos = (208,714);
},
{
name = top_right_can;
pos = (464,714);
}
);
layerId = "9563F490-07F6-43DA-A81C-32B2684714C2";
shapes = (
{
closed = 1;
nodes = (
(102,0,l),
(236,628,l),
(493,628,l),
(511,714,l),
(160.996,714,l),
(8.996,0,l)
);
}
);
width = 446;
}
);
metricLeft = "nunavuth-canadian";
metricRight = "=|me-canadian";
note = uni14A5;
unicode = 5285;
},
{
glyphname = "mo-canadian";
kernLeft = moleft;
lastChange = "2023-01-13 15:29:45 +0000";
layers = (
{
anchors = (
{
name = middle_center_can;
pos = (186,357);
},
{
name = top_center_can;
pos = (311,714);
},
{
name = top_double;
pos = (437,714);
},
{
name = top_left_can;
pos = (180,714);
},
{
name = top_right_can;
pos = (437,714);
}
);
layerId = "9563F490-07F6-43DA-A81C-32B2684714C2";
shapes = (
{
closed = 1;
nodes = (
(332,0,l),
(484,714,l),
(390,714,l),
(257,86,l),
(0,86,l),
(-18,0,l)
);
}
);
width = 447;
}
);
metricLeft = "me-canadian";
metricRight = "nunavuth-canadian";
note = uni14A7;
unicode = 5287;
},
{
glyphname = "ma-canadian";
kernRight = maright;
lastChange = "2023-01-13 15:28:18 +0000";
layers = (
{
anchors = (
{
name = middle_center_can;
pos = (308,357);
},
{
name = top_center_can;
pos = (336,714);
},
{
name = top_left_can;
pos = (208,714);
},
{
name = top_right_can;
pos = (464,714);
}
);
layerId = "9563F490-07F6-43DA-A81C-32B2684714C2";
shapes = (
{
closed = 1;
nodes = (
(359,0,l),
(377,86,l),
(121,86,l),
(254,714,l),
(160.996,714,l),
(8.996,0,l)
);
}
);
width = 446;
}
);
metricLeft = "nunavuth-canadian";
metricRight = "=|me-canadian";
note = uni14AA;
unicode = 5290;
},
{
glyphname = "m-canadian";
kernLeft = mwestleft;
kernRight = mwestright;
lastChange = "2023-01-13 15:28:18 +0000";
layers = (
{
layerId = "9563F490-07F6-43DA-A81C-32B2684714C2";
shapes = (
{
closed = 1;
nodes = (
(267,357,l),
(280,418,l),
(151,418,l),
(214,714,l),
(150,714,l),
(74,357,l)
);
}
);
width = 275;
}
);
metricLeft = "pWestCree-canadian";
note = uni14BB;
unicode = 5307;
},
{
glyphname = "mh-canadian";
kernLeft = mwestleft;
kernRight = mwestright;
lastChange = "2023-01-13 15:28:18 +0000";
layers = (
{
layerId = "9563F490-07F6-43DA-A81C-32B2684714C2";
shapes = (
{
closed = 1;
nodes = (
(247,357,l),
(323,714,l),
(260,714,l),
(197,418,l),
(67,418,l),
(54,357,l)
);
}
);
width = 275;
}
);
metricLeft = "=|m-canadian";
metricRight = "=|m-canadian";
note = uni14BD;
unicode = 5309;
},
{
glyphname = "mAthapascan-canadian";
lastChange = "2023-01-13 15:28:18 +0000";
layers = (
{
layerId = "9563F490-07F6-43DA-A81C-32B2684714C2";
shapes = (
{
closed = 1;
nodes = (
(278,357,l),
(290,413,l),
(152,413,l),
(150,383,l),
(260,502,ls),
(297,542,o),
(324,583,o),
(324,632,cs),
(324,686,o),
(291,720,o),
(235,720,cs),
(175,720,o),
(133,683,o),
(117,595,c),
(175,595,l),
(184,651,o),
(204,672,o),
(231,672,cs),
(254,672,o),
(267,658,o),
(267,632,cs),
(267,595,o),
(244,561,o),
(210,524,cs),
(86,390,l),
(79,357,l)
);
}
);
width = 295;
}
);
note = uni14BE;
unicode = 5310;
},
{
glyphname = "ne-canadian";
kernLeft = neleft;
lastChange = "2023-01-13 15:28:18 +0000";
layers = (
{
anchors = (
{
name = middle_center_can;
pos = (428,254);
},
{
name = top_center_can;
pos = (472,514);
},
{
name = top_left_can;
pos = (151,514);
},
{
name = top_right_can;
pos = (636,514);
}
);
layerId = "9563F490-07F6-43DA-A81C-32B2684714C2";
shapes = (
{
closed = 1;
nodes = (
(568,-13,o),
(629,190,o),
(629,306,cs),
(629,424,o),
(564,495,o),
(448,495,cs),
(100,495,l),
(82,410,l),
(346,410,l),
(346,444,l),
(250,400,o),
(221,258,o),
(221,175,cs),
(221,57,o),
(285,-13,o),
(395,-13,cs)
);
},
{
closed = 1;
nodes = (
(341,67,o),
(311,105,o),
(311,174,cs),
(311,246,o),
(342,415,o),
(451,415,cs),
(508,415,o),
(538,377,o),
(538,307,cs),
(538,236,o),
(508,67,o),
(398,67,cs)
);
}
);
width = 676;
}
);
metricRight = "=|ke-canadian";
note = uni14C0;
unicode = 5312;
},
{
glyphname = "ni-canadian";
kernRight = niright;
lastChange = "2023-01-13 15:29:45 +0000";
layers = (
{
anchors = (
{
name = middle_center_can;
pos = (250,254);
},
{
name = top_center_can;
pos = (318,514);
},
{
name = top_left_can;
pos = (153,514);
},
{
name = top_right_can;
pos = (638,514);
}
);
layerId = "9563F490-07F6-43DA-A81C-32B2684714C2";
shapes = (
{
closed = 1;
nodes = (
(392,-13,o),
(453,190,o),
(453,307,cs),
(453,361,o),
(436,401,o),
(406,424,c),
(398,410,l),
(664,410,l),
(682,495,l),
(287,495,ls),
(104,495,o),
(45,293,o),
(45,176,cs),
(45,57,o),
(109,-13,o),
(219,-13,cs)
);
},
{
closed = 1;
nodes = (
(165,67,o),
(135,105,o),
(135,174,cs),
(135,246,o),
(166,415,o),
(275,415,cs),
(333,415,o),
(362,377,o),
(362,307,cs),
(362,236,o),
(332,67,o),
(223,67,cs)
);
}
);
width = 676;
}
);
metricLeft = "ke-canadian";
metricRight = "=|ne-canadian";
note = uni14C2;
unicode = 5314;
},
{
glyphname = "no-canadian";
kernLeft = noleft;
lastChange = "2023-01-13 15:29:45 +0000";
layers = (
{
anchors = (
{
name = middle_center_can;
pos = (427,254);
},
{
name = top_center_can;
pos = (480,514);
},
{
name = top_double;
pos = (484,514);
},
{
name = top_left_can;
pos = (150,514);
},
{
name = top_right_can;
pos = (636,514);
}
);
layerId = "9563F490-07F6-43DA-A81C-32B2684714C2";
shapes = (
{
closed = 1;
nodes = (
(389,0,ls),
(572,0,o),
(631,203,o),
(631,319,cs),
(631,438,o),
(566,509,o),
(457,509,cs),
(283,509,o),
(223,306,o),
(223,188,cs),
(223,135,o),
(239,94,o),
(270,71,c),
(278,85,l),
(12,85,l),
(-6,0,l)
);
},
{
closed = 1;
nodes = (
(343,80,o),
(313,119,o),
(313,188,cs),
(313,259,o),
(344,428,o),
(453,428,cs),
(510,428,o),
(540,390,o),
(540,321,cs),
(540,250,o),
(509,80,o),
(400,80,cs)
);
}
);
width = 676;
}
);
metricLeft = "ne-canadian";
metricRight = "=|ke-canadian";
note = uni14C4;
unicode = 5316;
},
{
glyphname = "na-canadian";
kernRight = naright;
lastChange = "2023-01-13 15:29:45 +0000";
layers = (
{
anchors = (
{
name = middle_center_can;
pos = (252,254);
},
{
name = top_center_can;
pos = (308,514);
},
{
name = top_double;
pos = (440,514);
},
{
name = top_left_can;
pos = (153,514);
},
{
name = top_right_can;
pos = (639,514);
}
);
layerId = "9563F490-07F6-43DA-A81C-32B2684714C2";
shapes = (
{
closed = 1;
nodes = (
(576,0,l),
(594,85,l),
(330,85,l),
(330,52,l),
(427,95,o),
(456,237,o),
(456,320,cs),
(456,438,o),
(391,509,o),
(282,509,cs),
(108,509,o),
(48,306,o),
(48,189,cs),
(48,72,o),
(112,0,o),
(228,0,cs)
);
},
{
closed = 1;
nodes = (
(168,80,o),
(138,119,o),
(138,188,cs),
(138,259,o),
(169,428,o),
(278,428,cs),
(336,428,o),
(365,390,o),
(365,321,cs),
(365,250,o),
(335,80,o),
(226,80,cs)
);
}
);
width = 676;
}
);
metricLeft = "ke-canadian";
metricRight = "=|ne-canadian";
note = uni14C7;
unicode = 5319;
},
{
glyphname = "n-canadian";
kernLeft = mwestleft;
kernRight = mwestright;
lastChange = "2023-01-13 15:28:18 +0000";
layers = (
{
layerId = "9563F490-07F6-43DA-A81C-32B2684714C2";
shapes = (
{
closed = 1;
nodes = (
(399,449,l),
(412,510,l),
(266,510,l),
(263,475,l),
(310,497,o),
(331,572,o),
(331,616,cs),
(331,680,o),
(296,720,o),
(238,720,cs),
(149,720,o),
(111,622,o),
(111,552,cs),
(111,488,o),
(147,449,o),
(207,449,cs)
);
},
{
closed = 1;
nodes = (
(181,498,o),
(167,517,o),
(167,551,cs),
(167,589,o),
(184,671,o),
(234,671,cs),
(261,671,o),
(274,652,o),
(274,618,cs),
(274,580,o),
(258,498,o),
(206,498,cs)
);
}
);
width = 387;
}
);
metricLeft = "=|k-canadian";
note = uni14D0;
unicode = 5328;
},
{
glyphname = "nh-canadian";
kernLeft = mwestleft;
kernRight = mwestright;
lastChange = "2023-01-13 15:29:45 +0000";
layers = (
{
layerId = "9563F490-07F6-43DA-A81C-32B2684714C2";
shapes = (
{
closed = 1;
nodes = (
(290,449,ls),
(383,449,o),
(421,546,o),
(421,618,cs),
(421,682,o),
(384,720,o),
(327,720,cs),
(239,720,o),
(200,622,o),
(200,552,cs),
(200,529,o),
(207,502,o),
(226,486,c),
(233,510,l),
(87,510,l),
(74,449,l)
);
},
{
closed = 1;
nodes = (
(271,498,o),
(257,517,o),
(257,551,cs),
(257,589,o),
(274,671,o),
(324,671,cs),
(350,671,o),
(364,652,o),
(364,618,cs),
(364,580,o),
(348,498,o),
(297,498,cs)
);
}
);
width = 389;
}
);
metricLeft = "=|n-canadian";
metricRight = "=|n-canadian";
note = uni14D2;
unicode = 5330;
},
{
glyphname = "le-canadian";
kernLeft = neleft;
lastChange = "2023-01-13 15:28:18 +0000";
layers = (
{
anchors = (
{
name = middle_center_can;
pos = (427,254);
},
{
name = top_center_can;
pos = (473,514);
},
{
name = top_left_can;
pos = (151,514);
},
{
name = top_right_can;
pos = (636,514);
}
);
layerId = "9563F490-07F6-43DA-A81C-32B2684714C2";
shapes = (
{
closed = 1;
nodes = (
(338,0,ls),
(539,0,o),
(627,145,o),
(627,295,cs),
(627,418,o),
(551,495,o),
(422,495,cs),
(100,495,l),
(82,410,l),
(404,410,ls),
(489,410,o),
(535,367,o),
(535,289,cs),
(535,203,o),
(494,83,o),
(350,83,cs),
(334,83,l),
(316,0,l)
);
}
);
width = 676;
}
);
metricLeft = "ne-canadian";
metricRight = "=|ke-canadian";
note = uni14D3;
unicode = 5331;
},
{
glyphname = "li-canadian";
kernRight = niright;
lastChange = "2023-01-13 15:29:45 +0000";
layers = (
{
anchors = (
{
name = middle_center_can;
pos = (254,254);
},
{
name = top_center_can;
pos = (321,514);
},
{
name = top_left_can;
pos = (156,514);
},
{
name = top_right_can;
pos = (640,514);
}
);
layerId = "9563F490-07F6-43DA-A81C-32B2684714C2";
shapes = (
{
closed = 1;
nodes = (
(257,0,l),
(274,83,l),
(259,83,ls),
(186,83,o),
(143,130,o),
(143,206,cs),
(143,293,o),
(190,410,o),
(331,410,cs),
(665,410,l),
(683,495,l),
(338,495,ls),
(144,495,o),
(50,355,o),
(50,204,cs),
(50,84,o),
(124,0,o),
(239,0,cs)
);
}
);
width = 677;
}
);
metricLeft = "ke-canadian";
metricRight = "=|ne-canadian";
note = uni14D5;
unicode = 5333;
},
{
glyphname = "lo-canadian";
kernLeft = noleft;
lastChange = "2023-01-13 15:29:45 +0000";
layers = (
{
anchors = (
{
name = middle_center_can;
pos = (426,254);
},
{
name = top_center_can;
pos = (479,514);
},
{
name = top_double;
pos = (448,514);
},
{
name = top_left_can;
pos = (150,514);
},
{
name = top_right_can;
pos = (635,514);
}
);
layerId = "9563F490-07F6-43DA-A81C-32B2684714C2";
shapes = (
{
closed = 1;
nodes = (
(338,0,ls),
(533,0,o),
(626,140,o),
(626,291,cs),
(626,412,o),
(553,495,o),
(438,495,cs),
(420,495,l),
(402,412,l),
(418,412,ls),
(491,412,o),
(534,366,o),
(534,289,cs),
(534,202,o),
(486,85,o),
(346,85,cs),
(12,85,l),
(-6,0,l)
);
}
);
width = 676;
}
);
metricLeft = "ne-canadian";
metricRight = "=|ke-canadian";
note = uni14D7;
unicode = 5335;
},
{
glyphname = "la-canadian";
kernRight = naright;
lastChange = "2023-01-13 15:29:45 +0000";
layers = (
{
anchors = (
{
name = middle_center_can;
pos = (253,254);
},
{
name = top_center_can;
pos = (309,514);
},
{
name = top_left_can;
pos = (155,514);
},
{
name = top_right_can;
pos = (639,514);
}
);
layerId = "9563F490-07F6-43DA-A81C-32B2684714C2";
shapes = (
{
closed = 1;
nodes = (
(576,0,l),
(594,85,l),
(273,85,ls),
(188,85,o),
(142,129,o),
(142,207,cs),
(142,292,o),
(183,412,o),
(327,412,cs),
(343,412,l),
(361,495,l),
(338,495,ls),
(137,495,o),
(49,350,o),
(49,200,cs),
(49,77,o),
(126,0,o),
(255,0,cs)
);
}
);
width = 676;
}
);
metricLeft = "ke-canadian";
metricRight = "=|ne-canadian";
note = uni14DA;
unicode = 5338;
},
{
glyphname = "l-canadian";
kernLeft = mwestleft;
kernRight = mwestright;
lastChange = "2023-01-13 15:29:45 +0000";
layers = (
{
layerId = "9563F490-07F6-43DA-A81C-32B2684714C2";
shapes = (
{
closed = 1;
nodes = (
(373,357,l),
(387,418,l),
(251,418,ls),
(198,418,o),
(171,446,o),
(171,499,cs),
(171,564,o),
(199,653,o),
(298,653,cs),
(305,653,l),
(318,714,l),
(309,714,ls),
(161,714,o),
(106,598,o),
(106,493,cs),
(106,405,o),
(157,357,o),
(248,357,cs)
);
}
);
width = 382;
}
);
metricLeft = "t-canadian";
metricRight = "m-canadian";
note = uni14EA;
unicode = 5354;
},
{
glyphname = "lWestCree-canadian";
kernLeft = mwestleft;
kernRight = mwestright;
lastChange = "2023-01-13 15:29:45 +0000";
layers = (
{
layerId = "9563F490-07F6-43DA-A81C-32B2684714C2";
shapes = (
{
closed = 1;
nodes = (
(273,357,l),
(281,397,l),
(145,473,l),
(138,439,l),
(307,517,l),
(313,548,l),
(175,619,l),
(169,589,l),
(338,665,l),
(349,714,l),
(337,714,l),
(131,622,l),
(126,597,l),
(265,523,l),
(270,548,l),
(99,474,l),
(94,449,l),
(261,357,l)
);
}
);
width = 301;
}
);
metricRight = "=|";
note = uni14EB;
unicode = 5355;
},
{
glyphname = "mediall-canadian";
lastChange = "2023-01-13 15:28:18 +0000";
layers = (
{
layerId = "9563F490-07F6-43DA-A81C-32B2684714C2";
shapes = (
{
closed = 1;
nodes = (
(415,-13,l),
(429,50,l),
(132,212,l),
(123,168,l),
(488,330,l),
(497,373,l),
(199,525,l),
(189,487,l),
(556,650,l),
(572,727,l),
(548,727,l),
(119,536,l),
(111,497,l),
(409,340,l),
(416,374,l),
(51,217,l),
(43,178,l),
(391,-13,l)
);
}
);
width = 528;
}
);
metricRight = "=|";
note = uni14EC;
unicode = 5356;
},
{
glyphname = "se-canadian";
kernRight = seright;
lastChange = "2023-01-13 15:28:18 +0000";
layers = (
{
anchors = (
{
name = top_left_can;
pos = (206,714);
},
{
name = top_right_can;
pos = (445,714);
}
);
layerId = "9563F490-07F6-43DA-A81C-32B2684714C2";
shapes = (
{
closed = 1;
nodes = (
(339,0,l),
(412,343,l),
(385,343,ls),
(246,343,o),
(187,405,o),
(222,570,cs),
(253,714,l),
(160,714,l),
(129,572,ls),
(85,365,o),
(176,258,o),
(364,258,cs),
(378,258,l),
(308,289,l),
(246,0,l)
);
}
);
width = 454;
}
);
note = uni14ED;
unicode = 5357;
},
{
glyphname = "si-canadian";
kernLeft = sileft;
lastChange = "2023-01-13 15:29:45 +0000";
layers = (
{
anchors = (
{
name = top_left_can;
pos = (208,714);
},
{
name = top_right_can;
pos = (446,714);
}
);
layerId = "9563F490-07F6-43DA-A81C-32B2684714C2";
shapes = (
{
closed = 1;
nodes = (
(102,0,l),
(164,290,l),
(87,258,l),
(123,258,ls),
(308,258,o),
(414,347,o),
(459,558,cs),
(492,714,l),
(399,714,l),
(367,564,ls),
(334,415,o),
(258,343,o),
(129,343,cs),
(82,343,l),
(9,0,l)
);
}
);
width = 453;
}
);
metricLeft = "=|se-canadian";
metricRight = "=|se-canadian";
note = uni14EF;
unicode = 5359;
},
{
glyphname = "so-canadian";
kernRight = soright;
lastChange = "2023-01-13 15:29:45 +0000";
layers = (
{
anchors = (
{
name = top_double;
pos = (445,714);
},
{
name = top_left_can;
pos = (207,714);
},
{
name = top_right_can;
pos = (445,714);
}
);
layerId = "9563F490-07F6-43DA-A81C-32B2684714C2";
shapes = (
{
closed = 1;
nodes = (
(101,0,l),
(134,150,ls),
(166,299,o),
(242,371,o),
(372,371,cs),
(419,371,l),
(491,714,l),
(398,714,l),
(336,424,l),
(413,456,l),
(377,456,ls),
(192,456,o),
(86,367,o),
(41,156,cs),
(8,0,l)
);
}
);
width = 455;
}
);
metricLeft = "se-canadian";
metricRight = "se-canadian";
note = uni14F1;
unicode = 5361;
},
{
glyphname = "sa-canadian";
kernLeft = saleft;
kernRight = saright;
lastChange = "2023-01-13 15:28:18 +0000";
layers = (
{
anchors = (
{
name = top_left_can;
pos = (209,714);
},
{
name = top_right_can;
pos = (447,714);
}
);
layerId = "9563F490-07F6-43DA-A81C-32B2684714C2";
shapes = (
{
closed = 1;
nodes = (
(341,0,l),
(372,142,ls),
(416,349,o),
(325,456,o),
(137,456,cs),
(123,456,l),
(193,425,l),
(255,714,l),
(161,714,l),
(89,371,l),
(116,371,ls),
(255,371,o),
(314,309,o),
(278,144,cs),
(248,0,l)
);
}
);
width = 454;
}
);
metricLeft = "=|se-canadian";
metricRight = "=|se-canadian";
note = uni14F4;
unicode = 5364;
},
{
glyphname = "s-canadian";
kernLeft = mwestleft;
kernRight = mwestright;
lastChange = "2023-01-13 15:29:45 +0000";
layers = (
{
layerId = "9563F490-07F6-43DA-A81C-32B2684714C2";
shapes = (
{
closed = 1;
nodes = (
(268,357,l),
(284,436,ls),
(304,533,o),
(262,595,o),
(167,595,cs),
(149,595,l),
(183,566,l),
(214,714,l),
(150,714,l),
(114,543,l),
(146,543,ls),
(213,543,o),
(235,507,o),
(220,435,cs),
(204,357,l)
);
}
);
width = 296;
}
);
metricRight = "=|";
note = uni1505;
unicode = 5381;
},
{
color = 6;
glyphname = "sAthapascan-canadian";
lastChange = "2023-01-13 15:28:18 +0000";
layers = (
{
layerId = "9563F490-07F6-43DA-A81C-32B2684714C2";
shapes = (
{
closed = 1;
nodes = (
(237,183,o),
(281,229,o),
(281,293,cs),
(281,335,o),
(261,364,o),
(220,382,cs),
(190,395,ls),
(167,406,o),
(155,423,o),
(155,444,cs),
(155,479,o),
(176,503,o),
(213,503,cs),
(247,503,o),
(263,485,o),
(254,440,c),
(313,440,l),
(326,509,o),
(285,552,o),
(217,552,cs),
(138,552,o),
(96,505,o),
(96,439,cs),
(96,401,o),
(117,369,o),
(155,352,cs),
(185,339,ls),
(212,326,o),
(222,311,o),
(222,289,cs),
(222,254,o),
(201,232,o),
(165,232,cs),
(128,232,o),
(109,249,o),
(120,297,c),
(61,297,l),
(47,225,o),
(89,183,o),
(163,183,cs)
);
}
);
width = 324;
}
);
metricRight = "=|";
note = uni1506;
unicode = 5382;
},
{
glyphname = "sw-canadian";
kernLeft = mwestleft;
kernRight = mwestright;
lastChange = "2023-01-13 15:28:18 +0000";
layers = (
{
layerId = "9563F490-07F6-43DA-A81C-32B2684714C2";
shapes = (
{
closed = 1;
nodes = (
(138,357,l),
(155,434,ls),
(171,511,o),
(207,543,o),
(275,543,cs),
(307,543,l),
(343,714,l),
(279,714,l),
(249,570,l),
(295,595,l),
(264,595,ls),
(169,595,o),
(114,545,o),
(92,440,cs),
(75,357,l)
);
}
);
width = 295;
}
);
metricLeft = "=|s-canadian";
metricRight = "=|s-canadian";
note = uni1507;
unicode = 5383;
},
{
glyphname = "sBlackfoot-canadian";
lastChange = "2023-01-13 15:28:18 +0000";
layers = (
{
layerId = "9563F490-07F6-43DA-A81C-32B2684714C2";
shapes = (
{
closed = 1;
nodes = (
(274,357,l),
(287,418,l),
(220,418,ls),
(174,418,o),
(156,442,o),
(167,493,cs),
(214,714,l),
(150,714,l),
(105,499,ls),
(85,410,o),
(126,357,o),
(213,357,cs)
);
}
);
width = 282;
}
);
metricLeft = "ai-canadian";
metricRight = "m-canadian";
note = uni1508;
unicode = 5384;
},
{
glyphname = "moosecreesk-canadian";
kernLeft = mwestleft;
kernRight = mwestright;
lastChange = "2023-01-13 15:28:18 +0000";
layers = (
{
layerId = "9563F490-07F6-43DA-A81C-32B2684714C2";
shapes = (
{
closed = 1;
nodes = (
(272,225,o),
(302,363,o),
(302,452,cs),
(302,546,o),
(258,596,o),
(170,596,cs),
(158,596,l),
(183,568,l),
(214,714,l),
(150,714,l),
(114,544,l),
(147,544,ls),
(233,544,o),
(246,507,o),
(243,433,c),
(253,425,l),
(254,455,o),
(241,494,o),
(190,494,cs),
(104,494,o),
(73,385,o),
(73,328,cs),
(73,265,o),
(107,225,o),
(167,225,cs)
);
},
{
closed = 1;
nodes = (
(144,273,o),
(130,292,o),
(130,325,cs),
(130,362,o),
(149,448,o),
(199,448,cs),
(225,448,o),
(238,430,o),
(238,398,cs),
(238,360,o),
(219,273,o),
(170,273,cs)
);
}
);
width = 319;
}
);
metricRight = "=|";
note = uni1509;
unicode = 5385;
},
{
glyphname = "skwNaskapi-canadian";
kernLeft = mwestleft;
kernRight = mwestright;
lastChange = "2023-01-13 15:29:45 +0000";
layers = (
{
layerId = "9563F490-07F6-43DA-A81C-32B2684714C2";
shapes = (
{
closed = 1;
nodes = (
(258,225,o),
(295,331,o),
(295,398,cs),
(295,457,o),
(267,494,o),
(219,494,cs),
(181,494,o),
(150,469,o),
(139,429,c),
(155,432,l),
(183,509,o),
(219,544,o),
(299,544,cs),
(331,544,l),
(367,714,l),
(303,714,l),
(272,567,l),
(312,596,l),
(294,596,ls),
(130,596,o),
(76,428,o),
(76,331,cs),
(76,268,o),
(107,225,o),
(168,225,cs)
);
},
{
closed = 1;
nodes = (
(144,273,o),
(132,292,o),
(132,325,cs),
(132,362,o),
(150,448,o),
(199,448,cs),
(225,448,o),
(238,430,o),
(238,398,cs),
(238,360,o),
(219,273,o),
(171,273,cs)
);
}
);
width = 319;
}
);
metricLeft = "=|moosecreesk-canadian";
metricRight = "=|moosecreesk-canadian";
note = uni150A;
unicode = 5386;
},
{
glyphname = "swNaskapi-canadian";
lastChange = "2023-01-13 15:29:45 +0000";
layers = (
{
layerId = "9563F490-07F6-43DA-A81C-32B2684714C2";
shapes = (
{
closed = 1;
nodes = (
(250,188,l),
(263,253,ls),
(285,356,o),
(239,416,o),
(148,416,cs),
(129,416,l),
(157,388,l),
(187,527,l),
(123,527,l),
(89,365,l),
(124,365,ls),
(189,365,o),
(216,333,o),
(200,254,cs),
(186,188,l)
);
},
{
closed = 1;
nodes = (
(228,47,o),
(251,70,o),
(251,99,cs),
(251,129,o),
(228,152,o),
(199,152,cs),
(171,152,o),
(147,129,o),
(147,99,cs),
(147,70,o),
(171,47,o),
(199,47,cs)
);
},
{
closed = 1;
nodes = (
(203,562,o),
(226,586,o),
(226,615,cs),
(226,644,o),
(203,668,o),
(174,668,cs),
(146,668,o),
(123,644,o),
(123,615,cs),
(123,586,o),
(146,562,o),
(174,562,cs)
);
}
);
width = 328;
}
);
metricRight = "=|";
note = uni150B;
unicode = 5387;
},
{
glyphname = "spwaNaskapi-canadian";
lastChange = "2023-01-13 15:29:45 +0000";
layers = (
{
layerId = "9563F490-07F6-43DA-A81C-32B2684714C2";
shapes = (
{
closed = 1;
nodes = (
(450,0,l),
(467,78,l),
(147,369,l),
(139,326,l),
(581,617,l),
(602,714,l),
(577,714,l),
(58,374,l),
(50,340,l),
(425,0,l)
);
},
{
closed = 1;
nodes = (
(210,515,o),
(233,539,o),
(233,567,cs),
(233,597,o),
(210,620,o),
(181,620,cs),
(153,620,o),
(129,597,o),
(129,567,cs),
(129,539,o),
(153,515,o),
(181,515,cs)
);
},
{
closed = 1;
nodes = (
(377,625,l),
(390,683,ls),
(405,754,o),
(375,797,o),
(308,797,cs),
(283,797,l),
(323,773,l),
(345,876,l),
(284,876,l),
(257,748,l),
(280,748,ls),
(324,748,o),
(338,727,o),
(327,677,cs),
(317,625,l)
);
},
{
closed = 1;
nodes = (
(543,729,o),
(567,753,o),
(567,782,cs),
(567,811,o),
(543,834,o),
(515,834,cs),
(487,834,o),
(463,811,o),
(463,782,cs),
(463,753,o),
(487,729,o),
(515,729,cs)
);
}
);
width = 544;
}
);
metricRight = "pa-canadian";
metricWidth = "pa-canadian";
note = uni150C;
unicode = 5388;
},
{
glyphname = "she-canadian";
kernRight = caright;
lastChange = "2023-01-13 15:29:45 +0000";
layers = (
{
anchors = (
{
name = top_left_can;
pos = (340,714);
},
{
name = top_right_can;
pos = (680,714);
}
);
layerId = "9563F490-07F6-43DA-A81C-32B2684714C2";
shapes = (
{
closed = 1;
nodes = (
(600,-13,o),
(667,63,o),
(699,218,cs),
(719,313,l),
(627,313,l),
(604,208,ls),
(584,110,o),
(551,69,o),
(493,69,cs),
(429,69,o),
(407,120,o),
(424,218,cs),
(469,474,ls),
(497,638,o),
(439,727,o),
(317,727,cs),
(203,727,o),
(137,651,o),
(104,496,cs),
(84,401,l),
(177,401,l),
(199,506,ls),
(220,604,o),
(253,645,o),
(310,645,cs),
(375,645,o),
(397,594,o),
(380,496,cs),
(335,240,ls),
(307,76,o),
(364,-13,o),
(486,-13,cs)
);
}
);
width = 756;
}
);
metricRight = "=|";
note = uni1510;
unicode = 5392;
},
{
glyphname = "shi-canadian";
kernLeft = coleft;
lastChange = "2023-01-13 15:29:45 +0000";
layers = (
{
anchors = (
{
name = top_left_can;
pos = (278,714);
},
{
name = top_right_can;
pos = (617,714);
}
);
layerId = "9563F490-07F6-43DA-A81C-32B2684714C2";
shapes = (
{
closed = 1;
nodes = (
(309,-13,o),
(371,51,o),
(415,225,cs),
(482,495,ls),
(512,609,o),
(541,645,o),
(600,645,cs),
(663,645,o),
(687,593,o),
(664,490,cs),
(645,401,l),
(738,401,l),
(752,467,ls),
(787,625,o),
(731,727,o),
(605,727,cs),
(495,727,o),
(434,663,o),
(390,489,cs),
(321,218,ls),
(292,105,o),
(263,69,o),
(203,69,cs),
(141,69,o),
(117,120,o),
(139,223,cs),
(158,313,l),
(66,313,l),
(51,247,ls),
(17,88,o),
(73,-13,o),
(198,-13,cs)
);
}
);
width = 756;
}
);
metricLeft = "she-canadian";
metricRight = "she-canadian";
note = uni1511;
unicode = 5393;
},
{
glyphname = "sho-canadian";
lastChange = "2023-01-13 15:29:45 +0000";
layers = (
{
anchors = (
{
name = top_center_can;
pos = (444,514);
},
{
name = top_left_can;
pos = (296,514);
},
{
name = top_right_can;
pos = (591,514);
}
);
layerId = "9563F490-07F6-43DA-A81C-32B2684714C2";
shapes = (
{
closed = 1;
nodes = (
(264,69,l),
(181,70,o),
(129,107,o),
(129,168,cs),
(129,230,o),
(165,285,o),
(235,285,cs),
(345,285,o),
(397,126,o),
(548,126,cs),
(669,126,o),
(738,220,o),
(738,329,cs),
(738,436,o),
(655,506,o),
(529,509,c),
(511,427,l),
(595,425,o),
(648,388,o),
(648,327,cs),
(648,266,o),
(611,210,o),
(542,210,cs),
(432,210,o),
(379,370,o),
(229,370,cs),
(104,370,o),
(39,271,o),
(39,167,cs),
(39,59,o),
(122,-11,o),
(246,-13,c)
);
}
);
width = 777;
}
);
metricLeft = "ke-canadian";
metricRight = "=|ke-canadian";
note = uni1513;
unicode = 5395;
},
{
glyphname = "sha-canadian";
lastChange = "2023-01-13 15:29:45 +0000";
layers = (
{
anchors = (
{
name = top_center_can;
pos = (446,514);
},
{
name = top_left_can;
pos = (298,514);
},
{
name = top_right_can;
pos = (593,514);
}
);
layerId = "9563F490-07F6-43DA-A81C-32B2684714C2";
shapes = (
{
closed = 1;
nodes = (
(596,-16,o),
(714,68,o),
(714,217,cs),
(714,307,o),
(656,370,o),
(564,370,cs),
(428,370,o),
(324,210,o),
(229,210,cs),
(184,210,o),
(156,239,o),
(156,286,cs),
(156,381,o),
(232,427,o),
(329,427,c),
(346,509,l),
(181,511,o),
(63,427,o),
(63,278,cs),
(63,188,o),
(121,126,o),
(213,126,cs),
(348,126,o),
(453,285,o),
(547,285,cs),
(593,285,o),
(621,256,o),
(621,209,cs),
(621,114,o),
(546,68,o),
(448,69,c),
(431,-13,l)
);
}
);
width = 777;
}
);
metricLeft = "ke-canadian";
metricRight = "=|ke-canadian";
note = uni1515;
unicode = 5397;
},
{
glyphname = "sh-canadian";
kernLeft = mwestleft;
kernRight = mwestright;
lastChange = "2023-01-13 15:29:45 +0000";
layers = (
{
layerId = "9563F490-07F6-43DA-A81C-32B2684714C2";
shapes = (
{
closed = 1;
nodes = (
(496,296,o),
(588,360,o),
(588,475,cs),
(588,543,o),
(543,592,o),
(468,592,cs),
(375,592,o),
(311,493,o),
(241,493,cs),
(202,493,o),
(180,515,o),
(180,551,cs),
(180,621,o),
(239,665,o),
(327,662,c),
(339,722,l),
(209,725,o),
(115,662,o),
(115,546,cs),
(115,477,o),
(161,429,o),
(236,429,cs),
(329,429,o),
(393,528,o),
(463,528,cs),
(502,528,o),
(523,506,o),
(523,470,cs),
(523,403,o),
(467,356,o),
(379,359,c),
(367,299,l)
);
}
);
width = 591;
}
);
metricLeft = "t-canadian";
metricRight = "=|";
note = uni1525;
unicode = 5413;
},
{
glyphname = "ye-canadian";
kernLeft = yeleft;
lastChange = "2023-01-13 15:28:18 +0000";
layers = (
{
anchors = (
{
name = middle_right_can;
pos = (544,357);
},
{
name = top_left_can;
pos = (184,714);
},
{
name = top_right_can;
pos = (472,714);
}
);
layerId = "9563F490-07F6-43DA-A81C-32B2684714C2";
shapes = (
{
closed = 1;
nodes = (
(367,0,l),
(438,334,l),
(171,334,l),
(176,304,l),
(519,670,l),
(455,726,l),
(44,282,l),
(38,251,l),
(327,251,l),
(273,0,l)
);
}
);
width = 479;
}
);
note = uni1526;
unicode = 5414;
},
{
glyphname = "yi-canadian";
kernRight = yiright;
lastChange = "2023-01-13 15:28:18 +0000";
layers = (
{
anchors = (
{
name = top_left_can;
pos = (207,714);
},
{
name = top_right_can;
pos = (496,714);
}
);
layerId = "9563F490-07F6-43DA-A81C-32B2684714C2";
shapes = (
{
closed = 1;
nodes = (
(100,0,l),
(153,251,l),
(442,251,l),
(449,282,l),
(209.995,726,l),
(135,684,l),
(341,307,l),
(345,334,l),
(77,334,l),
(6,0,l)
);
}
);
width = 479;
}
);
metricRight = "=|ye-canadian";
metricWidth = "ye-canadian";
note = uni1528;
unicode = 5416;
},
{
glyphname = "yo-canadian";
kernLeft = yoleft;
lastChange = "2023-01-13 15:28:18 +0000";
layers = (
{
anchors = (
{
name = middle_right_can;
pos = (544,357);
},
{
name = top_double;
pos = (472,714);
},
{
name = top_left_can;
pos = (183,714);
},
{
name = top_right_can;
pos = (472,714);
}
);
layerId = "9563F490-07F6-43DA-A81C-32B2684714C2";
shapes = (
{
closed = 1;
nodes = (
(390,30,l),
(184,407,l),
(180,380,l),
(447,380,l),
(519,714,l),
(425,714,l),
(372,463,l),
(83,463,l),
(76,432,l),
(315,-12,l)
);
}
);
width = 479;
}
);
metricLeft = "ye-canadian";
metricWidth = "ye-canadian";
note = uni152A;
unicode = 5418;
},
{
glyphname = "ya-canadian";
kernRight = yaright;
lastChange = "2023-01-13 15:28:18 +0000";
layers = (
{
anchors = (
{
name = top_left_can;
pos = (205,714);
},
{
name = top_right_can;
pos = (494,714);
}
);
layerId = "9563F490-07F6-43DA-A81C-32B2684714C2";
shapes = (
{
closed = 1;
nodes = (
(481,432,l),
(487,463,l),
(198,463,l),
(252,714,l),
(158,714,l),
(87,380,l),
(355,380,l),
(349,410,l),
(6,44,l),
(70,-12,l)
);
}
);
width = 479;
}
);
metricRight = "=|ye-canadian";
metricWidth = "ye-canadian";
note = uni152D;
unicode = 5421;
},
{
glyphname = "y-canadian";
kernLeft = mwestleft;
kernRight = mwestright;
lastChange = "2023-01-13 15:28:18 +0000";
layers = (
{
layerId = "9563F490-07F6-43DA-A81C-32B2684714C2";
shapes = (
{
closed = 1;
nodes = (
(326,568,l),
(331,588,l),
(191,588,l),
(218,714,l),
(155,714,l),
(116,534,l),
(254,534,l),
(252,572,l),
(80,386,l),
(125,348,l)
);
}
);
width = 286;
}
);
note = uni153E;
unicode = 5438;
},
{
glyphname = "biblecreey-canadian";
lastChange = "2023-01-13 15:28:18 +0000";
layers = (
{
layerId = "9563F490-07F6-43DA-A81C-32B2684714C2";
shapes = (
{
closed = 1;
nodes = (
(125,357,l),
(239,644,l),
(204,645,l),
(223,357,l),
(260,357,l),
(401,644,l),
(365,644,l),
(358,357,l),
(415,357,l),
(418,374,l),
(425,714,l),
(378,714,l),
(231,418,l),
(272,418,l),
(253,714,l),
(207,714,l),
(68,374,l),
(64,357,l)
);
}
);
width = 433;
}
);
metricRight = "=|";
note = uni153F;
unicode = 5439;
},
{
glyphname = "yWestCree-canadian";
lastChange = "2023-01-13 15:28:18 +0000";
layers = (
{
layerId = "9563F490-07F6-43DA-A81C-32B2684714C2";
shapes = (
{
closed = 1;
nodes = (
(209,216,l),
(235,338,l),
(339,338,l),
(352,399,l),
(248,399,l),
(273,517,l),
(213,517,l),
(188,399,l),
(83,399,l),
(70,338,l),
(174,338,l),
(149,216,l)
);
}
);
width = 371;
}
);
metricLeft = "shorthorizontalstrokeFinal-canadian";
metricRight = "shorthorizontalstrokeFinal-canadian";
note = uni1540;
unicode = 5440;
},
{
glyphname = "re-canadian";
kernRight = niright;
lastChange = "2023-01-13 15:29:45 +0000";
layers = (
{
anchors = (
{
name = top_center_can;
pos = (310,514);
},
{
name = top_left_can;
pos = (163,514);
},
{
name = top_right_can;
pos = (674,514);
}
);
layerId = "9563F490-07F6-43DA-A81C-32B2684714C2";
shapes = (
{
closed = 1;
nodes = (
(335,-13,o),
(406,55,o),
(438,207,cs),
(482,410,l),
(698,410,l),
(716,495,l),
(408,495,l),
(346,203,ls),
(326,109,o),
(289,69,o),
(226,69,cs),
(156,69,o),
(126,119,o),
(146,211,cs),
(206,495,l),
(113,495,l),
(56,227,ls),
(24,80,o),
(88,-13,o),
(222,-13,cs)
);
}
);
width = 710;
}
);
metricRight = "=|ne-canadian";
note = uni1542;
unicode = 5442;
},
{
glyphname = "reRCree-canadian";
kernLeft = neleft;
lastChange = "2023-01-13 15:28:18 +0000";
layers = (
{
anchors = (
{
name = top_center_can;
pos = (513,514);
},
{
name = top_left_can;
pos = (151,514);
},
{
name = top_right_can;
pos = (661,514);
}
);
layerId = "9563F490-07F6-43DA-A81C-32B2684714C2";
shapes = (
{
closed = 1;
nodes = (
(539,-13,o),
(610,55,o),
(642,207,cs),
(704,495,l),
(610,495,l),
(548,203,ls),
(527,109,o),
(490,69,o),
(428,69,cs),
(357,69,o),
(328,119,o),
(348,211,cs),
(408,495,l),
(100,495,l),
(82,410,l),
(299,410,l),
(260,227,ls),
(228,81,o),
(292,-13,o),
(426,-13,cs)
);
}
);
width = 711;
}
);
metricLeft = "ne-canadian";
metricRight = "=|re-canadian";
note = uni1543;
unicode = 5443;
},
{
glyphname = "leWestCree-canadian";
kernLeft = noleft;
lastChange = "2023-01-13 15:29:45 +0000";
layers = (
{
anchors = (
{
name = top_center_can;
pos = (513,514);
},
{
name = top_left_can;
pos = (149,514);
},
{
name = top_right_can;
pos = (660,514);
}
);
layerId = "9563F490-07F6-43DA-A81C-32B2684714C2";
shapes = (
{
closed = 1;
nodes = (
(302,0,l),
(364,293,ls),
(385,387,o),
(422,426,o),
(484,426,cs),
(555,426,o),
(584,377,o),
(564,284,cs),
(504,0,l),
(597,0,l),
(654,268,ls),
(686,415,o),
(622,509,o),
(489,509,cs),
(375,509,o),
(305,440,o),
(272,288,cs),
(229,85,l),
(12,85,l),
(-6,0,l)
);
}
);
width = 710;
}
);
metricLeft = "ne-canadian";
metricRight = "=|re-canadian";
note = uni1544;
unicode = 5444;
},
{
glyphname = "ri-canadian";
kernRight = naright;
lastChange = "2023-01-13 15:28:18 +0000";
layers = (
{
anchors = (
{
name = top_center_can;
pos = (311,514);
},
{
name = top_left_can;
pos = (163,514);
},
{
name = top_right_can;
pos = (674,514);
}
);
layerId = "9563F490-07F6-43DA-A81C-32B2684714C2";
shapes = (
{
closed = 1;
nodes = (
(101,0,l),
(164,293,ls),
(184,387,o),
(221,426,o),
(285,426,cs),
(354,426,o),
(383,376,o),
(364,284,cs),
(303,0,l),
(611,0,l),
(629,85,l),
(413,85,l),
(452,268,ls),
(483,415,o),
(419,509,o),
(291,509,cs),
(172,509,o),
(102,440,o),
(69,288,cs),
(8,0,l)
);
}
);
width = 711;
}
);
metricLeft = "re-canadian";
metricRight = "=|ne-canadian";
note = uni1546;
unicode = 5446;
},
{
glyphname = "ro-canadian";
lastChange = "2023-01-13 15:28:18 +0000";
layers = (
{
anchors = (
{
name = top_center_can;
pos = (299,714);
}
);
layerId = "9563F490-07F6-43DA-A81C-32B2684714C2";
shapes = (
{
closed = 1;
nodes = (
(103,0,l),
(165,293,l),
(121,252,l),
(197,252,ls),
(397,252,o),
(462,403,o),
(462,529,cs),
(462,643,o),
(392,714,o),
(272,714,cs),
(163,714,l),
(145,630,l),
(255,630,ls),
(330,630,o),
(370,592,o),
(370,522,cs),
(370,429,o),
(322,334,o),
(193,334,cs),
(80,334,l),
(9,0,l)
);
}
);
width = 456;
}
);
metricLeft = "nunavuth-canadian";
note = uni1548;
unicode = 5448;
},
{
glyphname = "loWestCree-canadian";
lastChange = "2023-01-13 15:29:45 +0000";
layers = (
{
anchors = (
{
name = top_center_can;
pos = (311,714);
},
{
name = top_left_can;
pos = (208,714);
}
);
layerId = "9563F490-07F6-43DA-A81C-32B2684714C2";
shapes = (
{
closed = 1;
nodes = (
(144,0,ls),
(344,0,o),
(409,151,o),
(409,277,cs),
(409,391,o),
(339,462,o),
(219,462,cs),
(160,462,l),
(192,420,l),
(254,714,l),
(160.996,714,l),
(90,380,l),
(202,380,ls),
(277,380,o),
(317,342,o),
(317,272,cs),
(317,179,o),
(269,85,o),
(140,85,cs),
(27,85,l),
(9,0,l)
);
}
);
width = 457;
}
);
metricLeft = "nunavuth-canadian";
metricRight = "ro-canadian";
note = uni154A;
unicode = 5450;
},
{
glyphname = "ra-canadian";
lastChange = "2023-01-13 15:29:45 +0000";
layers = (
{
anchors = (
{
name = top_center_can;
pos = (355,714);
},
{
name = top_right_can;
pos = (446,714);
}
);
layerId = "9563F490-07F6-43DA-A81C-32B2684714C2";
shapes = (
{
closed = 1;
nodes = (
(342,0,l),
(413,334,l),
(301,334,ls),
(226,334,o),
(186,372,o),
(186,442,cs),
(186,535,o),
(234,629,o),
(363,629,cs),
(476,629,l),
(494,714,l),
(359,714,ls),
(159,714,o),
(94,563,o),
(94,437,cs),
(94,323,o),
(164,252,o),
(284,252,cs),
(343,252,l),
(311,294,l),
(248,0,l)
);
}
);
width = 457;
}
);
metricLeft = "=|ro-canadian";
metricRight = "nunavuth-canadian";
note = uni154B;
unicode = 5451;
},
{
glyphname = "laWestCree-canadian";
lastChange = "2023-01-13 15:29:45 +0000";
layers = (
{
anchors = (
{
name = top_center_can;
pos = (447,714);
}
);
layerId = "9563F490-07F6-43DA-A81C-32B2684714C2";
shapes = (
{
closed = 1;
nodes = (
(341,0,l),
(359,84,l),
(248,84,ls),
(173,84,o),
(133,122,o),
(133,192,cs),
(133,285,o),
(181,380,o),
(310,380,cs),
(423,380,l),
(494,714,l),
(401,714,l),
(339,421,l),
(383,462,l),
(306,462,ls),
(106,462,o),
(41,311,o),
(41,185,cs),
(41,71,o),
(111,0,o),
(231,0,cs)
);
}
);
width = 457;
}
);
metricLeft = "=|ro-canadian";
metricRight = "nunavuth-canadian";
note = uni154D;
unicode = 5453;
},
{
glyphname = "r-canadian";
kernLeft = mwestleft;
kernRight = mwestright;
lastChange = "2023-01-13 15:29:45 +0000";
layers = (
{
layerId = "9563F490-07F6-43DA-A81C-32B2684714C2";
shapes = (
{
closed = 1;
nodes = (
(243,357,l),
(280,532,l),
(232,532,ls),
(196,532,o),
(177,550,o),
(177,581,cs),
(177,621,o),
(196,661,o),
(259,661,cs),
(307,661,l),
(319,714,l),
(269,714,ls),
(170,714,o),
(116,661,o),
(116,579,cs),
(116,521,o),
(155,480,o),
(220,480,cs),
(244,480,l),
(209,498,l),
(179,357,l)
);
}
);
width = 271;
}
);
metricLeft = "=|k-canadian";
note = uni1550;
unicode = 5456;
},
{
glyphname = "rWestCree-canadian";
kernLeft = mwestleft;
kernRight = mwestright;
lastChange = "2023-01-13 15:29:45 +0000";
layers = (
{
layerId = "9563F490-07F6-43DA-A81C-32B2684714C2";
shapes = (
{
closed = 1;
nodes = (
(150,714,l),
(142,674,l),
(278,598,l),
(285,632,l),
(116,554,l),
(110,523,l),
(247,452,l),
(254,482,l),
(85,406,l),
(74,357,l),
(86,357,l),
(292,449,l),
(297,474,l),
(158,548,l),
(153,523,l),
(324,597,l),
(329,622,l),
(162,714,l)
);
}
);
width = 301;
}
);
metricLeft = "=|lWestCree-canadian";
metricRight = "=|lWestCree-canadian";
note = uni1551;
unicode = 5457;
},
{
glyphname = "rMedial-canadian";
lastChange = "2023-01-13 15:29:45 +0000";
layers = (
{
layerId = "9563F490-07F6-43DA-A81C-32B2684714C2";
shapes = (
{
closed = 1;
nodes = (
(26,-13,l),
(456,178,l),
(464,217,l),
(165,374,l),
(158,340,l),
(523,497,l),
(531,536,l),
(183,727,l),
(159,727,l),
(146,664,l),
(442,502,l),
(452,546,l),
(86,384,l),
(77,341,l),
(376,189,l),
(385,227,l),
(19,64,l),
(3,-13,l)
);
}
);
width = 528;
}
);
metricLeft = "mediall-canadian";
metricRight = "mediall-canadian";
note = uni1552;
unicode = 5458;
},
{
glyphname = "fe-canadian";
kernLeft = ecanleft;
kernRight = ecanright;
lastChange = "2023-01-13 15:28:18 +0000";
layers = (
{
layerId = "9563F490-07F6-43DA-A81C-32B2684714C2";
shapes = (
{
closed = 1;
nodes = (
(276,0,l),
(711,688,l),
(717,714,l),
(639,714,l),
(266,106,l),
(286,106,l),
(230,373,l),
(184,368,l),
(200,347,o),
(225,334,o),
(260,334,cs),
(382,334,o),
(434,496,o),
(434,585,cs),
(434,671,o),
(391,727,o),
(313,727,cs),
(188,727,o),
(138,576,o),
(138,470,cs),
(138,438,o),
(143,407,o),
(153,371,cs),
(244,0,l)
);
},
{
closed = 1;
nodes = (
(228,395,o),
(210,423,o),
(210,472,cs),
(210,529,o),
(236,659,o),
(309,659,cs),
(343,659,o),
(362,632,o),
(362,583,cs),
(362,526,o),
(336,395,o),
(264,395,cs)
);
}
);
width = 643;
}
);
metricRight = "e-canadian";
note = uni1553;
unicode = 5459;
},
{
glyphname = "fi-canadian";
kernLeft = icanleft;
kernRight = icanright;
lastChange = "2023-01-13 15:29:45 +0000";
layers = (
{
anchors = (
{
name = top_center_can;
pos = (407,714);
},
{
name = top_left_can;
pos = (216,714);
},
{
name = top_right_can;
pos = (621,714);
}
);
layerId = "9563F490-07F6-43DA-A81C-32B2684714C2";
shapes = (
{
closed = 1;
nodes = (
(314,-13,o),
(358,142,o),
(358,233,cs),
(358,324,o),
(315,381,o),
(248,381,cs),
(224,381,o),
(196,370,o),
(171,348,c),
(227,349,l),
(400,608,l),
(377,608,l),
(499,0,l),
(564,0,l),
(569,26,l),
(423,714,l),
(391,714,l),
(141,353,ls),
(94,285,o),
(64,211,o),
(64,128,cs),
(64,42,o),
(108,-13,o),
(185,-13,cs)
);
},
{
closed = 1;
nodes = (
(154,55,o),
(136,82,o),
(136,131,cs),
(136,188,o),
(162,319,o),
(235,319,cs),
(270,319,o),
(287,290,o),
(287,239,cs),
(287,180,o),
(260,55,o),
(190,55,cs)
);
}
);
width = 642;
}
);
metricLeft = "fe-canadian";
metricRight = "e-canadian";
note = uni1555;
unicode = 5461;
},
{
glyphname = "fo-canadian";
kernLeft = ocanleft;
kernRight = ocanright;
lastChange = "2023-01-13 15:29:45 +0000";
layers = (
{
anchors = (
{
name = top_center_can;
pos = (287,714);
}
);
layerId = "9563F490-07F6-43DA-A81C-32B2684714C2";
shapes = (
{
closed = 1;
nodes = (
(44.996,0,l),
(558,340,l),
(565,374,l),
(381,664,ls),
(356,703,o),
(325,727,o),
(276,727,cs),
(167,727,o),
(112,598,o),
(102,501,cs),
(92,397,o),
(137,329,o),
(217,329,cs),
(318,329,o),
(377,451,o),
(386,548,cs),
(388,581,o),
(387,611,o),
(383,633,c),
(347,581,l),
(492,355,l),
(500,390,l),
(39,84,l),
(21,0,l)
);
},
{
closed = 1;
nodes = (
(188,396,o),
(170,431,o),
(175,495,cs),
(180,561,o),
(205,661,o),
(271,661,cs),
(309,661,o),
(326,627,o),
(322,563,cs),
(317,497,o),
(292,396,o),
(226,396,cs)
);
}
);
width = 568;
}
);
metricRight = "o-canadian";
note = uni1557;
unicode = 5463;
},
{
glyphname = "fa-canadian";
kernLeft = acanleft;
kernRight = acanright;
lastChange = "2023-01-13 15:29:45 +0000";
layers = (
{
anchors = (
{
name = top_center_can;
pos = (482,714);
}
);
layerId = "9563F490-07F6-43DA-A81C-32B2684714C2";
shapes = (
{
closed = 1;
nodes = (
(443,0,l),
(458,70,l),
(134,369,l),
(129,346,l),
(366,578,l),
(346,647,l),
(311,589,o),
(295,520,o),
(295,470,cs),
(295,383,o),
(341,327,o),
(418,327,cs),
(536,327,o),
(588,487,o),
(588,581,cs),
(588,672,o),
(542,727,o),
(470,727,cs),
(429,727,o),
(393,710,o),
(356,673,cs),
(57,374,l),
(50,340,l),
(419,0,l)
);
},
{
closed = 1;
nodes = (
(383,394,o),
(365,422,o),
(365,471,cs),
(365,528,o),
(391,659,o),
(463,659,cs),
(498,659,o),
(517,632,o),
(517,583,cs),
(517,526,o),
(491,394,o),
(418,394,cs)
);
}
);
width = 570;
}
);
metricRight = "=|fo-canadian";
note = uni1559;
unicode = 5465;
},
{
glyphname = "f-canadian";
kernLeft = mwestleft;
kernRight = mwestright;
lastChange = "2023-01-13 15:28:18 +0000";
layers = (
{
layerId = "9563F490-07F6-43DA-A81C-32B2684714C2";
shapes = (
{
closed = 1;
nodes = (
(297,357,l),
(305,400,l),
(149,545,l),
(148,531,l),
(258,641,l),
(254,682,l),
(238,658,o),
(225,616,o),
(225,588,cs),
(225,547,o),
(248,519,o),
(284,519,cs),
(342,519,o),
(369,595,o),
(369,649,cs),
(369,694,o),
(349,720,o),
(312,720,cs),
(291,720,o),
(273,711,o),
(253,691,cs),
(104,544,l),
(100,525,l),
(284,357,l)
);
},
{
closed = 1;
nodes = (
(269,556,o),
(261,568,o),
(261,590,cs),
(261,616,o),
(274,683,o),
(307,683,cs),
(322,683,o),
(331,672,o),
(331,650,cs),
(331,624,o),
(318,556,o),
(285,556,cs)
);
}
);
width = 334;
}
);
note = uni155D;
unicode = 5469;
},
{
glyphname = "the-canadian";
lastChange = "2023-01-13 15:29:45 +0000";
layers = (
{
anchors = (
{
name = middle_right_can;
pos = (687,357);
},
{
name = top_center_can;
pos = (406,714);
},
{
name = top_left_can;
pos = (205,714);
},
{
name = top_right_can;
pos = (605,714);
}
);
layerId = "9563F490-07F6-43DA-A81C-32B2684714C2";
shapes = (
{
closed = 1;
nodes = (
(427,-13,o),
(513,65,o),
(549,234,cs),
(652,714,l),
(558,714,l),
(458,243,ls),
(433,126,o),
(379,73,o),
(284,73,cs),
(152,73,o),
(132,159,o),
(157,273,cs),
(194,441,l),
(148,418,l),
(152,371,o),
(181,326,o),
(233,326,cs),
(349,326,o),
(400,456,o),
(411,557,cs),
(423,661,o),
(379,727,o),
(291,727,cs),
(204,727,o),
(147,658,o),
(119,529,cs),
(67,282,ls),
(31,110,o),
(91,-13,o),
(280,-13,cs)
);
},
{
closed = 1;
nodes = (
(206,394,o),
(188,422,o),
(188,471,cs),
(188,528,o),
(215,659,o),
(287,659,cs),
(322,659,o),
(340,632,o),
(340,583,cs),
(340,525,o),
(314,394,o),
(242,394,cs)
);
}
);
width = 612;
}
);
metricLeft = "te-canadian";
metricRight = "te-canadian";
note = uni155E;
unicode = 5470;
},
{
glyphname = "theNCree-canadian";
lastChange = "2023-01-13 15:28:18 +0000";
layers = (
{
layerId = "9563F490-07F6-43DA-A81C-32B2684714C2";
shapes = (
{
closed = 1;
nodes = (
(428,-13,o),
(512,68,o),
(551,247,cs),
(606,507,ls),
(637,651,o),
(582,727,o),
(497,727,cs),
(373,727,o),
(323,576,o),
(323,472,cs),
(323,389,o),
(363,326,o),
(439,326,cs),
(481,326,o),
(522,354,o),
(543,398,c),
(498,428,l),
(460,251,ls),
(433,124,o),
(381,71,o),
(283,71,cs),
(169,71,o),
(129,137,o),
(155,264,cs),
(251,714,l),
(158,714,l),
(64,271,ls),
(26,92,o),
(106,-13,o),
(277,-13,cs)
);
},
{
closed = 1;
nodes = (
(413,394,o),
(394,422,o),
(394,471,cs),
(394,528,o),
(421,659,o),
(492,659,cs),
(526,659,o),
(544,632,o),
(544,583,cs),
(544,525,o),
(518,394,o),
(447,394,cs)
);
}
);
width = 610;
}
);
metricLeft = "te-canadian";
metricRight = "te-canadian";
note = uni155F;
unicode = 5471;
},
{
glyphname = "thi-canadian";
lastChange = "2023-01-13 15:29:45 +0000";
layers = (
{
anchors = (
{
name = top_center_can;
pos = (402,714);
}
);
layerId = "9563F490-07F6-43DA-A81C-32B2684714C2";
shapes = (
{
closed = 1;
nodes = (
(284,-13,o),
(334,138,o),
(334,242,cs),
(334,325,o),
(294,388,o),
(218,388,cs),
(176,388,o),
(135,360,o),
(114,316,c),
(159,286,l),
(197,463,ls),
(224,590,o),
(277,643,o),
(374,643,cs),
(488,643,o),
(529,577,o),
(502,450,cs),
(406,0,l),
(500,0,l),
(594,443,ls),
(631,622,o),
(551,727,o),
(380,727,cs),
(229,727,o),
(145,646,o),
(106,467,cs),
(51,207,ls),
(20,63,o),
(75,-13,o),
(160,-13,cs)
);
},
{
closed = 1;
nodes = (
(131,55,o),
(113,82,o),
(113,131,cs),
(113,189,o),
(139,320,o),
(210,320,cs),
(244,320,o),
(263,292,o),
(263,243,cs),
(263,186,o),
(236,55,o),
(165,55,cs)
);
}
);
width = 612;
}
);
metricLeft = "te-canadian";
metricRight = "te-canadian";
note = uni1560;
unicode = 5472;
},
{
glyphname = "thiNCree-canadian";
lastChange = "2023-01-13 15:28:18 +0000";
layers = (
{
anchors = (
{
name = top_center_can;
pos = (401,714);
}
);
layerId = "9563F490-07F6-43DA-A81C-32B2684714C2";
shapes = (
{
closed = 1;
nodes = (
(453,-13,o),
(511,56,o),
(538,185,cs),
(590,432,ls),
(626,604,o),
(566,727,o),
(377,727,cs),
(230,727,o),
(144,649,o),
(108,480,cs),
(6,0,l),
(99,0,l),
(199,471,ls),
(224,588,o),
(278,641,o),
(373,641,cs),
(505,641,o),
(526,555,o),
(500,441,cs),
(463,273,l),
(510,296,l),
(506,343,o),
(476,388,o),
(424,388,cs),
(309,388,o),
(258,258,o),
(246,157,cs),
(235,53,o),
(279,-13,o),
(366,-13,cs)
);
},
{
closed = 1;
nodes = (
(336,55,o),
(317,82,o),
(317,131,cs),
(317,189,o),
(343,320,o),
(416,320,cs),
(451,320,o),
(469,292,o),
(469,243,cs),
(469,186,o),
(443,55,o),
(370,55,cs)
);
}
);
width = 610;
}
);
metricLeft = "te-canadian";
metricRight = "te-canadian";
note = uni1561;
unicode = 5473;
},
{
glyphname = "tho-canadian";
lastChange = "2023-01-13 15:29:45 +0000";
layers = (
{
anchors = (
{
name = top_center_can;
pos = (356,714);
}
);
layerId = "9563F490-07F6-43DA-A81C-32B2684714C2";
shapes = (
{
closed = 1;
nodes = (
(177,0,ls),
(464,0,o),
(543,289,o),
(543,463,cs),
(543,624,o),
(467,727,o),
(337,727,cs),
(175,727,o),
(104,572,o),
(104,446,cs),
(104,357,o),
(146,300,o),
(220,300,cs),
(342,300,o),
(388,455,o),
(388,548,cs),
(388,624,o),
(356,674,o),
(298,681,c),
(279,655,l),
(286,662,o),
(302,667,o),
(324,667,cs),
(408,667,o),
(455,595,o),
(455,476,cs),
(455,351,o),
(409,86,o),
(181,86,cs),
(49,86,l),
(31,0,l)
);
},
{
closed = 1;
nodes = (
(195,367,o),
(177,394,o),
(177,443,cs),
(177,495,o),
(204,642,o),
(277,642,cs),
(311,642,o),
(329,614,o),
(329,566,cs),
(329,515,o),
(303,367,o),
(230,367,cs)
);
}
);
width = 559;
}
);
metricRight = "to-canadian";
note = uni1564;
unicode = 5476;
},
{
glyphname = "tha-canadian";
lastChange = "2023-01-13 15:29:45 +0000";
layers = (
{
anchors = (
{
name = top_center_can;
pos = (408,714);
}
);
layerId = "9563F490-07F6-43DA-A81C-32B2684714C2";
shapes = (
{
closed = 1;
nodes = (
(425,0,l),
(443,86,l),
(324,86,ls),
(213,86,o),
(154,146,o),
(154,264,cs),
(154,390,o),
(225,667,o),
(391,667,cs),
(418,667,o),
(443,659,o),
(461,644,c),
(437,679,l),
(321,687,o),
(275,529,o),
(275,439,cs),
(275,353,o),
(316,300,o),
(388,300,cs),
(501,300,o),
(562,437,o),
(562,548,cs),
(562,660,o),
(497,727,o),
(389,727,cs),
(162,727,o),
(63,431,o),
(63,258,cs),
(63,97,o),
(153,0,o),
(305.995,0,cs)
);
},
{
closed = 1;
nodes = (
(357,367,o),
(339,394,o),
(339,443,cs),
(339,495,o),
(366,642,o),
(439,642,cs),
(473,642,o),
(491,614,o),
(491,566,cs),
(491,515,o),
(465,367,o),
(391,367,cs)
);
}
);
width = 559;
}
);
metricLeft = "=|theCarrier-canadian";
metricRight = "=|tho-canadian";
note = uni1566;
unicode = 5478;
},
{
glyphname = "th-canadian";
kernLeft = mwestleft;
kernRight = mwestright;
lastChange = "2023-01-13 15:29:45 +0000";
layers = (
{
layerId = "9563F490-07F6-43DA-A81C-32B2684714C2";
shapes = (
{
closed = 1;
nodes = (
(285,357,l),
(297,411,l),
(240,411,ls),
(187,411,o),
(160,440,o),
(160,494,cs),
(160,554,o),
(194,679,o),
(274,679,cs),
(285,679,o),
(296,677,o),
(305,672,c),
(288,691,l),
(232,692,o),
(210,612,o),
(210,573,cs),
(210,532,o),
(231,504,o),
(267,504,cs),
(331,504,o),
(354,590,o),
(354,634,cs),
(354,687,o),
(324,720,o),
(268,720,cs),
(152,720,o),
(105,573,o),
(105,491,cs),
(105,408,o),
(151,357,o),
(230,357,cs)
);
},
{
closed = 1;
nodes = (
(252,541,o),
(243,552,o),
(243,573,cs),
(243,600,o),
(255,668,o),
(291,668,cs),
(307,668,o),
(315,657,o),
(315,635,cs),
(315,609,o),
(303,541,o),
(268,541,cs)
);
}
);
width = 321;
}
);
metricLeft = "t-canadian";
note = uni156A;
unicode = 5482;
},
{
glyphname = "tthe-canadian";
lastChange = "2023-01-13 15:29:45 +0000";
layers = (
{
anchors = (
{
name = middle_right_can;
pos = (678,357);
},
{
name = top_center_can;
pos = (400,714);
},
{
name = top_left_can;
pos = (205,714);
},
{
name = top_right_can;
pos = (596,714);
}
);
layerId = "9563F490-07F6-43DA-A81C-32B2684714C2";
shapes = (
{
closed = 1;
nodes = (
(419,-13,o),
(505,67,o),
(541,234,cs),
(643,714,l),
(556,714,l),
(456,244,ls),
(430,125,o),
(377,74,o),
(281,74,cs),
(165,74,o),
(122,136,o),
(149,264,cs),
(245,714,l),
(158,714,l),
(64,271,ls),
(26,92,o),
(106,-13,o),
(275,-13,cs)
);
},
{
closed = 1;
nodes = (
(368,401,l),
(435,714,l),
(365,714,l),
(298,401,l)
);
}
);
width = 603;
}
);
metricLeft = "te-canadian";
metricRight = "te-canadian";
note = uni156B;
unicode = 5483;
},
{
glyphname = "tthi-canadian";
lastChange = "2023-01-13 15:29:45 +0000";
layers = (
{
layerId = "9563F490-07F6-43DA-A81C-32B2684714C2";
shapes = (
{
closed = 1;
nodes = (
(93,0,l),
(193,470,ls),
(218,589,o),
(272,640,o),
(367,640,cs),
(483,640,o),
(527,578,o),
(500,450,cs),
(404,0,l),
(491,0,l),
(585,443,ls),
(623,622,o),
(542,727,o),
(374,727,cs),
(229,727,o),
(143,647,o),
(108,480,cs),
(6,0,l)
);
},
{
closed = 1;
nodes = (
(284,0,l),
(350,313,l),
(280,313,l),
(213,0,l)
);
}
);
width = 603;
}
);
metricLeft = "te-canadian";
metricRight = "te-canadian";
note = uni156C;
unicode = 5484;
},
{
glyphname = "ttho-canadian";
lastChange = "2023-01-13 15:28:18 +0000";
layers = (
{
anchors = (
{
name = top_center_can;
pos = (344,714);
},
{
name = top_left_can;
pos = (200,714);
},
{
name = top_right_can;
pos = (529,714);
}
);
layerId = "9563F490-07F6-43DA-A81C-32B2684714C2";
shapes = (
{
closed = 1;
nodes = (
(125,0,ls),
(432,0,o),
(505,291,o),
(505,457,cs),
(505,623,o),
(412,714,o),
(244,714,cs),
(160,714,l),
(142,628,l),
(227,628,ls),
(350,628,o),
(411,570,o),
(411,452,cs),
(411,328,o),
(358,86,o),
(129,86,cs),
(26,86,l),
(8,0,l)
);
},
{
closed = 1;
nodes = (
(264,318,l),
(281,397,l),
(93,397,l),
(76,318,l)
);
}
);
width = 522;
}
);
metricRight = "to-canadian";
note = uni156D;
unicode = 5485;
},
{
glyphname = "ttha-canadian";
lastChange = "2023-01-13 15:28:18 +0000";
layers = (
{
anchors = (
{
name = top_center_can;
pos = (361,714);
},
{
name = top_left_can;
pos = (193,714);
},
{
name = top_right_can;
pos = (512,714);
}
);
layerId = "9563F490-07F6-43DA-A81C-32B2684714C2";
shapes = (
{
closed = 1;
nodes = (
(409,0,l),
(427,86,l),
(339,86,ls),
(217,86,o),
(158,144,o),
(158,261,cs),
(158,394,o),
(215,628,o),
(438,628,cs),
(543,628,l),
(561,714,l),
(442,714,ls),
(141,714,o),
(64,430,o),
(64,256,cs),
(64,91,o),
(154,0,o),
(323,0,cs)
);
},
{
closed = 1;
nodes = (
(474,318,l),
(490,397,l),
(303,397,l),
(286,318,l)
);
}
);
width = 522;
}
);
metricLeft = "=|to-canadian";
metricRight = "=|ttho-canadian";
note = uni156E;
unicode = 5486;
},
{
glyphname = "tth-canadian";
lastChange = "2023-01-13 15:28:18 +0000";
layers = (
{
layerId = "9563F490-07F6-43DA-A81C-32B2684714C2";
shapes = (
{
closed = 1;
nodes = (
(254,512,l),
(231,512,l),
(291,390,l),
(341,414,l),
(278,542,l),
(266,519,l),
(402,574,l),
(384,622,l),
(257,571,l),
(277,559,l),
(310,714,l),
(254,714,l),
(221,559,l),
(244,570,l),
(131,622,l),
(109,573,l),
(217,524,l),
(214,546,l),
(105,425,l),
(144,390,l)
);
},
{
closed = 1;
nodes = (
(595,512,l),
(572,512,l),
(632,390,l),
(682,414,l),
(619,542,l),
(608,519,l),
(743,573,l),
(725,621,l),
(598,571,l),
(618,559,l),
(651,714,l),
(595,714,l),
(562,559,l),
(586,570,l),
(472,622,l),
(450,573,l),
(559,524,l),
(556,546,l),
(446,425,l),
(485,390,l)
);
}
);
width = 714;
}
);
metricRight = "=|";
note = uni156F;
unicode = 5487;
},
{
glyphname = "tye-canadian";
lastChange = "2023-01-13 15:29:45 +0000";
layers = (
{
layerId = "9563F490-07F6-43DA-A81C-32B2684714C2";
shapes = (
{
closed = 1;
nodes = (
(419,-13,o),
(505,68,o),
(541,234,cs),
(643,714,l),
(556,714,l),
(456,244,ls),
(430,125,o),
(377,74,o),
(281,74,cs),
(165,74,o),
(122,136,o),
(149,264,cs),
(245,714,l),
(158,714,l),
(64,271,ls),
(26,92,o),
(106,-13,o),
(275,-13,cs)
);
},
{
closed = 1;
nodes = (
(405,426,o),
(438,459,o),
(454,532,cs),
(493,714,l),
(450,714,l),
(413,539,ls),
(402,491,o),
(384,471,o),
(350,471,cs),
(315,471,o),
(304,490,o),
(314,536,cs),
(351,714,l),
(308,714,l),
(269,533,ls),
(255,466,o),
(285,426,o),
(348,426,cs)
);
}
);
width = 603;
}
);
metricLeft = "te-canadian";
metricRight = "te-canadian";
note = uni1570;
unicode = 5488;
},
{
glyphname = "tyi-canadian";
lastChange = "2023-01-13 15:29:45 +0000";
layers = (
{
layerId = "9563F490-07F6-43DA-A81C-32B2684714C2";
shapes = (
{
closed = 1;
nodes = (
(93,0,l),
(193,470,ls),
(218,589,o),
(272,640,o),
(368,640,cs),
(483,640,o),
(527,578,o),
(500,450,cs),
(404,0,l),
(491,0,l),
(585,443,ls),
(623,622,o),
(542,727,o),
(374,727,cs),
(229,727,o),
(143,646,o),
(108,480,cs),
(6,0,l)
);
},
{
closed = 1;
nodes = (
(199,0,l),
(236,175,ls),
(246,223,o),
(265,243,o),
(299,243,cs),
(333,243,o),
(345,224,o),
(335,178,cs),
(298,0,l),
(341,0,l),
(379,181,ls),
(394,248,o),
(364,288,o),
(301,288,cs),
(244,288,o),
(210,255,o),
(194,182,cs),
(156,0,l)
);
}
);
width = 603;
}
);
metricLeft = "te-canadian";
metricRight = "te-canadian";
note = uni1571;
unicode = 5489;
},
{
glyphname = "tyo-canadian";
lastChange = "2023-01-13 15:29:45 +0000";
layers = (
{
layerId = "9563F490-07F6-43DA-A81C-32B2684714C2";
shapes = (
{
closed = 1;
nodes = (
(124,0,ls),
(432,0,o),
(507,291,o),
(507,457,cs),
(507,623,o),
(413,714,o),
(243,714,cs),
(162,714,l),
(144,630,l),
(228,630,ls),
(350,630,o),
(413,570,o),
(413,452,cs),
(413,295,o),
(328,84,o),
(128,84,cs),
(28,84,l),
(11,0,l)
);
},
{
closed = 1;
nodes = (
(110,219,ls),
(226,219,o),
(267,293,o),
(273,370,cs),
(280,448,o),
(238,495,o),
(165,495,cs),
(116,495,l),
(104,444,l),
(154,444,ls),
(200,444,o),
(223,420,o),
(221,375,cs),
(218,326,o),
(197,270,o),
(116,270,cs),
(68,270,l),
(57,219,l)
);
}
);
width = 524;
}
);
metricLeft = "nunavuth-canadian";
metricRight = "theCarrier-canadian";
note = uni1572;
unicode = 5490;
},
{
glyphname = "tya-canadian";
lastChange = "2023-01-13 15:29:45 +0000";
layers = (
{
layerId = "9563F490-07F6-43DA-A81C-32B2684714C2";
shapes = (
{
closed = 1;
nodes = (
(408,0,l),
(426,84,l),
(342,84,ls),
(220,84,o),
(157,144,o),
(157,262,cs),
(157,419,o),
(242,630,o),
(443,630,cs),
(542,630,l),
(559,714,l),
(447,714,ls),
(138,714,o),
(64,423,o),
(64,257,cs),
(64,91,o),
(158,0,o),
(327,0,cs)
);
},
{
closed = 1;
nodes = (
(455,219,l),
(466,270,l),
(417,270,ls),
(370,270,o),
(347,294,o),
(350,339,cs),
(352,388,o),
(374,444,o),
(454,444,cs),
(502,444,l),
(513,495,l),
(460,495,ls),
(345,495,o),
(304,421,o),
(297,344,cs),
(290,266,o),
(332,219,o),
(406,219,cs)
);
}
);
width = 523;
}
);
metricLeft = "=|theCarrier-canadian";
metricRight = "nunavuth-canadian";
note = uni1573;
unicode = 5491;
},
{
glyphname = "heNunavik-canadian";
lastChange = "2023-01-13 15:28:18 +0000";
layers = (
{
layerId = "9563F490-07F6-43DA-A81C-32B2684714C2";
shapes = (
{
closed = 1;
nodes = (
(376,0,l),
(616,199,l),
(565,264,l),
(377,107,l),
(405,86,l),
(481,446,ls),
(510,582,o),
(484,727,o),
(329,727,cs),
(149,727,o),
(91,515,o),
(91,386,cs),
(91,272,o),
(143,205,o),
(238,205,cs),
(298,205,o),
(344,239,o),
(375,309,c),
(360,312,l),
(293,0,l)
);
},
{
closed = 1;
nodes = (
(209,286,o),
(181,321,o),
(181,390,cs),
(181,462,o),
(214,647,o),
(321,647,cs),
(374,647,o),
(402,612,o),
(402,543,cs),
(402,471,o),
(369,286,o),
(263,286,cs)
);
}
);
width = 647;
}
);
metricLeft = "ke-canadian";
note = uni1574;
unicode = 5492;
},
{
glyphname = "hiNunavik-canadian";
lastChange = "2023-01-13 15:29:45 +0000";
layers = (
{
anchors = (
{
name = top_center_can;
pos = (500,714);
}
);
layerId = "9563F490-07F6-43DA-A81C-32B2684714C2";
shapes = (
{
closed = 1;
nodes = (
(250,0,l),
(325,352,l),
(306,314,l),
(305,252,o),
(351,205,o),
(424,205,cs),
(592,205,o),
(650,421,o),
(650,542,cs),
(650,660,o),
(591,727,o),
(486,727,cs),
(371,727,o),
(293,645,o),
(260,487,cs),
(174,82,l),
(204,90,l),
(77,253,l),
(11,199,l),
(167,0,l)
);
},
{
closed = 1;
nodes = (
(367,286,o),
(339,321,o),
(339,390,cs),
(339,462,o),
(375,647,o),
(479,647,cs),
(533,647,o),
(561,612,o),
(561,544,cs),
(561,469,o),
(527,286,o),
(421,286,cs)
);
}
);
width = 649;
}
);
metricLeft = "=|heNunavik-canadian";
metricRight = "=|ke-canadian";
note = uni1575;
unicode = 5493;
},
{
glyphname = "hoNunavik-canadian";
lastChange = "2023-01-13 15:29:45 +0000";
layers = (
{
anchors = (
{
name = top_center_can;
pos = (343,714);
},
{
name = top_right_can;
pos = (492,714);
}
);
layerId = "9563F490-07F6-43DA-A81C-32B2684714C2";
shapes = (
{
closed = 1;
nodes = (
(325,-13,o),
(402,69,o),
(436,227,cs),
(521,632,l),
(491,624,l),
(619,461,l),
(684,515,l),
(528,714,l),
(446,714,l),
(371,362,l),
(389,400,l),
(390,462,o),
(345,509,o),
(272,509,cs),
(104,509,o),
(45,293,o),
(45,172,cs),
(45,54,o),
(104,-13,o),
(209,-13,cs)
);
},
{
closed = 1;
nodes = (
(163,67,o),
(135,102,o),
(135,170,cs),
(135,245,o),
(169,428,o),
(274,428,cs),
(328,428,o),
(356,393,o),
(356,324,cs),
(356,252,o),
(321,67,o),
(216,67,cs)
);
}
);
width = 648;
}
);
metricLeft = "ke-canadian";
metricRight = "heNunavik-canadian";
note = uni1577;
unicode = 5495;
},
{
glyphname = "haNunavik-canadian";
lastChange = "2023-01-13 15:29:45 +0000";
layers = (
{
anchors = (
{
name = top_center_can;
pos = (502,714);
},
{
name = top_left_can;
pos = (353,714);
}
);
layerId = "9563F490-07F6-43DA-A81C-32B2684714C2";
shapes = (
{
closed = 1;
nodes = (
(545,-13,o),
(603,199,o),
(603,328,cs),
(603,442,o),
(550,509,o),
(456,509,cs),
(396,509,o),
(349,475,o),
(319,405,c),
(334,402,l),
(401,714,l),
(318,714,l),
(78,515,l),
(129,450,l),
(317,607,l),
(289,628,l),
(212,268,ls),
(183,132,o),
(210,-13,o),
(365,-13,cs)
);
},
{
closed = 1;
nodes = (
(320,67,o),
(291,102,o),
(291,171,cs),
(291,243,o),
(324,428,o),
(431,428,cs),
(485,428,o),
(513,393,o),
(513,324,cs),
(513,252,o),
(480,67,o),
(373,67,cs)
);
}
);
width = 648;
}
);
metricLeft = "=|heNunavik-canadian";
metricRight = "=|ke-canadian";
note = uni1579;
unicode = 5497;
},
{
glyphname = "hNunavik-canadian";
kernLeft = mwestleft;
kernRight = mwestright;
lastChange = "2023-01-13 15:29:45 +0000";
layers = (
{
layerId = "9563F490-07F6-43DA-A81C-32B2684714C2";
shapes = (
{
closed = 1;
nodes = (
(358.007,351,o),
(395,467,o),
(395,529,cs),
(395,586,o),
(366,622,o),
(318,622,cs),
(285,622,o),
(261,606,o),
(241,571,c),
(251,554,l),
(285,714,l),
(228,714,l),
(108,615,l),
(140,578,l),
(243,663,l),
(220,696,l),
(177,495,ls),
(162,423,o),
(184,351,o),
(261,351,cs)
);
},
{
closed = 1;
nodes = (
(242,400,o),
(228,417,o),
(228,451,cs),
(228,504,o),
(252,573,o),
(299,573,cs),
(324,573,o),
(338,556,o),
(338,523,cs),
(338,470,o),
(313,400,o),
(267,400,cs)
);
}
);
width = 382;
}
);
metricRight = "k-canadian";
note = uni157B;
unicode = 5499;
},
{
color = 4;
glyphname = "nunavuth-canadian";
lastChange = "2023-01-13 15:29:45 +0000";
layers = (
{
layerId = "9563F490-07F6-43DA-A81C-32B2684714C2";
shapes = (
{
closed = 1;
nodes = (
(102,0,l),
(172,328,l),
(439,328,l),
(369,0,l),
(463,0,l),
(615,714,l),
(521,714,l),
(457,412,l),
(190,412,l),
(254,714,l),
(160.996,714,l),
(8.996,0,l)
);
}
);
width = 578;
}
);
metricRight = "=|";
note = uni157C;
unicode = 5500;
},
{
glyphname = "tlhe-canadian";
lastChange = "2023-01-13 15:29:45 +0000";
layers = (
{
anchors = (
{
name = top_center_can;
pos = (352,714);
}
);
layerId = "9563F490-07F6-43DA-A81C-32B2684714C2";
shapes = (
{
closed = 1;
nodes = (
(116,0,l),
(283,280,l),
(214,242,l),
(223,241,o),
(233,240,o),
(241,240,cs),
(299,240,o),
(345,265,o),
(383,321,c),
(375,347,l),
(301,0,l),
(394,0,l),
(493,469,ls),
(519,592,o),
(492,727,o),
(339,727,cs),
(168,727,o),
(103,549,o),
(103,420,cs),
(103,348,o),
(130,294,o),
(181,269,c),
(18,0,l)
);
},
{
closed = 1;
nodes = (
(218,321,o),
(191,358,o),
(191,423,cs),
(191.008,494.007,o),
(225,647,o),
(329,647,cs),
(385,647,o),
(410,609,o),
(410,548,cs),
(410,476,o),
(376,321,o),
(273,321,cs)
);
}
);
width = 506;
}
);
metricRight = "te-canadian";
note = uni1586;
unicode = 5510;
},
{
glyphname = "tlhi-canadian";
lastChange = "2023-01-13 15:29:45 +0000";
layers = (
{
layerId = "9563F490-07F6-43DA-A81C-32B2684714C2";
shapes = (
{
closed = 1;
nodes = (
(99,0,l),
(175,360,l),
(142,345,l),
(162,283,o),
(204,246,o),
(270,243,c),
(238,263,l),
(285,0,l),
(382,0,l),
(336,258,l),
(458,285,o),
(506,441,o),
(506,542,cs),
(506,655,o),
(443,727,o),
(335,727,cs),
(227,727,o),
(146,653,o),
(112,496,cs),
(7,0,l)
);
},
{
closed = 1;
nodes = (
(224,321,o),
(195,358,o),
(195,424,cs),
(195,494,o),
(230,647,o),
(332,647,cs),
(387,647,o),
(415,610,o),
(415,544,cs),
(415,473,o),
(382,321,o),
(279,321,cs)
);
}
);
width = 509;
}
);
metricLeft = "te-canadian";
metricRight = "=|tlhe-canadian";
note = uni1587;
unicode = 5511;
},
{
glyphname = "tlho-canadian";
lastChange = "2023-01-13 15:29:45 +0000";
layers = (
{
anchors = (
{
name = top_center_can;
pos = (364,714);
}
);
layerId = "9563F490-07F6-43DA-A81C-32B2684714C2";
shapes = (
{
closed = 1;
nodes = (
(327,-13,o),
(408,61,o),
(442,218,cs),
(547,714,l),
(455,714,l),
(378,354,l),
(411,369,l),
(392,431,o),
(350,468,o),
(284,471,c),
(316,451,l),
(269,714,l),
(172,714,l),
(218,456,l),
(96,429,o),
(49,273,o),
(49,172,cs),
(49,59,o),
(111,-13,o),
(219,-13,cs)
);
},
{
closed = 1;
nodes = (
(167,67,o),
(139,104,o),
(139,170,cs),
(139,241,o),
(172,393,o),
(275,393,cs),
(329,393,o),
(358,356,o),
(358,290,cs),
(358,220,o),
(323,67,o),
(222,67,cs)
);
}
);
width = 507;
}
);
metricLeft = "tlhe-canadian";
metricRight = "te-canadian";
note = uni1588;
unicode = 5512;
},
{
glyphname = "tlha-canadian";
lastChange = "2023-01-13 15:28:18 +0000";
layers = (
{
layerId = "9563F490-07F6-43DA-A81C-32B2684714C2";
shapes = (
{
closed = 1;
nodes = (
(383,-13,o),
(448,165,o),
(448,294,cs),
(448,366,o),
(421,420,o),
(370,445,c),
(533,714,l),
(436,714,l),
(269,434,l),
(338,472,l),
(328,473,o),
(319,474,o),
(310,474,cs),
(253,474,o),
(206,449,o),
(169,393,c),
(177,367,l),
(250,714,l),
(158,714,l),
(58,245,ls),
(32,122,o),
(59,-13,o),
(212,-13,cs)
);
},
{
closed = 1;
nodes = (
(166,67,o),
(141,105,o),
(141,166,cs),
(141,238,o),
(175,393,o),
(278,393,cs),
(333,393,o),
(360,356,o),
(360,291,cs),
(360,220,o),
(326,67,o),
(223,67,cs)
);
}
);
width = 505;
}
);
metricLeft = "te-canadian";
note = uni1589;
unicode = 5513;
},
{
glyphname = "reWestCree-canadian";
lastChange = "2023-01-13 15:28:18 +0000";
layers = (
{
layerId = "9563F490-07F6-43DA-A81C-32B2684714C2";
shapes = (
{
closed = 1;
nodes = (
(370,0,l),
(610,201,l),
(558,264,l),
(371,107,l),
(399,86,l),
(482,480,ls),
(515,635,o),
(450,727,o),
(324,727,cs),
(204,727,o),
(136,655,o),
(102,497,cs),
(82,401,l),
(174,401,l),
(197,508,ls),
(218,604,o),
(253,645,o),
(313,645,cs),
(384,645,o),
(414,595,o),
(393,498,cs),
(287,0,l)
);
}
);
width = 641;
}
);
metricLeft = "ce-canadian";
metricRight = "heNunavik-canadian";
note = uni158A;
unicode = 5514;
},
{
glyphname = "riWestCree-canadian";
lastChange = "2023-01-13 15:28:18 +0000";
layers = (
{
layerId = "9563F490-07F6-43DA-A81C-32B2684714C2";
shapes = (
{
closed = 1;
nodes = (
(248,0,l),
(356,508,ls),
(376,604,o),
(412,645,o),
(472,645,cs),
(542,645,o),
(573,595,o),
(552,498,cs),
(531,401,l),
(624,401,l),
(641,480,ls),
(674,635,o),
(608,727,o),
(482,727,cs),
(362,727,o),
(294,655,o),
(261,497,cs),
(174,86,l),
(204,93,l),
(80,255,l),
(11,201,l),
(165,0,l)
);
}
);
width = 641;
}
);
metricLeft = "=|heNunavik-canadian";
metricRight = "=|ce-canadian";
note = uni158B;
unicode = 5515;
},
{
glyphname = "roWestCree-canadian";
lastChange = "2023-01-13 15:29:45 +0000";
layers = (
{
layerId = "9563F490-07F6-43DA-A81C-32B2684714C2";
shapes = (
{
closed = 1;
nodes = (
(325,-13,o),
(393,59,o),
(426,217,cs),
(514,628,l),
(483,621,l),
(607,459,l),
(677,513,l),
(522,714,l),
(439,714,l),
(332,206,ls),
(311,110,o),
(275,69,o),
(215,69,cs),
(145,69,o),
(114,119,o),
(135,216,cs),
(156,313,l),
(63,313,l),
(46,234,ls),
(13,79,o),
(79,-13,o),
(205,-13,cs)
);
}
);
width = 642;
}
);
metricLeft = "ce-canadian";
metricRight = "heNunavik-canadian";
note = uni158C;
unicode = 5516;
},
{
glyphname = "raWestCree-canadian";
lastChange = "2023-01-13 15:29:45 +0000";
layers = (
{
layerId = "9563F490-07F6-43DA-A81C-32B2684714C2";
shapes = (
{
closed = 1;
nodes = (
(483,-13,o),
(551,59,o),
(585,217,cs),
(605,313,l),
(513,313,l),
(490,206,ls),
(469,110,o),
(434,69,o),
(374,69,cs),
(303,69,o),
(273,119,o),
(294,216,cs),
(400,714,l),
(317,714,l),
(77,513,l),
(129,450,l),
(316,607,l),
(288,628,l),
(205,234,ls),
(172,79,o),
(237,-13,o),
(363,-13,cs)
);
}
);
width = 640;
}
);
metricLeft = "=|heNunavik-canadian";
metricRight = "=|ce-canadian";
note = uni158D;
unicode = 5517;
},
{
glyphname = "ng-canadian";
kernLeft = mwestleft;
kernRight = mwestright;
lastChange = "2023-01-13 15:29:45 +0000";
layers = (
{
layerId = "9563F490-07F6-43DA-A81C-32B2684714C2";
shapes = (
{
closed = 1;
nodes = (
(456,225,o),
(499,267,o),
(516,347,cs),
(522,378,l),
(463,378,l),
(455,341,ls),
(445,298,o),
(426,277,o),
(396,277,cs),
(364,277,o),
(351,300,o),
(360,342,cs),
(396,510,l),
(269,510,l),
(277,482,l),
(308,504,o),
(327,563,o),
(330,604,cs),
(336,673,o),
(301,720,o),
(238,720,cs),
(158,720,o),
(119,636,o),
(112,568,cs),
(105,494,o),
(142,449,o),
(207,449,cs),
(346,449,l),
(327,488,l),
(300,358,ls),
(283,277,o),
(318,225,o),
(390,225,cs)
);
},
{
closed = 1;
nodes = (
(179,498,o),
(165,520,o),
(168,561,cs),
(171,603,o),
(188,671,o),
(234,671,cs),
(262,671,o),
(276,649,o),
(273,608,cs),
(270,566,o),
(253,498,o),
(206,498,cs)
);
}
);
width = 526;
}
);
metricLeft = "n-canadian";
metricRight = "c-canadian";
note = uni1595;
unicode = 5525;
},
{
glyphname = "nng-canadian";
kernLeft = mwestleft;
kernRight = mwestright;
lastChange = "2023-01-13 15:28:18 +0000";
layers = (
{
layerId = "9563F490-07F6-43DA-A81C-32B2684714C2";
shapes = (
{
closed = 1;
nodes = (
(705,225,o),
(748,267,o),
(764,347,cs),
(771,378,l),
(711,378,l),
(703,341,ls),
(693,298,o),
(675,277,o),
(645,277,cs),
(612,277,o),
(599,300,o),
(609,342,cs),
(645,510,l),
(526,510,l),
(524,482,l),
(560,509,o),
(579,574,o),
(579,616,cs),
(579,680,o),
(544,720,o),
(486,720,cs),
(397,720,o),
(359,622,o),
(359,552,cs),
(359,525,o),
(366,503,o),
(380,486,c),
(389,510,l),
(279,510,l),
(276,482,l),
(313,509,o),
(331,577,o),
(331,616,cs),
(331,679,o),
(296,720,o),
(238,720,cs),
(149,720,o),
(111,622,o),
(111,552,cs),
(111,488,o),
(147,449,o),
(207,449,cs),
(567,449,l),
(548,358,ls),
(531,277,o),
(567,225,o),
(639,225,cs)
);
},
{
closed = 1;
nodes = (
(181,498,o),
(167,517,o),
(167,551,cs),
(167,589,o),
(184,671,o),
(234,671,cs),
(261,671,o),
(274,652,o),
(274,618,cs),
(274,580,o),
(258,498,o),
(206,498,cs)
);
},
{
closed = 1;
nodes = (
(429,498,o),
(415,517,o),
(415,551,cs),
(415,589,o),
(432,671,o),
(483,671,cs),
(509,671,o),
(523,652,o),
(523,618,cs),
(523,580,o),
(506,498,o),
(454,498,cs)
);
}
);
width = 774;
}
);
metricLeft = "n-canadian";
metricRight = "c-canadian";
note = uni1596;
unicode = 5526;
},
{
glyphname = "sheSayisi-canadian";
lastChange = "2023-01-13 15:29:45 +0000";
layers = (
{
anchors = (
{
name = middle_right_can;
pos = (580,357);
},
{
name = top_center_can;
pos = (352,714);
}
);
layerId = "9563F490-07F6-43DA-A81C-32B2684714C2";
shapes = (
{
closed = 1;
nodes = (
(395,0,l),
(491,454,ls),
(527,623,o),
(471,727,o),
(339,727,cs),
(150,727,o),
(87,497,o),
(87,362,cs),
(87,264,o),
(124,207,o),
(198,207,cs),
(274,207,o),
(316,270,o),
(345,426,c),
(304,426,l),
(285,324,o),
(261,284,o),
(223,284,cs),
(190,284,o),
(174,311,o),
(174,362,cs),
(174,439,o),
(214,647,o),
(328,647,cs),
(401,647,o),
(424,579,o),
(398,454,cs),
(301,0,l)
);
}
);
width = 507;
}
);
metricLeft = "ke-canadian";
metricRight = "te-canadian";
note = uni1597;
unicode = 5527;
},
{
glyphname = "shiSayisi-canadian";
lastChange = "2023-01-13 15:29:45 +0000";
layers = (
{
layerId = "9563F490-07F6-43DA-A81C-32B2684714C2";
shapes = (
{
closed = 1;
nodes = (
(100,0,l),
(201,473,ls),
(226,592,o),
(267,647,o),
(332,647,cs),
(389,647,o),
(419,610,o),
(419,538,cs),
(419,475,o),
(383,284,o),
(312,284,cs),
(268,284,o),
(255,326,o),
(278,426,c),
(238,426,l),
(203,282,o),
(235,207,o),
(324,207,cs),
(455,207,o),
(507,431,o),
(507,535,cs),
(507,656,o),
(445,727,o),
(335,727,cs),
(220,727,o),
(145,647,o),
(111,491,cs),
(7,0,l)
);
}
);
width = 507;
}
);
metricLeft = "te-canadian";
metricRight = "=|ke-canadian";
note = uni1598;
unicode = 5528;
},
{
glyphname = "shoSayisi-canadian";
lastChange = "2023-01-13 15:29:45 +0000";
layers = (
{
anchors = (
{
name = top_center_can;
pos = (349,714);
},
{
name = top_left_can;
pos = (196,714);
},
{
name = top_right_can;
pos = (500,714);
}
);
layerId = "9563F490-07F6-43DA-A81C-32B2684714C2";
shapes = (
{
closed = 1;
nodes = (
(333,-13,o),
(409,67,o),
(442,223,cs),
(547,714,l),
(453,714,l),
(353,241,ls),
(327,122,o),
(286,67,o),
(222,67,cs),
(164,67,o),
(135,104,o),
(135,176,cs),
(135,239,o),
(170,430,o),
(241,430,cs),
(286,430,o),
(299,388,o),
(275,288,c),
(316,288,l),
(350,432,o),
(318,507,o),
(230,507,cs),
(99,507,o),
(46,283,o),
(46,179,cs),
(46,58,o),
(108,-13,o),
(218,-13,cs)
);
}
);
width = 507;
}
);
metricLeft = "ke-canadian";
metricRight = "te-canadian";
note = uni1599;
unicode = 5529;
},
{
glyphname = "shaSayisi-canadian";
lastChange = "2023-01-13 15:29:45 +0000";
layers = (
{
layerId = "9563F490-07F6-43DA-A81C-32B2684714C2";
shapes = (
{
closed = 1;
nodes = (
(404,-13,o),
(467,217,o),
(467,352,cs),
(467,450,o),
(430,507,o),
(356,507,cs),
(279,507,o),
(237,444,o),
(209,288,c),
(250,288,l),
(269,390,o),
(292,430,o),
(331,430,cs),
(364,430,o),
(380,403,o),
(380,352,cs),
(380,275,o),
(340,67,o),
(225,67,cs),
(152,67,o),
(129,135,o),
(156,260,cs),
(253,714,l),
(159,714,l),
(62,260,ls),
(27,91,o),
(83,-13,o),
(214,-13,cs)
);
}
);
width = 507;
}
);
metricLeft = "te-canadian";
metricRight = "=|ke-canadian";
note = uni159A;
unicode = 5530;
},
{
glyphname = "theWoodScree-canadian";
lastChange = "2023-01-13 15:28:18 +0000";
layers = (
{
layerId = "9563F490-07F6-43DA-A81C-32B2684714C2";
shapes = (
{
closed = 1;
nodes = (
(572,-13,o),
(635,184,o),
(635,305,cs),
(635,424,o),
(569,495,o),
(455,495,cs),
(107,495,l),
(90,417,l),
(354,417,l),
(353,445,l),
(259,402,o),
(228,259,o),
(228,178,cs),
(228,61,o),
(292,-13,o),
(401,-13,cs)
);
},
{
closed = 1;
nodes = (
(348,67,o),
(318,105,o),
(318,175,cs),
(318,247,o),
(349,416,o),
(458,416,cs),
(515,416,o),
(545,378,o),
(545,308,cs),
(545,236,o),
(513,67,o),
(405,67,cs)
);
},
{
closed = 1;
nodes = (
(705,636,l),
(722,714,l),
(154,714,l),
(137,636,l)
);
}
);
width = 686;
}
);
note = uni159B;
unicode = 5531;
},
{
glyphname = "thiWoodScree-canadian";
kernRight = niright;
lastChange = "2023-01-13 15:29:45 +0000";
layers = (
{
layerId = "9563F490-07F6-43DA-A81C-32B2684714C2";
shapes = (
{
closed = 1;
nodes = (
(394,-13,o),
(456,185,o),
(456,305,cs),
(456,359,o),
(441,399,o),
(411,424,c),
(404,417,l),
(668,417,l),
(685,495,l),
(301,495,ls),
(104,495,o),
(49,297,o),
(49,178,cs),
(49,61,o),
(113,-13,o),
(222,-13,cs)
);
},
{
closed = 1;
nodes = (
(170,67,o),
(139,105,o),
(139,175,cs),
(139,247,o),
(171,416,o),
(279,416,cs),
(337,416,o),
(366,378,o),
(366,308,cs),
(366,236,o),
(335,67,o),
(226,67,cs)
);
},
{
closed = 1;
nodes = (
(715,636,l),
(732,714,l),
(164,714,l),
(147,636,l)
);
}
);
width = 687;
}
);
metricLeft = "theWoodScree-canadian";
metricRight = "theWoodScree-canadian";
note = uni159C;
unicode = 5532;
},
{
glyphname = "thoWoodScree-canadian";
lastChange = "2023-01-13 15:28:18 +0000";
layers = (
{
layerId = "9563F490-07F6-43DA-A81C-32B2684714C2";
shapes = (
{
closed = 1;
nodes = (
(386,0,ls),
(583,0,o),
(637,198,o),
(637,318,cs),
(637,435,o),
(574,509,o),
(464,509,cs),
(292,509,o),
(230,310,o),
(230,191,cs),
(230,137,o),
(245,96,o),
(275,71,c),
(282,78,l),
(19,78,l),
(2,0,l)
);
},
{
closed = 1;
nodes = (
(350,79,o),
(320,117,o),
(320,187,cs),
(320,260,o),
(352,428,o),
(460,428,cs),
(517,428,o),
(547,390,o),
(547,320,cs),
(547,249,o),
(516,79,o),
(407,79,cs)
);
},
{
closed = 1;
nodes = (
(705,636,l),
(722,714,l),
(154,714,l),
(137,636,l)
);
}
);
width = 686;
}
);
metricLeft = "theWoodScree-canadian";
metricRight = "theWoodScree-canadian";
note = uni159D;
unicode = 5533;
},
{
glyphname = "thaWoodScree-canadian";
lastChange = "2023-01-13 15:29:45 +0000";
layers = (
{
layerId = "9563F490-07F6-43DA-A81C-32B2684714C2";
shapes = (
{
closed = 1;
nodes = (
(579,0,l),
(595,78,l),
(331,78,l),
(333,50,l),
(427,93,o),
(458,236,o),
(458,317,cs),
(458,435,o),
(393,509,o),
(285,509,cs),
(113,509,o),
(51,311,o),
(51,191,cs),
(51,71,o),
(117,0,o),
(231,0,cs)
);
},
{
closed = 1;
nodes = (
(170,79,o),
(141,117,o),
(141,187,cs),
(141,260,o),
(172,428,o),
(281,428,cs),
(338,428,o),
(368,390,o),
(368,320,cs),
(368,249,o),
(336,79,o),
(228,79,cs)
);
},
{
closed = 1;
nodes = (
(713,636,l),
(730,714,l),
(162,714,l),
(145,636,l)
);
}
);
width = 686;
}
);
metricLeft = "theWoodScree-canadian";
metricRight = "theWoodScree-canadian";
note = uni159E;
unicode = 5534;
},
{
glyphname = "thWoodScree-canadian";
lastChange = "2023-01-13 15:28:18 +0000";
layers = (
{
layerId = "9563F490-07F6-43DA-A81C-32B2684714C2";
shapes = (
{
closed = 1;
nodes = (
(390,357,l),
(402,413,l),
(257,413,l),
(253,383,l),
(301,405,o),
(321,479,o),
(321,524,cs),
(321,588,o),
(286,628,o),
(228,628,cs),
(140,628,o),
(101,529,o),
(101,460,cs),
(101,395,o),
(137,357,o),
(198,357,cs)
);
},
{
closed = 1;
nodes = (
(171,405,o),
(158,424,o),
(158,458,cs),
(158,496,o),
(174,579,o),
(225,579,cs),
(251,579,o),
(265,560,o),
(265,526,cs),
(265,488,o),
(248,405,o),
(196,405,cs)
);
},
{
closed = 1;
nodes = (
(453,690,l),
(466,746,l),
(161,746,l),
(148,690,l)
);
}
);
width = 418;
}
);
metricRight = "=|";
note = uni159F;
unicode = 5535;
},
{
glyphname = "lhi-canadian";
kernRight = niright;
lastChange = "2023-01-13 15:29:45 +0000";
layers = (
{
anchors = (
{
name = top_center_can;
pos = (479,714);
},
{
name = top_right_can;
pos = (564,714);
}
);
layerId = "9563F490-07F6-43DA-A81C-32B2684714C2";
shapes = (
{
closed = 1;
nodes = (
(257,0,l),
(274,83,l),
(259,83,ls),
(186,83,o),
(143,130,o),
(143,206,cs),
(143,293,o),
(190,410,o),
(331,410,cs),
(665,410,l),
(681,486,l),
(590,752,l),
(504,722,l),
(595,453,l),
(629,495,l),
(338,495,ls),
(144,495,o),
(50,355,o),
(50,204,cs),
(50,84,o),
(124,0,o),
(239,0,cs)
);
}
);
width = 677;
}
);
metricLeft = "ke-canadian";
metricRight = "=|ne-canadian";
note = uni15A0;
unicode = 5536;
},
{
glyphname = "lho-canadian";
kernLeft = noleft;
lastChange = "2023-01-13 15:29:45 +0000";
layers = (
{
anchors = (
{
name = top_center_can;
pos = (387,513);
},
{
name = top_right_can;
pos = (478,513);
}
);
layerId = "9563F490-07F6-43DA-A81C-32B2684714C2";
shapes = (
{
closed = 1;
nodes = (
(173,-227,l),
(81,42,l),
(48,-1,l),
(338,-1,ls),
(533,-1,o),
(626,140,o),
(626,291,cs),
(626,411,o),
(553,495,o),
(438,495,cs),
(420,495,l),
(402,412,l),
(418,412,ls),
(491,412,o),
(534,365,o),
(534,289,cs),
(534,201,o),
(486,84,o),
(346,84,cs),
(12,84,l),
(-4,9,l),
(87,-258,l)
);
}
);
width = 676;
}
);
metricLeft = "ne-canadian";
metricRight = "=|ke-canadian";
note = uni15A2;
unicode = 5538;
},
{
glyphname = "lha-canadian";
kernRight = naright;
lastChange = "2023-01-13 15:29:45 +0000";
layers = (
{
anchors = (
{
name = top_center_can;
pos = (403,513);
},
{
name = top_left_can;
pos = (311,513);
}
);
layerId = "9563F490-07F6-43DA-A81C-32B2684714C2";
shapes = (
{
closed = 1;
nodes = (
(578,9,l),
(594,85,l),
(273,85,ls),
(188,85,o),
(142,129,o),
(142,207,cs),
(142,292,o),
(183,412,o),
(327,412,cs),
(343,412,l),
(361,495,l),
(338,495,ls),
(137,495,o),
(49,350,o),
(49,200,cs),
(49,77,o),
(126,0,o),
(255,0,cs),
(516,0,l),
(492,39,l),
(305,-206,l),
(373,-258,l)
);
}
);
width = 676;
}
);
metricLeft = "ke-canadian";
metricRight = "=|ne-canadian";
note = uni15A4;
unicode = 5540;
},
{
glyphname = "lh-canadian";
kernLeft = mwestleft;
kernRight = mwestright;
lastChange = "2023-01-13 15:29:45 +0000";
layers = (
{
layerId = "9563F490-07F6-43DA-A81C-32B2684714C2";
shapes = (
{
closed = 1;
nodes = (
(389,363,l),
(400,418,l),
(251,418,ls),
(198,418,o),
(171,446,o),
(171,499,cs),
(171,564,o),
(199,653,o),
(298,653,cs),
(305,653,l),
(318,714,l),
(309,714,ls),
(161,714,o),
(106,598,o),
(106,493,cs),
(106,405,o),
(157,357,o),
(248,357,cs),
(357,357,l),
(336,395,l),
(227,253,l),
(275,215,l)
);
}
);
width = 411;
}
);
metricLeft = "t-canadian";
metricRight = "=|";
note = uni15A6;
unicode = 5542;
},
{
glyphname = "theThCree-canadian";
lastChange = "2023-01-13 15:28:18 +0000";
layers = (
{
anchors = (
{
name = top_left_can;
pos = (183,714);
},
{
name = top_right_can;
pos = (472,714);
}
);
layerId = "9563F490-07F6-43DA-A81C-32B2684714C2";
shapes = (
{
closed = 1;
nodes = (
(297,108,l),
(273,0,l),
(367,0,l),
(390,108,l),
(453,108,l),
(465,164,l),
(402,164,l),
(438,334,l),
(162,334,l),
(176,303,l),
(519,670,l),
(455,726,l),
(44,282,l),
(38,251,l),
(327,251,l),
(308,164,l),
(118,164,l),
(106,108,l)
);
}
);
width = 514;
}
);
metricLeft = "ye-canadian";
note = uni15A7;
unicode = 5543;
},
{
glyphname = "thiThCree-canadian";
kernRight = yiright;
lastChange = "2023-01-13 15:29:45 +0000";
layers = (
{
anchors = (
{
name = top_left_can;
pos = (240,714);
},
{
name = top_right_can;
pos = (530,714);
}
);
layerId = "9563F490-07F6-43DA-A81C-32B2684714C2";
shapes = (
{
closed = 1;
nodes = (
(134,0,l),
(158,108,l),
(349,108,l),
(360,164,l),
(169,164,l),
(188,251,l),
(477,251,l),
(483,282,l),
(245,726,l),
(170,684,l),
(379,297,l),
(402,334,l),
(112,334,l),
(76,164,l),
(13,164,l),
(1,108,l),
(64,108,l),
(41,0,l)
);
}
);
width = 513;
}
);
metricLeft = "=|theThCree-canadian";
metricRight = "=|ye-canadian";
note = uni15A8;
unicode = 5544;
},
{
glyphname = "thoThCree-canadian";
kernLeft = yoleft;
lastChange = "2023-01-13 15:28:18 +0000";
layers = (
{
anchors = (
{
name = top_left_can;
pos = (183,714);
},
{
name = top_right_can;
pos = (472,714);
}
);
layerId = "9563F490-07F6-43DA-A81C-32B2684714C2";
shapes = (
{
closed = 1;
nodes = (
(390,30,l),
(180,417,l),
(158,380,l),
(447,380,l),
(483,550,l),
(547,550,l),
(559,606,l),
(495,606,l),
(518,714,l),
(425,714,l),
(402,606,l),
(211,606,l),
(199,550,l),
(390,550,l),
(372,463,l),
(83,463,l),
(76,432,l),
(315,-12,l)
);
}
);
width = 514;
}
);
metricLeft = "ye-canadian";
metricRight = "theThCree-canadian";
note = uni15AA;
unicode = 5546;
},
{
glyphname = "thaThCree-canadian";
kernRight = yaright;
lastChange = "2023-01-13 15:29:45 +0000";
layers = (
{
anchors = (
{
name = top_left_can;
pos = (241,714);
},
{
name = top_right_can;
pos = (530,714);
}
);
layerId = "9563F490-07F6-43DA-A81C-32B2684714C2";
shapes = (
{
closed = 1;
nodes = (
(517,432,l),
(523,463,l),
(233,463,l),
(252,550,l),
(443,550,l),
(454,606,l),
(263,606,l),
(287,714,l),
(193,714,l),
(170,606,l),
(107,606,l),
(96,550,l),
(158,550,l),
(122,380,l),
(399,380,l),
(385,411,l),
(41,44,l),
(105,-12,l)
);
}
);
width = 515;
}
);
metricLeft = "=|theThCree-canadian";
metricRight = "=|ye-canadian";
note = uni15AC;
unicode = 5548;
},
{
glyphname = "thThCree-canadian";
kernLeft = mwestleft;
kernRight = mwestright;
lastChange = "2023-01-13 15:29:45 +0000";
layers = (
{
layerId = "9563F490-07F6-43DA-A81C-32B2684714C2";
shapes = (
{
closed = 1;
nodes = (
(153,635,l),
(132,534,l),
(276,534,l),
(262,565,l),
(96,386,l),
(140,348,l),
(342,568,l),
(346,588,l),
(206,588,l),
(216,635,l),
(307,635,l),
(314,667,l),
(223,667,l),
(233,714,l),
(170,714,l),
(160,667,l),
(127,667,l),
(121,635,l)
);
}
);
width = 301;
}
);
metricRight = "y-canadian";
note = uni15AE;
unicode = 5550;
},
{
glyphname = "bAivilik-canadian";
lastChange = "2023-01-13 15:29:45 +0000";
layers = (
{
layerId = "9563F490-07F6-43DA-A81C-32B2684714C2";
shapes = (
{
closed = 1;
nodes = (
(398,-13,o),
(458,199,o),
(458,328,cs),
(458,442,o),
(404,509,o),
(310,509,cs),
(252,509,o),
(207,475,o),
(174,406,c),
(188,401,l),
(254,714,l),
(160.996,714,l),
(9,0,l),
(95,0,l),
(119,115,l),
(109,100,l),
(115,25,o),
(160,-13,o),
(231,-13,cs)
);
},
{
closed = 1;
nodes = (
(174,67,o),
(147,102,o),
(147,171,cs),
(147,243,o),
(179,428,o),
(286,428,cs),
(339,428,o),
(367,393,o),
(367,324,cs),
(367,252,o),
(335,67,o),
(228,67,cs)
);
}
);
width = 503;
}
);
metricLeft = "nunavuth-canadian";
metricRight = "=|ke-canadian";
note = uni15AF;
unicode = 5551;
},
{
glyphname = "eBlackfoot-canadian";
lastChange = "2023-01-13 15:28:18 +0000";
layers = (
{
layerId = "9563F490-07F6-43DA-A81C-32B2684714C2";
shapes = (
{
closed = 1;
nodes = (
(102,0,l),
(194,431,l),
(212,388,o),
(253,362,o),
(306,362,cs),
(430,362,o),
(486,494,o),
(486,583,cs),
(486,669,o),
(436,727,o),
(355,727,cs),
(311,727,o),
(271,709,o),
(242,677,c),
(250,714,l),
(160.996,714,l),
(8.996,0,l)
);
}
);
width = 458;
}
);
metricLeft = "nunavuth-canadian";
note = uni15B0;
unicode = 5552;
},
{
glyphname = "iBlackfoot-canadian";
lastChange = "2023-01-13 15:28:18 +0000";
layers = (
{
layerId = "9563F490-07F6-43DA-A81C-32B2684714C2";
shapes = (
{
closed = 1;
nodes = (
(194,-13,o),
(234,5,o),
(263,37,c),
(255,0,l),
(344,0,l),
(496,714,l),
(403,714,l),
(311,283,l),
(294,326,o),
(253,352,o),
(199,352,cs),
(75,352,o),
(19,220,o),
(19,131,cs),
(19,45,o),
(69,-13,o),
(150,-13,cs)
);
}
);
width = 459;
}
);
metricLeft = "=|eBlackfoot-canadian";
metricRight = "nunavuth-canadian";
note = uni15B1;
unicode = 5553;
},
{
glyphname = "oBlackfoot-canadian";
lastChange = "2023-01-13 15:28:18 +0000";
layers = (
{
layerId = "9563F490-07F6-43DA-A81C-32B2684714C2";
shapes = (
{
closed = 1;
nodes = (
(351,-13,o),
(406,118,o),
(406,207,cs),
(406,294,o),
(357,352,o),
(278,352,cs),
(236,352,o),
(198,336,o),
(168,307,c),
(254,714,l),
(160.996,714,l),
(8.996,0,l),
(98,0,l),
(112,64,l),
(126,17,o),
(169,-13,o),
(226,-13,cs)
);
}
);
width = 458;
}
);
metricLeft = "nunavuth-canadian";
metricRight = "eBlackfoot-canadian";
note = uni15B2;
unicode = 5554;
},
{
glyphname = "aBlackfoot-canadian";
lastChange = "2023-01-13 15:29:45 +0000";
layers = (
{
layerId = "9563F490-07F6-43DA-A81C-32B2684714C2";
shapes = (
{
closed = 1;
nodes = (
(344,0,l),
(496,714,l),
(407.002,714,l),
(393,650,l),
(378,697,o),
(336,727,o),
(279,727,cs),
(154,727,o),
(99,596,o),
(99,507,cs),
(99,420,o),
(148,362,o),
(227,362,cs),
(269,362,o),
(307,378,o),
(337,407,c),
(250,0,l)
);
}
);
width = 459;
}
);
metricLeft = "=|eBlackfoot-canadian";
metricRight = "nunavuth-canadian";
note = uni15B3;
unicode = 5555;
},
{
glyphname = "weBlackfoot-canadian";
lastChange = "2023-01-13 15:28:18 +0000";
layers = (
{
layerId = "9563F490-07F6-43DA-A81C-32B2684714C2";
shapes = (
{
closed = 1;
nodes = (
(102,0,l),
(169,316,l),
(452,316,l),
(469,397,l),
(187,397,l),
(237,633,l),
(519,633,l),
(536,714,l),
(160.996,714,l),
(8.996,0,l)
);
}
);
width = 484;
}
);
metricLeft = "nunavuth-canadian";
note = uni15B4;
unicode = 5556;
},
{
glyphname = "wiBlackfoot-canadian";
lastChange = "2023-01-13 15:29:45 +0000";
layers = (
{
layerId = "9563F490-07F6-43DA-A81C-32B2684714C2";
shapes = (
{
closed = 1;
nodes = (
(370,0,l),
(522,714,l),
(428,714,l),
(361,398,l),
(79,398,l),
(62,317,l),
(344,317,l),
(294,81,l),
(12,81,l),
(-5,0,l)
);
}
);
width = 485;
}
);
metricLeft = "=|weBlackfoot-canadian";
metricRight = "nunavuth-canadian";
note = uni15B5;
unicode = 5557;
},
{
glyphname = "woBlackfoot-canadian";
lastChange = "2023-01-13 15:28:18 +0000";
layers = (
{
layerId = "9563F490-07F6-43DA-A81C-32B2684714C2";
shapes = (
{
closed = 1;
nodes = (
(384,0,l),
(401,81,l),
(120,81,l),
(170,317,l),
(452,317,l),
(469,398,l),
(187,398,l),
(254,714,l),
(160.996,714,l),
(8.996,0,l)
);
}
);
width = 484;
}
);
metricLeft = "nunavuth-canadian";
metricRight = "weBlackfoot-canadian";
note = uni15B6;
unicode = 5558;
},
{
glyphname = "waBlackfoot-canadian";
lastChange = "2023-01-13 15:29:45 +0000";
layers = (
{
layerId = "9563F490-07F6-43DA-A81C-32B2684714C2";
shapes = (
{
closed = 1;
nodes = (
(370,0,l),
(522,714,l),
(147,714,l),
(130,633,l),
(411,633,l),
(361,397,l),
(79,397,l),
(62,316,l),
(344,316,l),
(276,0,l)
);
}
);
width = 485;
}
);
metricLeft = "=|weBlackfoot-canadian";
metricRight = "nunavuth-canadian";
note = uni15B7;
unicode = 5559;
},
{
glyphname = "neBlackfoot-canadian";
lastChange = "2023-01-13 15:28:18 +0000";
layers = (
{
layerId = "9563F490-07F6-43DA-A81C-32B2684714C2";
shapes = (
{
closed = 1;
nodes = (
(102,0,l),
(239,644,l),
(285,644,l),
(266,695,l),
(256,643,ls),
(226,504,o),
(288,414,o),
(419,414,cs),
(533,414,o),
(609,483,o),
(639,625,cs),
(658,714,l),
(567,714,l),
(547,617,ls),
(530,535,o),
(488,497,o),
(425,497,cs),
(354,497,o),
(326,546,o),
(343,625,cs),
(362,714,l),
(160.996,714,l),
(8.996,0,l)
);
}
);
width = 593;
}
);
metricLeft = "nunavuth-canadian";
note = uni15B8;
unicode = 5560;
},
{
glyphname = "niBlackfoot-canadian";
lastChange = "2023-01-13 15:29:45 +0000";
layers = (
{
layerId = "9563F490-07F6-43DA-A81C-32B2684714C2";
shapes = (
{
closed = 1;
nodes = (
(72,0,l),
(92,97,ls),
(109,179,o),
(151,217,o),
(214,217,cs),
(285,217,o),
(313,168,o),
(297,89,cs),
(277,0,l),
(479,0,l),
(631,714,l),
(537,714,l),
(400,70,l),
(354,70,l),
(373,19,l),
(384,71,ls),
(413,210,o),
(352,300,o),
(220,300,cs),
(106,300,o),
(30,231,o),
(0,89,cs),
(-19,0,l)
);
}
);
width = 594;
}
);
metricLeft = "=|neBlackfoot-canadian";
metricRight = "nunavuth-canadian";
note = uni15B9;
unicode = 5561;
},
{
glyphname = "noBlackfoot-canadian";
lastChange = "2023-01-13 15:29:45 +0000";
layers = (
{
layerId = "9563F490-07F6-43DA-A81C-32B2684714C2";
shapes = (
{
closed = 1;
nodes = (
(210,0,l),
(229,84,ls),
(249,176,o),
(284,218,o),
(348,218,cs),
(418,218,o),
(449,166,o),
(431,76,cs),
(415,0,l),
(506.998,0,l),
(519,56,ls),
(550,205,o),
(486,300,o),
(355,300,cs),
(240,300,o),
(167,225,o),
(137,80,cs),
(124,19,l),
(163,70,l),
(117,70,l),
(254,714,l),
(160.996,714,l),
(8.996,0,l)
);
}
);
width = 594;
}
);
metricLeft = "nunavuth-canadian";
metricRight = "neBlackfoot-canadian";
note = uni15BA;
unicode = 5562;
},
{
glyphname = "naBlackfoot-canadian";
lastChange = "2023-01-13 15:29:45 +0000";
layers = (
{
layerId = "9563F490-07F6-43DA-A81C-32B2684714C2";
shapes = (
{
closed = 1;
nodes = (
(479,0,l),
(631,714,l),
(429,714,l),
(411,630,ls),
(391,538,o),
(355,496,o),
(292,496,cs),
(221,496,o),
(190,548,o),
(209,638,cs),
(224,714,l),
(133,714,l),
(121,658,ls),
(89,509,o),
(154,414,o),
(284,414,cs),
(399,414,o),
(472,489,o),
(503,634,cs),
(516,695,l),
(476,644,l),
(522,644,l),
(385,0,l)
);
}
);
width = 594;
}
);
metricLeft = "=|neBlackfoot-canadian";
metricRight = "nunavuth-canadian";
note = uni15BB;
unicode = 5563;
},
{
glyphname = "keBlackfoot-canadian";
lastChange = "2023-01-13 15:28:18 +0000";
layers = (
{
layerId = "9563F490-07F6-43DA-A81C-32B2684714C2";
shapes = (
{
closed = 1;
nodes = (
(102,0,l),
(232,606,l),
(197,606,l),
(272,265,l),
(314,265,l),
(605,714,l),
(501,714,l),
(282,371,l),
(322,366,l),
(247,714,l),
(160.996,714,l),
(8.996,0,l)
);
}
);
width = 526;
}
);
metricLeft = "nunavuth-canadian";
note = uni15BC;
unicode = 5564;
},
{
glyphname = "kiBlackfoot-canadian";
lastChange = "2023-01-13 15:28:18 +0000";
layers = (
{
layerId = "9563F490-07F6-43DA-A81C-32B2684714C2";
shapes = (
{
closed = 1;
nodes = (
(71,1,l),
(290,343,l),
(250,348,l),
(325,1,l),
(411,1,l),
(563,715,l),
(470,715,l),
(341,108,l),
(375,108,l),
(300,450,l),
(258,450,l),
(-32,1,l)
);
}
);
width = 526;
}
);
metricLeft = "=|keBlackfoot-canadian";
metricRight = "nunavuth-canadian";
note = uni15BD;
unicode = 5565;
},
{
glyphname = "koBlackfoot-canadian";
lastChange = "2023-01-13 15:28:18 +0000";
layers = (
{
layerId = "9563F490-07F6-43DA-A81C-32B2684714C2";
shapes = (
{
closed = 1;
nodes = (
(95,0,l),
(328,344,l),
(283,350,l),
(358,0,l),
(453,0,l),
(353,449,l),
(311,449,l),
(91,108,l),
(125,108,l),
(254,714,l),
(160.996,714,l),
(8.996,0,l)
);
}
);
width = 526;
}
);
metricLeft = "nunavuth-canadian";
metricRight = "keBlackfoot-canadian";
note = uni15BE;
unicode = 5566;
},
{
glyphname = "kaBlackfoot-canadian";
lastChange = "2023-01-13 15:29:45 +0000";
layers = (
{
layerId = "9563F490-07F6-43DA-A81C-32B2684714C2";
shapes = (
{
closed = 1;
nodes = (
(410,1,l),
(562,715,l),
(476,715,l),
(243,371,l),
(288,365,l),
(213,715,l),
(119,715,l),
(218,265,l),
(260,265,l),
(480,607,l),
(446,607,l),
(317,1,l)
);
}
);
width = 525;
}
);
metricLeft = "=|keBlackfoot-canadian";
metricRight = "nunavuth-canadian";
note = uni15BF;
unicode = 5567;
},
{
color = 9;
glyphname = "heSayisi-canadian";
lastChange = "2023-01-13 15:29:45 +0000";
layers = (
{
anchors = (
{
name = top_right_can;
pos = (555,714);
}
);
layerId = "9563F490-07F6-43DA-A81C-32B2684714C2";
shapes = (
{
closed = 1;
nodes = (
(450,0,l),
(602,714,l),
(509,714,l),
(421,299,l),
(439,298,l),
(490,572,o),
(441,727,o),
(301,727,cs),
(200,727,o),
(130,646,o),
(96,492,cs),
(85,440,o),
(79,394,o),
(78,348,c),
(167,348,l),
(168,390,o),
(173,433,o),
(184,481,cs),
(206,586,o),
(251,645,o),
(313,645,cs),
(432,645,o),
(450,433,o),
(356,0,c)
);
}
);
width = 565;
}
);
metricRight = "nunavuth-canadian";
note = uni15C0;
unicode = 5568;
},
{
color = 9;
glyphname = "hiSayisi-canadian";
lastChange = "2023-01-13 15:28:18 +0000";
layers = (
{
layerId = "9563F490-07F6-43DA-A81C-32B2684714C2";
shapes = (
{
closed = 1;
nodes = (
(102,0,l),
(194,426,o),
(297,645,o),
(408,645,cs),
(475,645,o),
(498,569,o),
(471,438,cs),
(463,401,o),
(454,374,o),
(442,348,c),
(531,348,l),
(545,381,o),
(555,413,o),
(562,444,cs),
(598,618,o),
(551,727,o),
(441,727,cs),
(317,727,o),
(215,584,o),
(154,322,c),
(170,321,l),
(254,714,l),
(160.996,714,l),
(8.996,0,l)
);
}
);
width = 564;
}
);
metricLeft = "nunavuth-canadian";
metricRight = "=|heSayisi-canadian";
note = uni15C1;
unicode = 5569;
},
{
color = 9;
glyphname = "hoSayisi-canadian";
lastChange = "2023-01-13 15:29:45 +0000";
layers = (
{
anchors = (
{
name = top_center_can;
pos = (377,714);
},
{
name = top_left_can;
pos = (199,714);
},
{
name = top_right_can;
pos = (557,714);
}
);
layerId = "9563F490-07F6-43DA-A81C-32B2684714C2";
shapes = (
{
closed = 1;
nodes = (
(294,-13,o),
(396,130,o),
(457,392,c),
(442,393,l),
(358,0,l),
(451,0,l),
(603,714,l),
(509,714,l),
(418,288,o),
(315,69,o),
(204,69,cs),
(137,69,o),
(113,145,o),
(141,276,cs),
(149,313,o),
(158,340,o),
(169,366,c),
(80,366,l),
(67,333,o),
(56,301,o),
(49,270,cs),
(14,96,o),
(61,-13,o),
(171,-13,cs)
);
}
);
width = 566;
}
);
metricLeft = "heSayisi-canadian";
metricRight = "nunavuth-canadian";
note = uni15C2;
unicode = 5570;
},
{
color = 9;
glyphname = "haSayisi-canadian";
lastChange = "2023-01-13 15:29:45 +0000";
layers = (
{
layerId = "9563F490-07F6-43DA-A81C-32B2684714C2";
shapes = (
{
closed = 1;
nodes = (
(410,-13,o),
(480,68,o),
(515,222,cs),
(526,274,o),
(532,320,o),
(533,366,c),
(444,366,l),
(443,324,o),
(438,281,o),
(427,233,cs),
(405,128,o),
(360,69,o),
(298,69,cs),
(178,69,o),
(160,281,o),
(254,714,c),
(160.996,714,l),
(8.996,0,l),
(102,0,l),
(189,415,l),
(172,416,l),
(120,142,o),
(169,-13,o),
(309,-13,cs)
);
}
);
width = 564;
}
);
metricLeft = "nunavuth-canadian";
metricRight = "=|heSayisi-canadian";
note = uni15C3;
unicode = 5571;
},
{
color = 9;
glyphname = "ghuCarrier-canadian";
lastChange = "2023-01-13 15:29:45 +0000";
layers = (
{
layerId = "9563F490-07F6-43DA-A81C-32B2684714C2";
shapes = (
{
closed = 1;
nodes = (
(261,0,l),
(665,688,l),
(670,714,l),
(589,714,l),
(458,481,l),
(495,498,l),
(202,498,l),
(232,480,l),
(199,714,l),
(125,714,l),
(119,688,l),
(230,0,l)
);
},
{
closed = 1;
nodes = (
(457,428,l),
(439,445,l),
(256,123,l),
(284,118,l),
(237,442,l),
(212,428,l)
);
}
);
width = 596;
}
);
metricLeft = "e-canadian";
metricRight = "e-canadian";
note = uni15C4;
unicode = 5572;
},
{
color = 9;
glyphname = "ghoCarrier-canadian";
lastChange = "2023-01-13 15:29:45 +0000";
layers = (
{
layerId = "9563F490-07F6-43DA-A81C-32B2684714C2";
shapes = (
{
closed = 1;
nodes = (
(54,0,l),
(186,233,l),
(148,216,l),
(441,216,l),
(411,234,l),
(443,0,l),
(518,0,l),
(523,26,l),
(413,714,l),
(381,714,l),
(-22,26,l),
(-28,0,l)
);
},
{
closed = 1;
nodes = (
(419,361,l),
(229,365,l),
(247,272,l),
(398,516,l),
(316,517,l),
(362,268,l)
);
}
);
width = 596;
}
);
metricLeft = "e-canadian";
metricRight = "e-canadian";
note = uni15C5;
unicode = 5573;
},
{
color = 9;
glyphname = "gheCarrier-canadian";
lastChange = "2023-01-13 15:29:45 +0000";
layers = (
{
anchors = (
{
name = middle_center_can;
pos = (88,366);
}
);
layerId = "9563F490-07F6-43DA-A81C-32B2684714C2";
shapes = (
{
closed = 1;
nodes = (
(13,0,l),
(534,340,l),
(541,374,l),
(165,714,l),
(141,714,l),
(126,647,l),
(248,537,l),
(240,596,l),
(143,141,l),
(171,193,l),
(7,85,l),
(-11,0,l)
);
},
{
closed = 1;
nodes = (
(297,555,l),
(270,528,l),
(476,339,l),
(479,388,l),
(206,208,l),
(217,182,l)
);
}
);
width = 544;
}
);
metricLeft = "po-canadian";
metricRight = "o-canadian";
note = uni15C6;
unicode = 5574;
},
{
color = 9;
glyphname = "ghaCarrier-canadian";
lastChange = "2023-01-13 15:29:45 +0000";
layers = (
{
layerId = "9563F490-07F6-43DA-A81C-32B2684714C2";
shapes = (
{
closed = 1;
nodes = (
(451,0,l),
(465,67,l),
(344,177,l),
(352,118,l),
(449,573,l),
(421,521,l),
(585,629,l),
(603,714,l),
(579,714,l),
(58,374,l),
(50,340,l),
(427,0,l)
);
},
{
closed = 1;
nodes = (
(321,186,l),
(130,363,l),
(128,335,l),
(386,506,l),
(370,514,l),
(301,185,l)
);
}
);
width = 545;
}
);
metricLeft = "=|o-canadian";
metricRight = "=|po-canadian";
note = uni15C9;
unicode = 5577;
},
{
color = 9;
glyphname = "ruCarrier-canadian";
lastChange = "2023-01-13 15:29:45 +0000";
layers = (
{
layerId = "9563F490-07F6-43DA-A81C-32B2684714C2";
shapes = (
{
closed = 1;
nodes = (
(261,0,l),
(665,688,l),
(670,714,l),
(586,714,l),
(531,616,l),
(562,634,l),
(186,634,l),
(213,615,l),
(199,714,l),
(125,714,l),
(119,688,l),
(230,0,l)
);
},
{
closed = 1;
nodes = (
(525,564,l),
(516,583,l),
(256,125,l),
(284,120,l),
(217,580,l),
(195,564,l)
);
}
);
width = 596;
}
);
metricLeft = "e-canadian";
metricRight = "e-canadian";
note = uni15CA;
unicode = 5578;
},
{
color = 9;
glyphname = "roCarrier-canadian";
lastChange = "2023-01-13 15:29:45 +0000";
layers = (
{
layerId = "9563F490-07F6-43DA-A81C-32B2684714C2";
shapes = (
{
closed = 1;
nodes = (
(381,714,l),
(-22,26,l),
(-28,0,l),
(57,0,l),
(112,98,l),
(81,80,l),
(457,80,l),
(430,99,l),
(444,0,l),
(517,0,l),
(523,26,l),
(413,714,l)
);
},
{
closed = 1;
nodes = (
(117,150,l),
(127,131,l),
(387,589,l),
(358,594,l),
(426,134,l),
(448,150,l)
);
}
);
width = 595;
}
);
metricLeft = "e-canadian";
metricRight = "e-canadian";
note = uni15CB;
unicode = 5579;
},
{
color = 9;
glyphname = "reCarrier-canadian";
lastChange = "2023-01-13 15:29:45 +0000";
layers = (
{
layerId = "9563F490-07F6-43DA-A81C-32B2684714C2";
shapes = (
{
closed = 1;
nodes = (
(13,0,l),
(533,340,l),
(540,374,l),
(165,714,l),
(140,714,l),
(126,649,l),
(189,591,l),
(181,649,l),
(61,85,l),
(85,135,l),
(6,82,l),
(-12,0,l)
);
},
{
closed = 1;
nodes = (
(238,598,l),
(213,570,l),
(464,339,l),
(468,387,l),
(130,162,l),
(140,135,l)
);
}
);
width = 543;
}
);
metricLeft = "po-canadian";
metricRight = "o-canadian";
note = uni15CC;
unicode = 5580;
},
{
color = 9;
glyphname = "reeCarrier-canadian";
lastChange = "2023-01-13 15:29:45 +0000";
layers = (
{
layerId = "9563F490-07F6-43DA-A81C-32B2684714C2";
shapes = (
{
closed = 1;
nodes = (
(13,0,l),
(534,340,l),
(541,374,l),
(165,714,l),
(141,714,l),
(129,657,l),
(185,605,l),
(183,656,l),
(61,78,l),
(83,128,l),
(5,77,l),
(-11,0,l)
);
},
{
closed = 1;
nodes = (
(234,618,l),
(211,589,l),
(485,339,l),
(489,388,l),
(115,142,l),
(128,115,l)
);
},
{
closed = 1;
nodes = (
(247,279,l),
(284,450,l),
(249,450,l),
(212,279,l)
);
}
);
width = 544;
}
);
metricLeft = "po-canadian";
metricRight = "o-canadian";
note = uni15CD;
unicode = 5581;
},
{
color = 9;
glyphname = "riCarrier-canadian";
lastChange = "2023-01-13 15:29:45 +0000";
layers = (
{
layerId = "9563F490-07F6-43DA-A81C-32B2684714C2";
shapes = (
{
closed = 1;
nodes = (
(13,0,l),
(534,340,l),
(541,374,l),
(165,714,l),
(141,714,l),
(129,657,l),
(187,603,l),
(183,656,l),
(61,78,l),
(87,130,l),
(5,77,l),
(-11,0,l)
);
},
{
closed = 1;
nodes = (
(304,328,o),
(323,345,o),
(323,367,cs),
(323,389,o),
(304,405,o),
(283,405,cs),
(263,405,o),
(245,389,o),
(245,367,cs),
(245,345,o),
(263,328,o),
(283,328,cs)
);
},
{
closed = 1;
nodes = (
(234,618,l),
(209,591,l),
(485,339,l),
(489,388,l),
(117,144,l),
(128,115,l)
);
}
);
width = 544;
}
);
metricLeft = "po-canadian";
metricRight = "o-canadian";
note = uni15CE;
unicode = 5582;
},
{
color = 9;
glyphname = "raCarrier-canadian";
lastChange = "2023-01-13 15:28:18 +0000";
layers = (
{
layerId = "9563F490-07F6-43DA-A81C-32B2684714C2";
shapes = (
{
closed = 1;
nodes = (
(451,0,l),
(465,65,l),
(402,123,l),
(410,65,l),
(529,629,l),
(505,579,l),
(585,632,l),
(602,714,l),
(578,714,l),
(58,374,l),
(50,340,l),
(426,0,l)
);
},
{
closed = 1;
nodes = (
(378,144,l),
(126,375,l),
(123,327,l),
(461,552,l),
(451,579,l),
(353,116,l)
);
}
);
width = 545;
}
);
metricLeft = "=|o-canadian";
metricRight = "=|po-canadian";
note = uni15CF;
unicode = 5583;
},
{
color = 9;
glyphname = "wuCarrier-canadian";
lastChange = "2023-01-13 15:28:18 +0000";
layers = (
{
layerId = "9563F490-07F6-43DA-A81C-32B2684714C2";
shapes = (
{
closed = 1;
nodes = (
(266,0,l),
(673,688,l),
(679,714,l),
(598,714,l),
(307,195,l),
(324,194,l),
(434.992,714,l),
(362,714,l),
(251,192,l),
(270,192,l),
(194,714,l),
(125,714,l),
(119,688,l),
(234,0,l)
);
}
);
width = 605;
}
);
metricLeft = "e-canadian";
metricRight = "e-canadian";
note = uni15D0;
unicode = 5584;
},
{
color = 9;
glyphname = "woCarrier-canadian";
lastChange = "2023-01-13 15:29:45 +0000";
layers = (
{
layerId = "9563F490-07F6-43DA-A81C-32B2684714C2";
shapes = (
{
closed = 1;
nodes = (
(53,0,l),
(345,519,l),
(327,520,l),
(216,0,l),
(289,0,l),
(400,522,l),
(381,522,l),
(457,0,l),
(526,0,l),
(532,26,l),
(417,714,l),
(386,714,l),
(-22,26,l),
(-28,0,l)
);
}
);
width = 604;
}
);
metricLeft = "e-canadian";
metricRight = "e-canadian";
note = uni15D1;
unicode = 5585;
},
{
color = 9;
glyphname = "weCarrier-canadian";
lastChange = "2023-01-13 15:29:45 +0000";
layers = (
{
layerId = "9563F490-07F6-43DA-A81C-32B2684714C2";
shapes = (
{
closed = 1;
nodes = (
(32,0,l),
(553,340,l),
(560,374,l),
(184,714,l),
(160,714,l),
(146,647,l),
(430,388,l),
(435,403,l),
(94,403,l),
(78,331,l),
(420,331,l),
(424,344,l),
(26,84,l),
(8,0,l)
);
}
);
width = 563;
}
);
metricRight = "o-canadian";
note = uni15D2;
unicode = 5586;
},
{
color = 9;
glyphname = "weeCarrier-canadian";
lastChange = "2023-01-13 15:29:45 +0000";
layers = (
{
layerId = "9563F490-07F6-43DA-A81C-32B2684714C2";
shapes = (
{
closed = 1;
nodes = (
(32,0,l),
(553,340,l),
(560,374,l),
(184,714,l),
(160,714,l),
(147,652,l),
(461,370,l),
(471,397,l),
(213,397,l),
(229,470,l),
(178,470,l),
(162,397,l),
(92,397,l),
(80,338,l),
(149,338,l),
(134,265,l),
(185,265,l),
(200,338,l),
(459,338,l),
(449,355,l),
(25,79,l),
(8,0,l)
);
}
);
width = 563;
}
);
metricLeft = "weCarrier-canadian";
metricRight = "o-canadian";
note = uni15D3;
unicode = 5587;
},
{
color = 9;
glyphname = "wiCarrier-canadian";
lastChange = "2023-01-13 15:29:45 +0000";
layers = (
{
layerId = "9563F490-07F6-43DA-A81C-32B2684714C2";
shapes = (
{
closed = 1;
nodes = (
(32,0,l),
(553,340,l),
(560,374,l),
(184,714,l),
(160,714,l),
(147,652,l),
(444,384,l),
(453,399,l),
(264,399,l),
(254,421,o),
(231,437,o),
(205,437,cs),
(179,437,o),
(156,421,o),
(146,399,c),
(93,399,l),
(80,340,l),
(146,340,l),
(156,318,o),
(179,302,o),
(205,302,cs),
(231,302,o),
(253,318,o),
(263,340,c),
(441,340,l),
(436,347,l),
(25,80,l),
(8,0,l)
);
}
);
width = 563;
}
);
metricLeft = "weCarrier-canadian";
metricRight = "o-canadian";
note = uni15D4;
unicode = 5588;
},
{
color = 9;
glyphname = "waCarrier-canadian";
lastChange = "2023-01-13 15:29:45 +0000";
layers = (
{
layerId = "9563F490-07F6-43DA-A81C-32B2684714C2";
shapes = (
{
closed = 1;
nodes = (
(450,0,l),
(464,67,l),
(180,326,l),
(175,311,l),
(516,311,l),
(531,383,l),
(190,383,l),
(187,370,l),
(584,630,l),
(602,714,l),
(577,714,l),
(58,374,l),
(50,340,l),
(425,0,l)
);
}
);
width = 563;
}
);
metricLeft = "=|o-canadian";
metricRight = "=|weCarrier-canadian";
note = uni15D5;
unicode = 5589;
},
{
color = 9;
glyphname = "hwuCarrier-canadian";
lastChange = "2023-01-13 15:28:18 +0000";
layers = (
{
layerId = "9563F490-07F6-43DA-A81C-32B2684714C2";
shapes = (
{
closed = 1;
nodes = (
(266,0,l),
(673,688,l),
(679,714,l),
(604,714,l),
(478,495,l),
(504,508,l),
(382,508,l),
(426,714,l),
(369,714,l),
(325,508,l),
(201,508,l),
(223,495,l),
(190,714,l),
(125,714,l),
(119,688,l),
(234,0,l)
);
},
{
closed = 1;
nodes = (
(269,156,l),
(223,473,l),
(206,456,l),
(318,456,l),
(254,156,l)
);
},
{
closed = 1;
nodes = (
(367,456,l),
(477,456,l),
(468,473,l),
(290,158,l),
(303,153,l)
);
}
);
width = 605;
}
);
metricLeft = "e-canadian";
metricRight = "e-canadian";
note = uni15D6;
unicode = 5590;
},
{
color = 9;
glyphname = "hwoCarrier-canadian";
lastChange = "2023-01-13 15:29:45 +0000";
layers = (
{
layerId = "9563F490-07F6-43DA-A81C-32B2684714C2";
shapes = (
{
closed = 1;
nodes = (
(47,0,l),
(173,219,l),
(148,206,l),
(269,206,l),
(225,0,l),
(283,0,l),
(327,206,l),
(450,206,l),
(428,219,l),
(462,0,l),
(526,0,l),
(532,26,l),
(417,714,l),
(386,714,l),
(-22,26,l),
(-28,0,l)
);
},
{
closed = 1;
nodes = (
(361,556,l),
(348,561,l),
(284,258,l),
(175,258,l),
(183,241,l)
);
},
{
closed = 1;
nodes = (
(446,258,l),
(334,258,l),
(397,558,l),
(382,558,l),
(428,241,l)
);
}
);
width = 604;
}
);
metricLeft = "e-canadian";
metricRight = "e-canadian";
note = uni15D7;
unicode = 5591;
},
{
color = 9;
glyphname = "hweCarrier-canadian";
lastChange = "2023-01-13 15:29:45 +0000";
layers = (
{
layerId = "9563F490-07F6-43DA-A81C-32B2684714C2";
shapes = (
{
closed = 1;
nodes = (
(32,0,l),
(553,340,l),
(560,374,l),
(184,714,l),
(160,714,l),
(147,652,l),
(246,563,l),
(210,396,l),
(92,396,l),
(79,334,l),
(197,334,l),
(162,169,l),
(24,79,l),
(8,0,l)
);
},
{
closed = 1;
nodes = (
(248,340,l),
(440,340,l),
(217,196,l)
);
},
{
closed = 1;
nodes = (
(289,534,l),
(447,390,l),
(258,390,l)
);
}
);
width = 563;
}
);
metricLeft = "weCarrier-canadian";
metricRight = "o-canadian";
note = uni15D8;
unicode = 5592;
},
{
color = 9;
glyphname = "hweeCarrier-canadian";
lastChange = "2023-01-13 15:29:45 +0000";
layers = (
{
layerId = "9563F490-07F6-43DA-A81C-32B2684714C2";
shapes = (
{
closed = 1;
nodes = (
(32,0,l),
(553,340,l),
(560,374,l),
(184,714,l),
(160,714,l),
(147,656,l),
(267,550,l),
(233,392,l),
(188,392,l),
(204,468,l),
(161,468,l),
(145,392,l),
(91,392,l),
(80,339,l),
(133,339,l),
(118,265,l),
(161,265,l),
(176,339,l),
(222,339,l),
(188,181,l),
(24,75,l),
(8,0,l)
);
},
{
closed = 1;
nodes = (
(267,343,l),
(444,343,l),
(239,208,l)
);
},
{
closed = 1;
nodes = (
(305,522,l),
(450,389,l),
(277,389,l)
);
}
);
width = 563;
}
);
metricLeft = "weCarrier-canadian";
metricRight = "o-canadian";
note = uni15D9;
unicode = 5593;
},
{
color = 9;
glyphname = "hwiCarrier-canadian";
lastChange = "2023-01-13 15:29:45 +0000";
layers = (
{
layerId = "9563F490-07F6-43DA-A81C-32B2684714C2";
shapes = (
{
closed = 1;
nodes = (
(31,0,l),
(552,340,l),
(559,374,l),
(183,714,l),
(159,714,l),
(147,656,l),
(266,550,l),
(231,388,l),
(208,388,l),
(200,408,o),
(182,422,o),
(160,422,cs),
(138,422,o),
(120,408,o),
(112,388,c),
(90,388,l),
(80,343,l),
(111,343,l),
(119,323,o),
(138,309,o),
(160,309,cs),
(181,309,o),
(200,323,o),
(208,343,c),
(221,343,l),
(187,181,l),
(23,75,l),
(7,0,l)
);
},
{
closed = 1;
nodes = (
(266,343,l),
(442,343,l),
(238,208,l)
);
},
{
closed = 1;
nodes = (
(304,523,l),
(449,388,l),
(276,388,l)
);
}
);
width = 562;
}
);
metricLeft = "weCarrier-canadian";
metricRight = "o-canadian";
note = uni15DA;
unicode = 5594;
},
{
color = 9;
glyphname = "hwaCarrier-canadian";
lastChange = "2023-01-13 15:28:18 +0000";
layers = (
{
layerId = "9563F490-07F6-43DA-A81C-32B2684714C2";
shapes = (
{
closed = 1;
nodes = (
(578,714,l),
(58,374,l),
(50,340,l),
(426,0,l),
(451,0,l),
(464,62,l),
(365,151,l),
(400,318,l),
(518,318,l),
(531,380,l),
(413,380,l),
(448,545,l),
(586,635,l),
(603,714,l)
);
},
{
closed = 1;
nodes = (
(362,374,l),
(171,374,l),
(393,518,l)
);
},
{
closed = 1;
nodes = (
(321,180,l),
(163,324,l),
(352,324,l)
);
}
);
width = 564;
}
);
metricLeft = "=|o-canadian";
metricRight = "=|weCarrier-canadian";
note = uni15DB;
unicode = 5595;
},
{
color = 9;
glyphname = "thuCarrier-canadian";
lastChange = "2023-01-13 15:29:45 +0000";
layers = (
{
layerId = "9563F490-07F6-43DA-A81C-32B2684714C2";
shapes = (
{
closed = 1;
nodes = (
(419,-13,o),
(505,68,o),
(541,234,cs),
(643,714,l),
(158,714,l),
(64,271,ls),
(26,92,o),
(106,-13,o),
(275,-13,cs)
);
},
{
closed = 1;
nodes = (
(233,630,l),
(532,630,l),
(449,244,ls),
(424,125,o),
(372,74,o),
(281,74,cs),
(169,74,o),
(128,137,o),
(155,264,cs)
);
}
);
width = 603;
}
);
metricLeft = "te-canadian";
metricRight = "te-canadian";
note = uni15DC;
unicode = 5596;
},
{
color = 9;
glyphname = "thoCarrier-canadian";
lastChange = "2023-01-13 15:29:45 +0000";
layers = (
{
layerId = "9563F490-07F6-43DA-A81C-32B2684714C2";
shapes = (
{
closed = 1;
nodes = (
(491,0,l),
(585,443,ls),
(623,622,o),
(542,727,o),
(374,727,cs),
(229,727,o),
(143,646,o),
(108,480,cs),
(6,0,l)
);
},
{
closed = 1;
nodes = (
(199,470,ls),
(224,589,o),
(277,640,o),
(368,640,cs),
(479,640,o),
(520,577,o),
(493,450,cs),
(415,84,l),
(117,84,l)
);
}
);
width = 603;
}
);
metricLeft = "te-canadian";
metricRight = "te-canadian";
note = uni15DD;
unicode = 5597;
},
{
color = 9;
glyphname = "theCarrier-canadian";
lastChange = "2023-01-13 15:28:18 +0000";
layers = (
{
anchors = (
{
name = middle_center_can;
pos = (319,357);
}
);
layerId = "9563F490-07F6-43DA-A81C-32B2684714C2";
shapes = (
{
closed = 1;
nodes = (
(180,0,ls),
(479,0,o),
(572,277,o),
(572,460,cs),
(572,623,o),
(481,714,o),
(312,714,cs),
(160.996,714,l),
(8.996,0,l)
);
},
{
closed = 1;
nodes = (
(245,671,l),
(210,631,l),
(297,631,ls),
(417,631,o),
(480,571,o),
(480,454,cs),
(480,322,o),
(414,83,o),
(187,83,cs),
(100,83,l),
(112,46,l)
);
}
);
width = 588;
}
);
metricLeft = "nunavuth-canadian";
metricRight = "to-canadian";
note = uni15DE;
unicode = 5598;
},
{
color = 9;
glyphname = "thaCarrier-canadian";
lastChange = "2023-01-13 15:29:45 +0000";
layers = (
{
layerId = "9563F490-07F6-43DA-A81C-32B2684714C2";
shapes = (
{
closed = 1;
nodes = (
(474,0,l),
(626,714,l),
(455,714,ls),
(155,714,o),
(63,437,o),
(63,254,cs),
(63,91,o),
(153,0,o),
(323,0,cs)
);
},
{
closed = 1;
nodes = (
(154,392,o),
(221,631,o),
(447,631,cs),
(535,631,l),
(522,668,l),
(389,43,l),
(425,83,l),
(338,83,ls),
(217,83,o),
(154,143,o),
(154,260,cs)
);
}
);
width = 589;
}
);
metricLeft = "=|theCarrier-canadian";
metricRight = "nunavuth-canadian";
note = uni15E1;
unicode = 5601;
},
{
color = 9;
glyphname = "ttuCarrier-canadian";
lastChange = "2023-01-13 15:29:45 +0000";
layers = (
{
layerId = "9563F490-07F6-43DA-A81C-32B2684714C2";
shapes = (
{
closed = 1;
nodes = (
(418,-13,o),
(505,66,o),
(540,229,cs),
(643,714,l),
(612,714,l),
(322,515,l),
(386,507,l),
(190,714,l),
(158,714,l),
(63,265,ls),
(25,89,o),
(104,-13,o),
(271,-13,cs)
);
},
{
closed = 1;
nodes = (
(170,74,o),
(128,136,o),
(154,258,cs),
(230,617,l),
(192,603,l),
(335,448,l),
(354,448,l),
(560,595,l),
(529,615,l),
(449,239,ls),
(424,125,o),
(371,74,o),
(276,74,cs)
);
}
);
width = 603;
}
);
metricLeft = "te-canadian";
metricRight = "te-canadian";
note = uni15E2;
unicode = 5602;
},
{
color = 9;
glyphname = "ttoCarrier-canadian";
lastChange = "2023-01-13 15:29:45 +0000";
layers = (
{
layerId = "9563F490-07F6-43DA-A81C-32B2684714C2";
shapes = (
{
closed = 1;
nodes = (
(36,0,l),
(327,199,l),
(263,207,l),
(459,0,l),
(491,0,l),
(586,449,ls),
(623,625,o),
(545,727,o),
(377,727,cs),
(230,727,o),
(144,648,o),
(109,485,cs),
(6,0,l)
);
},
{
closed = 1;
nodes = (
(479,640,o),
(520,578,o),
(494,456,cs),
(418,97,l),
(457,111,l),
(314,266,l),
(295,266,l),
(88,119,l),
(120,99,l),
(200,475,ls),
(224,589,o),
(278,640,o),
(372,640,cs)
);
}
);
width = 603;
}
);
metricLeft = "te-canadian";
metricRight = "te-canadian";
note = uni15E3;
unicode = 5603;
},
{
color = 9;
glyphname = "tteCarrier-canadian";
lastChange = "2023-01-13 15:29:45 +0000";
layers = (
{
anchors = (
{
name = middle_center_can;
pos = (362,357);
}
);
layerId = "9563F490-07F6-43DA-A81C-32B2684714C2";
shapes = (
{
closed = 1;
nodes = (
(190,0,ls),
(487,0,o),
(583,275,o),
(583,460,cs),
(583,623,o),
(491,714,o),
(326,714,cs),
(157,714,l),
(151,688,l),
(184,327,l),
(197,406,l),
(11,26,l),
(5,0,l)
);
},
{
closed = 1;
nodes = (
(266,347,l),
(269,364,l),
(240,672,l),
(208,631,l),
(307,631,ls),
(428,631,o),
(491,571,o),
(491,454,cs),
(491,322,o),
(424,83,o),
(198,83,cs),
(98,83,l),
(117,45,l)
);
}
);
width = 599;
}
);
metricRight = "theCarrier-canadian";
note = uni15E4;
unicode = 5604;
},
{
color = 9;
glyphname = "ttaCarrier-canadian";
lastChange = "2023-01-13 15:28:18 +0000";
layers = (
{
layerId = "9563F490-07F6-43DA-A81C-32B2684714C2";
shapes = (
{
closed = 1;
nodes = (
(488,0,l),
(493,26,l),
(461,387,l),
(448,308,l),
(634,688,l),
(639,714,l),
(455,714,ls),
(157,714,o),
(63,439,o),
(63,254,cs),
(63,91,o),
(153,0,o),
(318,0,cs)
);
},
{
closed = 1;
nodes = (
(437,83,l),
(338,83,ls),
(217,83,o),
(154,143,o),
(154,260,cs),
(154,392,o),
(220,631,o),
(447,631,cs),
(547,631,l),
(527,669,l),
(379,367,l),
(375,350,l),
(404,42,l)
);
}
);
width = 598;
}
);
metricLeft = "=|theCarrier-canadian";
metricRight = "=|tteCarrier-canadian";
note = uni15E7;
unicode = 5607;
},
{
color = 9;
glyphname = "puCarrier-canadian";
lastChange = "2023-01-13 15:29:45 +0000";
layers = (
{
layerId = "9563F490-07F6-43DA-A81C-32B2684714C2";
shapes = (
{
closed = 1;
nodes = (
(419,-13,o),
(505,68,o),
(541,234,cs),
(643,714,l),
(549,714,l),
(514,546,l),
(216,546,l),
(251,714,l),
(158,714,l),
(64,271,ls),
(26,92,o),
(106,-13,o),
(275,-13,cs)
);
},
{
closed = 1;
nodes = (
(169,74,o),
(128,137,o),
(155,264,cs),
(198,463,l),
(496,463,l),
(449,244,ls),
(424,125,o),
(372,74,o),
(281,74,cs)
);
}
);
width = 603;
}
);
metricLeft = "te-canadian";
metricRight = "te-canadian";
note = uni15E8;
unicode = 5608;
},
{
color = 9;
glyphname = "poCarrier-canadian";
lastChange = "2023-01-13 15:29:45 +0000";
layers = (
{
layerId = "9563F490-07F6-43DA-A81C-32B2684714C2";
shapes = (
{
closed = 1;
nodes = (
(99,0,l),
(135,168,l),
(433,168,l),
(397,0,l),
(491,0,l),
(585,443,ls),
(623,622,o),
(542,727,o),
(374,727,cs),
(229,727,o),
(143,646,o),
(108,480,cs),
(6,0,l)
);
},
{
closed = 1;
nodes = (
(199,470,ls),
(224,589,o),
(277,640,o),
(368,640,cs),
(479,640,o),
(520,577,o),
(493,450,cs),
(451,251,l),
(152,251,l)
);
}
);
width = 603;
}
);
metricLeft = "te-canadian";
metricRight = "te-canadian";
note = uni15E9;
unicode = 5609;
},
{
color = 9;
glyphname = "peCarrier-canadian";
lastChange = "2023-01-13 15:28:18 +0000";
layers = (
{
anchors = (
{
name = middle_center_can;
pos = (350,357);
}
);
layerId = "9563F490-07F6-43DA-A81C-32B2684714C2";
shapes = (
{
closed = 1;
nodes = (
(187.006,0,ls),
(486,0,o),
(579,277,o),
(579,460,cs),
(579,623,o),
(489,714,o),
(323,714,cs),
(154,714,l),
(137,631,l),
(207,631,l),
(91,83,l),
(20,83,l),
(2,0,l)
);
},
{
closed = 1;
nodes = (
(308,672,l),
(218,631,l),
(304,631,ls),
(425,631,o),
(488,571,o),
(488,454,cs),
(488,323,o),
(422,83,o),
(195,83,cs),
(102,83,l),
(175,42,l)
);
}
);
width = 595;
}
);
metricRight = "theCarrier-canadian";
note = uni15EA;
unicode = 5610;
},
{
color = 9;
glyphname = "paCarrier-canadian";
lastChange = "2023-01-13 15:29:45 +0000";
layers = (
{
layerId = "9563F490-07F6-43DA-A81C-32B2684714C2";
shapes = (
{
closed = 1;
nodes = (
(487,0,l),
(504,83,l),
(434,83,l),
(550,631,l),
(621,631,l),
(639,714,l),
(454,714,ls),
(155,714,o),
(62,437,o),
(62,254,cs),
(62,91,o),
(152,0,o),
(318,0,cs)
);
},
{
closed = 1;
nodes = (
(423,83,l),
(337,83,ls),
(216,83,o),
(153,143,o),
(153,260,cs),
(153,391,o),
(219,631,o),
(446,631,cs),
(539,631,l),
(466,672,l),
(333,42,l)
);
}
);
width = 595;
}
);
metricLeft = "=|theCarrier-canadian";
metricRight = "=|peCarrier-canadian";
note = uni15ED;
unicode = 5613;
},
{
color = 6;
glyphname = "pCarrier-canadian";
lastChange = "2023-01-13 15:29:45 +0000";
layers = (
{
layerId = "9563F490-07F6-43DA-A81C-32B2684714C2";
shapes = (
{
closed = 1;
nodes = (
(308,189,l),
(322,250,l),
(219,250,l),
(282,546,l),
(218,546,l),
(155,250,l),
(53,250,l),
(39,189,l)
);
}
);
width = 372;
}
);
metricLeft = "shorthorizontalstrokeFinal-canadian";
metricRight = "shorthorizontalstrokeFinal-canadian";
note = uni15EE;
unicode = 5614;
},
{
color = 9;
glyphname = "guCarrier-canadian";
lastChange = "2023-01-13 15:29:45 +0000";
layers = (
{
anchors = (
{
name = top_center_can;
pos = (454,714);
}
);
layerId = "9563F490-07F6-43DA-A81C-32B2684714C2";
shapes = (
{
closed = 1;
nodes = (
(253,-13,o),
(311,32,o),
(349,120,c),
(314,120,l),
(320,35,o),
(368,-13,o),
(450,-13,cs),
(552,-13,o),
(612,52,o),
(639,181,cs),
(752,714,l),
(663,714,l),
(550,183,ls),
(535,109,o),
(502,72,o),
(449,72,cs),
(394,72,o),
(370,112,o),
(386,185,cs),
(498,714,l),
(411,714,l),
(299,184,ls),
(283,110,o),
(248,72,o),
(194,72,cs),
(139,72,o),
(117,111,o),
(133,186,cs),
(245,714,l),
(156,714,l),
(45,189,ls),
(18,64,o),
(66,-13,o),
(174,-13,cs)
);
}
);
width = 710;
}
);
metricRight = "=|";
note = uni15EF;
unicode = 5615;
},
{
color = 9;
glyphname = "goCarrier-canadian";
lastChange = "2023-01-13 15:29:45 +0000";
layers = (
{
layerId = "9563F490-07F6-43DA-A81C-32B2684714C2";
shapes = (
{
closed = 1;
nodes = (
(94,0,l),
(206,531,ls),
(222,605,o),
(255,642,o),
(307,642,cs),
(362,642,o),
(386,602,o),
(371,529,cs),
(258,0,l),
(345,0,l),
(457,530,ls),
(473,604,o),
(508,642,o),
(562,642,cs),
(616,642,o),
(639,603,o),
(623,528,cs),
(511,0,l),
(600,0,l),
(711,525,ls),
(738,650,o),
(690,727,o),
(582,727,cs),
(503,727,o),
(445,682,o),
(407,594,c),
(442,594,l),
(436,679,o),
(388,727,o),
(306,727,cs),
(204,727,o),
(145,662,o),
(118,533,cs),
(4,0,l)
);
}
);
width = 710;
}
);
metricLeft = "guCarrier-canadian";
metricRight = "guCarrier-canadian";
note = uni15F0;
unicode = 5616;
},
{
color = 9;
glyphname = "geCarrier-canadian";
lastChange = "2023-01-13 15:28:18 +0000";
layers = (
{
anchors = (
{
name = top_center_can;
pos = (400,714);
}
);
layerId = "9563F490-07F6-43DA-A81C-32B2684714C2";
shapes = (
{
closed = 1;
nodes = (
(282,0,ls),
(457,0,o),
(526,108,o),
(526,224,cs),
(526,295,o),
(491,349,o),
(428,368,c),
(423,336,l),
(548,362,o),
(596,457,o),
(596,549,cs),
(596,648,o),
(527,714,o),
(420,714,cs),
(161,714,l),
(145,636,l),
(403,636,ls),
(466,636,o),
(503,599,o),
(503,540,cs),
(503,462,o),
(459,395,o),
(353,395,cs),
(94,395,l),
(77,319,l),
(337,319,ls),
(401,319,o),
(436,287,o),
(436,229,cs),
(436,175,o),
(416,78,o),
(287,78,cs),
(26,78,l),
(10,0,l)
);
}
);
width = 596;
}
);
metricLeft = "nunavuth-canadian";
note = uni15F1;
unicode = 5617;
},
{
color = 9;
glyphname = "geeCarrier-canadian";
lastChange = "2023-01-13 15:28:18 +0000";
layers = (
{
layerId = "9563F490-07F6-43DA-A81C-32B2684714C2";
shapes = (
{
closed = 1;
nodes = (
(282,0,ls),
(457,0,o),
(526,108,o),
(526,224,cs),
(526,295,o),
(491,349,o),
(428,368,c),
(423,336,l),
(548,362,o),
(596,457,o),
(596,549,cs),
(596,648,o),
(527,714,o),
(420,714,cs),
(161,714,l),
(145,636,l),
(403,636,ls),
(466,636,o),
(503,599,o),
(503,540,cs),
(503,462,o),
(459,395,o),
(353,395,cs),
(322,395,l),
(340,479,l),
(284,479,l),
(266,395,l),
(94,395,l),
(77,319,l),
(250,319,l),
(232,237,l),
(288,237,l),
(306,319,l),
(337,319,ls),
(401,319,o),
(436,287,o),
(436,229,cs),
(436,175,o),
(416,78,o),
(287,78,cs),
(26,78,l),
(10,0,l)
);
}
);
width = 596;
}
);
metricLeft = "geCarrier-canadian";
metricRight = "geCarrier-canadian";
note = uni15F2;
unicode = 5618;
},
{
color = 9;
glyphname = "giCarrier-canadian";
lastChange = "2023-01-13 15:29:45 +0000";
layers = (
{
layerId = "9563F490-07F6-43DA-A81C-32B2684714C2";
shapes = (
{
closed = 1;
nodes = (
(282,0,ls),
(457,0,o),
(526,108,o),
(526,224,cs),
(526,295,o),
(492,348,o),
(428,368,c),
(424,336,l),
(548,362,o),
(596,458,o),
(596,549,cs),
(596,648,o),
(527,714,o),
(420,714,cs),
(161,714,l),
(145,636,l),
(403,636,ls),
(466,636,o),
(503,599,o),
(503,540,cs),
(503,462,o),
(459,395,o),
(353,395,cs),
(335,395,l),
(361,370,l),
(357,405,o),
(327,432,o),
(289,432,cs),
(262,432,o),
(239,417,o),
(228,395,c),
(94,395,l),
(77,319,l),
(228,319,l),
(239,297,o),
(262,282,o),
(289,282,cs),
(326,282,o),
(356,309,o),
(360,344,c),
(322,319,l),
(337,319,ls),
(401,319,o),
(436,287,o),
(436,229,cs),
(436,175,o),
(416,78,o),
(287,78,cs),
(26,78,l),
(10,0,l)
);
}
);
width = 595;
}
);
metricLeft = "geCarrier-canadian";
metricRight = "geCarrier-canadian";
note = uni15F3;
unicode = 5619;
},
{
color = 9;
glyphname = "gaCarrier-canadian";
lastChange = "2023-01-13 15:29:45 +0000";
layers = (
{
anchors = (
{
name = top_center_can;
pos = (410,714);
}
);
layerId = "9563F490-07F6-43DA-A81C-32B2684714C2";
shapes = (
{
closed = 1;
nodes = (
(481,0,l),
(498,78,l),
(239,78,ls),
(176,78,o),
(139,115,o),
(139,174,cs),
(139,252,o),
(184,319,o),
(289,319,cs),
(550,319,l),
(566,395,l),
(306,395,ls),
(241,395,o),
(206,427,o),
(206,485,cs),
(206,539,o),
(226,636,o),
(355,636,cs),
(616,636,l),
(632,714,l),
(361,714,ls),
(186,714,o),
(116,606,o),
(116,490,cs),
(116,419,o),
(151,365,o),
(214,346,c),
(219,378,l),
(95,352,o),
(46,257,o),
(46,165,cs),
(46,66,o),
(115,0,o),
(222,0,cs)
);
}
);
width = 597;
}
);
metricLeft = "=|geCarrier-canadian";
metricRight = "=|geCarrier-canadian";
note = uni15F4;
unicode = 5620;
},
{
color = 9;
glyphname = "khuCarrier-canadian";
lastChange = "2023-01-13 15:29:45 +0000";
layers = (
{
layerId = "9563F490-07F6-43DA-A81C-32B2684714C2";
shapes = (
{
closed = 1;
nodes = (
(249,-13,o),
(306,27,o),
(343,108,c),
(315,110,l),
(324,31,o),
(372,-13,o),
(450,-13,cs),
(552,-13,o),
(612,52,o),
(639,181,cs),
(752,714,l),
(156,714,l),
(45,189,ls),
(18,64,o),
(66,-13,o),
(174,-13,cs)
);
},
{
closed = 1;
nodes = (
(139,72,o),
(117,111,o),
(133,186,cs),
(228,632,l),
(394,632,l),
(299,184,ls),
(283,110,o),
(248,72,o),
(194,72,cs)
);
},
{
closed = 1;
nodes = (
(394,72,o),
(370,112,o),
(386,185,cs),
(481,632,l),
(645,632,l),
(550,183,ls),
(535,109,o),
(502,72,o),
(449,72,cs)
);
}
);
width = 710;
}
);
metricLeft = "guCarrier-canadian";
metricRight = "guCarrier-canadian";
note = uni15F5;
unicode = 5621;
},
{
color = 9;
glyphname = "khoCarrier-canadian";
lastChange = "2023-01-13 15:29:45 +0000";
layers = (
{
layerId = "9563F490-07F6-43DA-A81C-32B2684714C2";
shapes = (
{
closed = 1;
nodes = (
(600,0,l),
(711,525,ls),
(738,650,o),
(690,727,o),
(582,727,cs),
(507,727,o),
(450,687,o),
(413,606,c),
(441,604,l),
(432,683,o),
(384,727,o),
(306,727,cs),
(204,727,o),
(145,662,o),
(118,533,cs),
(4,0,l)
);
},
{
closed = 1;
nodes = (
(206,531,ls),
(221,605,o),
(254,642,o),
(307,642,cs),
(362,642,o),
(386,602,o),
(370,529,cs),
(275,82,l),
(111,82,l)
);
},
{
closed = 1;
nodes = (
(457,530,ls),
(473,604,o),
(508,642,o),
(562,642,cs),
(616,642,o),
(639,603,o),
(623,528,cs),
(528,82,l),
(362,82,l)
);
}
);
width = 710;
}
);
metricLeft = "guCarrier-canadian";
metricRight = "guCarrier-canadian";
note = uni15F6;
unicode = 5622;
},
{
color = 9;
glyphname = "kheCarrier-canadian";
lastChange = "2023-01-13 15:29:45 +0000";
layers = (
{
layerId = "9563F490-07F6-43DA-A81C-32B2684714C2";
shapes = (
{
closed = 1;
nodes = (
(285,0,ls),
(460,0,o),
(530,107,o),
(530,223,cs),
(530,294,o),
(496,346,o),
(433,367,c),
(431,337,l),
(562,366,o),
(599,468,o),
(599,549,cs),
(599,648,o),
(530,714,o),
(422,714,cs),
(160.996,714,l),
(8.996,0,l)
);
},
{
closed = 1;
nodes = (
(169,319,l),
(340,319,ls),
(405,319,o),
(440,287,o),
(440,229,cs),
(440,173,o),
(418,77,o),
(290,77,cs),
(118,77,l)
);
},
{
closed = 1;
nodes = (
(237,637,l),
(407,637,ls),
(470,637,o),
(506,599,o),
(506,540,cs),
(506,467,o),
(466.994,394.992,o),
(356,395,cs),
(186,395,l)
);
}
);
width = 599;
}
);
metricLeft = "nunavuth-canadian";
metricRight = "geCarrier-canadian";
note = uni15F7;
unicode = 5623;
},
{
color = 9;
glyphname = "kheeCarrier-canadian";
lastChange = "2023-01-13 15:29:45 +0000";
layers = (
{
layerId = "9563F490-07F6-43DA-A81C-32B2684714C2";
shapes = (
{
closed = 1;
nodes = (
(285,0,ls),
(460,0,o),
(530,107,o),
(530,223,cs),
(530,294,o),
(496,346,o),
(433,367,c),
(431,337,l),
(562,366,o),
(599,468,o),
(599,549,cs),
(599,648,o),
(530,714,o),
(422,714,cs),
(160.996,714,l),
(8.996,0,l)
);
},
{
closed = 1;
nodes = (
(169,319,l),
(277,319,l),
(258,232,l),
(311,232,l),
(333,337,l),
(305,319,l),
(340,319,ls),
(405,319,o),
(440,287,o),
(440,229,cs),
(440,173,o),
(418,77,o),
(290,77,cs),
(118,77,l)
);
},
{
closed = 1;
nodes = (
(364,484,l),
(312,484,l),
(293,395,l),
(186,395,l),
(237,637,l),
(407,637,ls),
(470,637,o),
(506,599,o),
(506,540,cs),
(506,467,o),
(467,395,o),
(356,395,cs),
(322,395,l),
(342,377,l)
);
}
);
width = 599;
}
);
metricLeft = "nunavuth-canadian";
metricRight = "geCarrier-canadian";
note = uni15F8;
unicode = 5624;
},
{
color = 9;
glyphname = "khiCarrier-canadian";
lastChange = "2023-01-13 15:29:45 +0000";
layers = (
{
layerId = "9563F490-07F6-43DA-A81C-32B2684714C2";
shapes = (
{
closed = 1;
nodes = (
(285,0,ls),
(460,0,o),
(530,107,o),
(530,223,cs),
(530,292,o),
(498,343,o),
(439,366,c),
(428,336,l),
(561,365,o),
(599,468,o),
(599,549,cs),
(599,648,o),
(530,714,o),
(422,714,cs),
(160.996,714,l),
(8.996,0,l)
);
},
{
closed = 1;
nodes = (
(170,323,l),
(250,323,l),
(260,299,o),
(285,282,o),
(313,282,cs),
(350,282,o),
(380,313,o),
(383,351,c),
(321,323,l),
(344,323,ls),
(409,323,o),
(440,290,o),
(440,231,cs),
(440,174,o),
(418,77,o),
(290,77,cs),
(118,77,l)
);
},
{
closed = 1;
nodes = (
(407,637,ls),
(470,637,o),
(506,598,o),
(506,538,cs),
(506,465,o),
(471,391,o),
(360,391,cs),
(331,391,l),
(384,363,l),
(381,402,o),
(351,432,o),
(313,432,cs),
(275,432,o),
(244,402,o),
(242,363,c),
(267,391,l),
(185,391,l),
(237,637,l)
);
}
);
width = 599;
}
);
metricLeft = "nunavuth-canadian";
metricRight = "geCarrier-canadian";
note = uni15F9;
unicode = 5625;
},
{
color = 9;
glyphname = "khaCarrier-canadian";
lastChange = "2023-01-13 15:28:18 +0000";
layers = (
{
layerId = "9563F490-07F6-43DA-A81C-32B2684714C2";
shapes = (
{
closed = 1;
nodes = (
(485,0,l),
(637,714,l),
(361,714,ls),
(186,714,o),
(116,607,o),
(116,491,cs),
(116,420,o),
(151,368,o),
(213,347,c),
(215,377,l),
(84,348,o),
(46,246,o),
(46,165,cs),
(46,66,o),
(115,0,o),
(223,0,cs)
);
},
{
closed = 1;
nodes = (
(175,77,o),
(139,115,o),
(139,174,cs),
(139,247,o),
(179,319,o),
(290,319,cs),
(461,319,l),
(409,77,l),
(238,77,ls)
);
},
{
closed = 1;
nodes = (
(242,395,o),
(207,427,o),
(207,485,cs),
(207,541,o),
(229,637,o),
(356,637,cs),
(528,637,l),
(477,395,l),
(306,395,ls)
);
}
);
width = 600;
}
);
metricLeft = "=|geCarrier-canadian";
metricRight = "nunavuth-canadian";
note = uni15FA;
unicode = 5626;
},
{
color = 9;
glyphname = "kkuCarrier-canadian";
lastChange = "2023-01-13 15:29:45 +0000";
layers = (
{
layerId = "9563F490-07F6-43DA-A81C-32B2684714C2";
shapes = (
{
closed = 1;
nodes = (
(249,-13,o),
(305,27,o),
(343,108,c),
(315,108,l),
(324,31,o),
(372,-13,o),
(450,-13,cs),
(552,-13,o),
(611,52,o),
(639,181,cs),
(752,714,l),
(721,714,l),
(445,555,l),
(427,459,l),
(673,602,l),
(645,631,l),
(550,183,ls),
(535,109,o),
(502,72,o),
(449,72,cs),
(394,72,o),
(370,114,o),
(385,185,cs),
(497,714,l),
(412,714,l),
(299,184,ls),
(284,110,o),
(248,72,o),
(194,72,cs),
(139,72,o),
(117,111,o),
(133,186,cs),
(227,631,l),
(185,618,l),
(371,472,l),
(389,557,l),
(188,714,l),
(156,714,l),
(45,189,ls),
(18,63,o),
(66,-13,o),
(174,-13,cs)
);
}
);
width = 710;
}
);
metricLeft = "guCarrier-canadian";
metricRight = "guCarrier-canadian";
note = uni15FB;
unicode = 5627;
},
{
color = 9;
glyphname = "kkoCarrier-canadian";
lastChange = "2023-01-13 15:29:45 +0000";
layers = (
{
layerId = "9563F490-07F6-43DA-A81C-32B2684714C2";
shapes = (
{
closed = 1;
nodes = (
(36,0,l),
(310,159,l),
(329,255,l),
(83,112,l),
(111,83,l),
(206,531,ls),
(222,605,o),
(254,642,o),
(307,642,cs),
(362,642,o),
(386,600,o),
(371,529,cs),
(259,0,l),
(344,0,l),
(456,530,ls),
(472,604,o),
(508,642,o),
(562,642,cs),
(616,642,o),
(639,603,o),
(623,528,cs),
(528,83,l),
(570,96,l),
(385,242,l),
(367,157,l),
(568,0,l),
(600,0,l),
(711,525,ls),
(738,651,o),
(690,727,o),
(582,727,cs),
(507,727,o),
(450,687,o),
(413,606,c),
(441,606,l),
(432,683,o),
(384,727,o),
(306,727,cs),
(204,727,o),
(145,662,o),
(118,533,cs),
(4,0,l)
);
}
);
width = 710;
}
);
metricLeft = "guCarrier-canadian";
metricRight = "guCarrier-canadian";
note = uni15FC;
unicode = 5628;
},
{
color = 9;
glyphname = "kkeCarrier-canadian";
lastChange = "2023-01-13 15:28:18 +0000";
layers = (
{
layerId = "9563F490-07F6-43DA-A81C-32B2684714C2";
shapes = (
{
closed = 1;
nodes = (
(299,0,ls),
(474,0,o),
(544,108,o),
(544,224,cs),
(544,295,o),
(510,346,o),
(447,367,c),
(444,337,l),
(575,366,o),
(613,468,o),
(613,549,cs),
(613,648,o),
(544,714,o),
(437,714,cs),
(160,714,l),
(154,688,l),
(180,395,l),
(97,395,l),
(81,319,l),
(159,319,l),
(14,26,l),
(8,0,l)
);
},
{
closed = 1;
nodes = (
(253,319,l),
(354,319,ls),
(418,319,o),
(453,287,o),
(453,229,cs),
(453,176,o),
(433,78,o),
(304,78,cs),
(94,78,l),
(115,40,l)
);
},
{
closed = 1;
nodes = (
(241,678,l),
(206,636,l),
(421,636,ls),
(484,636,o),
(520,599,o),
(520,540,cs),
(520,462,o),
(476,395,o),
(370,395,cs),
(268,395,l)
);
}
);
width = 613;
}
);
metricRight = "geCarrier-canadian";
note = uni15FD;
unicode = 5629;
},
{
color = 9;
glyphname = "kkeeCarrier-canadian";
lastChange = "2023-01-13 15:28:18 +0000";
layers = (
{
layerId = "9563F490-07F6-43DA-A81C-32B2684714C2";
shapes = (
{
closed = 1;
nodes = (
(299,0,ls),
(474,0,o),
(544,108,o),
(544,224,cs),
(544,295,o),
(510,346,o),
(447,367,c),
(444,337,l),
(575,366,o),
(613,468,o),
(613,549,cs),
(613,648,o),
(544,714,o),
(437,714,cs),
(160,714,l),
(154,688,l),
(180,395,l),
(97,395,l),
(81,319,l),
(159,319,l),
(14,26,l),
(8,0,l)
);
},
{
closed = 1;
nodes = (
(254,322,l),
(310,322,l),
(292,232,l),
(344,232,l),
(367,341,l),
(338,322,l),
(362,322,ls),
(422,322,o),
(453,287,o),
(453,229,cs),
(453,176,o),
(433,78,o),
(304,78,cs),
(94,78,l),
(115,40,l)
);
},
{
closed = 1;
nodes = (
(398,484,l),
(345,484,l),
(326,393,l),
(268,393,l),
(241,678,l),
(206,636,l),
(421,636,ls),
(484,636,o),
(520,599,o),
(520,540,cs),
(520,462,o),
(476,393,o),
(374,393,cs),
(352,393,l),
(376,378,l)
);
}
);
width = 613;
}
);
metricLeft = "kkeCarrier-canadian";
metricRight = "geCarrier-canadian";
note = uni15FE;
unicode = 5630;
},
{
color = 9;
glyphname = "kkiCarrier-canadian";
lastChange = "2023-01-13 15:28:18 +0000";
layers = (
{
layerId = "9563F490-07F6-43DA-A81C-32B2684714C2";
shapes = (
{
closed = 1;
nodes = (
(299,0,ls),
(474,0,o),
(544,108,o),
(544,224,cs),
(544,295,o),
(510,346,o),
(447,367,c),
(444,337,l),
(575,366,o),
(613,468,o),
(613,549,cs),
(613,648,o),
(544,714,o),
(437,714,cs),
(160,714,l),
(154,688,l),
(180,395,l),
(97,395,l),
(81,319,l),
(159,319,l),
(14,26,l),
(8,0,l)
);
},
{
closed = 1;
nodes = (
(256,325,l),
(274,325,l),
(284,299,o),
(308,282,o),
(337,282,cs),
(368,282,o),
(393,303,o),
(401,332,c),
(337,325,l),
(362,325,ls),
(427,325,o),
(453,287,o),
(453,229,cs),
(453,176,o),
(433,78,o),
(304,78,cs),
(94,78,l),
(115,40,l)
);
},
{
closed = 1;
nodes = (
(397,410,o),
(370,432,o),
(337,432,cs),
(308,432,o),
(284,415,o),
(274,389,c),
(269,389,l),
(241,678,l),
(206,636,l),
(421,636,ls),
(484,636,o),
(520,599,o),
(520,540,cs),
(520,462,o),
(480,389,o),
(374,389,cs),
(338,389,l),
(403,377,l)
);
}
);
width = 613;
}
);
metricLeft = "kkeCarrier-canadian";
metricRight = "geCarrier-canadian";
note = uni15FF;
unicode = 5631;
},
{
color = 9;
glyphname = "kkaCarrier-canadian";
lastChange = "2023-01-13 15:28:18 +0000";
layers = (
{
layerId = "9563F490-07F6-43DA-A81C-32B2684714C2";
shapes = (
{
closed = 1;
nodes = (
(500,0,l),
(505,26,l),
(479,319,l),
(563,319,l),
(579,395,l),
(500,395,l),
(646,688,l),
(652,714,l),
(361,714,ls),
(186,714,o),
(116,606,o),
(116,490,cs),
(116,419,o),
(150,368,o),
(213,347,c),
(215,377,l),
(84,348,o),
(46,246,o),
(46,165,cs),
(46,66,o),
(115,0,o),
(222,0,cs)
);
},
{
closed = 1;
nodes = (
(454,78,l),
(239,78,ls),
(176,78,o),
(139,115,o),
(139,174,cs),
(139,252,o),
(184,319,o),
(290,319,cs),
(391,319,l),
(418,36,l)
);
},
{
closed = 1;
nodes = (
(241,395,o),
(206,427,o),
(206,485,cs),
(206,538,o),
(226,636,o),
(355,636,cs),
(565,636,l),
(545,674,l),
(406,395,l),
(306,395,ls)
);
}
);
width = 613;
}
);
metricLeft = "=|geCarrier-canadian";
metricRight = "=|kkeCarrier-canadian";
note = uni1600;
unicode = 5632;
},
{
color = 6;
glyphname = "kkCarrier-canadian";
lastChange = "2023-01-13 15:28:18 +0000";
layers = (
{
layerId = "9563F490-07F6-43DA-A81C-32B2684714C2";
shapes = (
{
closed = 1;
nodes = (
(304,546,l),
(147,260,l),
(188,260,l),
(152,546,l),
(95,546,l),
(92,532,l),
(147,189,l),
(163,189,l),
(365,532,l),
(367,546,l)
);
}
);
width = 336;
}
);
note = uni1601;
unicode = 5633;
},
{
color = 9;
glyphname = "nuCarrier-canadian";
lastChange = "2023-01-13 15:29:45 +0000";
layers = (
{
layerId = "9563F490-07F6-43DA-A81C-32B2684714C2";
shapes = (
{
closed = 1;
nodes = (
(414,-13,o),
(508,78,o),
(544,245,cs),
(558,312,l),
(466,312,l),
(452,249,ls),
(428,132,o),
(369,74,o),
(276,73,cs),
(174,73,o),
(130,141,o),
(156,261,cs),
(252,714,l),
(159,714,l),
(63,267,ls),
(28,97,o),
(107,-13,o),
(269,-13,cs)
);
}
);
width = 597;
}
);
metricLeft = "te-canadian";
note = uni1602;
unicode = 5634;
},
{
color = 9;
glyphname = "noCarrier-canadian";
lastChange = "2023-01-13 15:29:45 +0000";
layers = (
{
layerId = "9563F490-07F6-43DA-A81C-32B2684714C2";
shapes = (
{
closed = 1;
nodes = (
(484,0,l),
(579,447,ls),
(615,617,o),
(536,727,o),
(374,727,cs),
(229,727,o),
(135,636,o),
(99,469,cs),
(85,402,l),
(177,402,l),
(191,465,ls),
(215,582,o),
(274,640,o),
(367,641,cs),
(469,641,o),
(513,573,o),
(487,453,cs),
(391,0,l)
);
}
);
width = 596;
}
);
metricLeft = "=|nuCarrier-canadian";
metricRight = "te-canadian";
note = uni1603;
unicode = 5635;
},
{
color = 9;
glyphname = "neCarrier-canadian";
lastChange = "2023-01-13 15:28:18 +0000";
layers = (
{
anchors = (
{
name = middle_center_can;
pos = (276,357);
}
);
layerId = "9563F490-07F6-43DA-A81C-32B2684714C2";
shapes = (
{
closed = 1;
nodes = (
(192,0,ls),
(468,0,o),
(571,257,o),
(571,457,cs),
(571.006,623,o),
(479,714,o),
(311,714,cs),
(140,714,l),
(122,628,l),
(295,628,ls),
(417,628,o),
(478,570,o),
(478,452,cs),
(478,321,o),
(418,86,o),
(201,86,cs),
(191,86,l),
(173,0,l)
);
}
);
width = 588;
}
);
metricRight = "theCarrier-canadian";
note = uni1604;
unicode = 5636;
},
{
color = 9;
glyphname = "naCarrier-canadian";
lastChange = "2023-01-13 15:29:45 +0000";
layers = (
{
layerId = "9563F490-07F6-43DA-A81C-32B2684714C2";
shapes = (
{
closed = 1;
nodes = (
(495,0,l),
(513,86,l),
(340,86,ls),
(218,86,o),
(157,144,o),
(157,262,cs),
(157,393,o),
(217,628,o),
(434,628,cs),
(444,628,l),
(462,714,l),
(443,714,ls),
(167,714,o),
(64,457,o),
(64,257,cs),
(64,91,o),
(156,0,o),
(324,0,cs)
);
}
);
width = 589;
}
);
metricLeft = "=|theCarrier-canadian";
metricRight = "=|neCarrier-canadian";
note = uni1607;
unicode = 5639;
},
{
color = 9;
glyphname = "muCarrier-canadian";
lastChange = "2023-01-13 15:29:45 +0000";
layers = (
{
layerId = "9563F490-07F6-43DA-A81C-32B2684714C2";
shapes = (
{
closed = 1;
nodes = (
(253,-13,o),
(311,31,o),
(349,120,c),
(314,120,l),
(320,35,o),
(368,-13,o),
(450,-13,cs),
(552,-13,o),
(611,52,o),
(639,181,cs),
(686,404,l),
(597,404,l),
(550,183,ls),
(534,109,o),
(501,72,o),
(449,72,cs),
(394,72,o),
(370,113,o),
(386,185,cs),
(432,404,l),
(345,404,l),
(299,184,ls),
(283,110,o),
(248,72,o),
(194,72,cs),
(140,72,o),
(117,111,o),
(133,186,cs),
(245,714,l),
(156,714,l),
(45,189,ls),
(18,63,o),
(66,-13,o),
(174,-13,cs)
);
}
);
width = 710;
}
);
metricLeft = "guCarrier-canadian";
metricRight = "=|";
note = uni1608;
unicode = 5640;
},
{
color = 9;
glyphname = "moCarrier-canadian";
lastChange = "2023-01-13 15:29:45 +0000";
layers = (
{
layerId = "9563F490-07F6-43DA-A81C-32B2684714C2";
shapes = (
{
closed = 1;
nodes = (
(600,0,l),
(711,525,ls),
(738,651,o),
(690,727,o),
(582,727,cs),
(503,727,o),
(445,683,o),
(407,594,c),
(442,594,l),
(436,679,o),
(388,727,o),
(306,727,cs),
(204,727,o),
(145,662,o),
(118,533,cs),
(70,310,l),
(160,310,l),
(207,531,ls),
(222,605,o),
(255,642,o),
(307,642,cs),
(362,642,o),
(386,601,o),
(370,529,cs),
(324,310,l),
(411,310,l),
(457,530,ls),
(473,604,o),
(508,642,o),
(562,642,cs),
(616,642,o),
(639,603,o),
(623,528,cs),
(511,0,l)
);
}
);
width = 710;
}
);
metricLeft = "=|muCarrier-canadian";
metricRight = "guCarrier-canadian";
note = uni1609;
unicode = 5641;
},
{
color = 9;
glyphname = "meCarrier-canadian";
lastChange = "2023-01-13 15:29:45 +0000";
layers = (
{
layerId = "9563F490-07F6-43DA-A81C-32B2684714C2";
shapes = (
{
closed = 1;
nodes = (
(282,0,ls),
(457,0,o),
(527,108,o),
(527,224,cs),
(527,295,o),
(492,349,o),
(428,368,c),
(424,336,l),
(548,362,o),
(596,457,o),
(596,549,cs),
(596,648,o),
(527,714,o),
(421,714,cs),
(140,714,l),
(124,636,l),
(404,636,ls),
(467,636,o),
(503,599,o),
(503,540,cs),
(503,462,o),
(459,395,o),
(353,395,cs),
(269,395,l),
(253,319,l),
(337,319,ls),
(401,319,o),
(436,287,o),
(436,229,cs),
(436,175,o),
(417,78,o),
(287,78,cs),
(202,78,l),
(186,0,l)
);
}
);
width = 596;
}
);
metricLeft = "neCarrier-canadian";
metricRight = "geCarrier-canadian";
note = uni160A;
unicode = 5642;
},
{
color = 9;
glyphname = "meeCarrier-canadian";
lastChange = "2023-01-13 15:29:45 +0000";
layers = (
{
layerId = "9563F490-07F6-43DA-A81C-32B2684714C2";
shapes = (
{
closed = 1;
nodes = (
(282,0,ls),
(457,0,o),
(527,108,o),
(527,224,cs),
(527,295,o),
(492,349,o),
(428,368,c),
(424,336,l),
(548,362,o),
(596,457,o),
(596,549,cs),
(596,648,o),
(527,714,o),
(421,714,cs),
(140,714,l),
(124,636,l),
(404,636,ls),
(467,636,o),
(503,599,o),
(503,540,cs),
(503,462,o),
(459,394,o),
(355,394,cs),
(325,394,l),
(344,480,l),
(287,480,l),
(235,236,l),
(292,236,l),
(310,320,l),
(340,320,ls),
(402,320,o),
(436,287,o),
(436,229,cs),
(436,175,o),
(417,78,o),
(287,78,cs),
(202,78,l),
(186,0,l)
);
}
);
width = 596;
}
);
metricLeft = "neCarrier-canadian";
metricRight = "geCarrier-canadian";
note = uni160B;
unicode = 5643;
},
{
color = 9;
glyphname = "miCarrier-canadian";
lastChange = "2023-01-13 15:29:45 +0000";
layers = (
{
layerId = "9563F490-07F6-43DA-A81C-32B2684714C2";
shapes = (
{
closed = 1;
nodes = (
(282,0,ls),
(452,0,o),
(514,99,o),
(525,203,cs),
(533,284,o),
(498,345,o),
(428,368,c),
(424,336,l),
(541,360,o),
(586,445,o),
(594,528,cs),
(606,637,o),
(537,714,o),
(421,714,cs),
(140,714,l),
(124,636,l),
(404,636,ls),
(469,636,o),
(506,596,o),
(502,532,cs),
(499,456,o),
(455,394,o),
(353,394,cs),
(317,394,l),
(367,367,l),
(363,404,o),
(333,432,o),
(295,432,cs),
(254,432,o),
(222,398,o),
(222,357,cs),
(222,316,o),
(254,282,o),
(295,282,cs),
(333,282,o),
(362,311,o),
(367,347,c),
(316,320,l),
(338,320,ls),
(405,320,o),
(440,285,o),
(436,221,cs),
(432,163,o),
(407,78,o),
(287,78,cs),
(202,78,l),
(186,0,l)
);
}
);
width = 594;
}
);
metricLeft = "neCarrier-canadian";
metricRight = "geCarrier-canadian";
note = uni160C;
unicode = 5644;
},
{
color = 9;
glyphname = "maCarrier-canadian";
lastChange = "2023-01-13 15:28:18 +0000";
layers = (
{
layerId = "9563F490-07F6-43DA-A81C-32B2684714C2";
shapes = (
{
closed = 1;
nodes = (
(503,0,l),
(520,78,l),
(239,78,ls),
(176,78,o),
(139,115,o),
(139,174,cs),
(139,252,o),
(184,319,o),
(289,319,cs),
(373,319,l),
(390,395,l),
(306,395,ls),
(241,395,o),
(206,427,o),
(206,485,cs),
(206,539,o),
(226,636,o),
(355,636,cs),
(441,636,l),
(457,714,l),
(361,714,ls),
(186,714,o),
(116,606,o),
(116,490,cs),
(116,419,o),
(151,365,o),
(214,346,c),
(219,378,l),
(95,352,o),
(46,257,o),
(46,165,cs),
(46,66,o),
(115,0,o),
(222,0,cs)
);
}
);
width = 597;
}
);
metricLeft = "=|geCarrier-canadian";
metricRight = "=|neCarrier-canadian";
note = uni160D;
unicode = 5645;
},
{
color = 9;
glyphname = "yuCarrier-canadian";
lastChange = "2023-01-13 15:28:18 +0000";
layers = (
{
layerId = "9563F490-07F6-43DA-A81C-32B2684714C2";
shapes = (
{
closed = 1;
nodes = (
(445,-13,o),
(555,110,o),
(611,374,cs),
(659,603,o),
(624,727,o),
(502,727,cs),
(363,727,o),
(314,556,o),
(314,460,cs),
(314,374,o),
(357,318,o),
(427,318,cs),
(441,318,o),
(453,320,o),
(462,325,c),
(477,398,l),
(469,395,o),
(461,393,o),
(452,393,cs),
(414,393,o),
(394,420,o),
(394,468,cs),
(394,519,o),
(419,652,o),
(491,652,cs),
(555,652,o),
(564,571,o),
(529,400,cs),
(480,169,o),
(408,74,o),
(278,74,cs),
(170,74,o),
(129,138,o),
(155,260,cs),
(251,714,l),
(158,714,l),
(63,267,ls),
(27,96,o),
(105,-13,o),
(270,-13,cs)
);
}
);
width = 643;
}
);
metricLeft = "te-canadian";
metricRight = "te-canadian";
note = uni160E;
unicode = 5646;
},
{
color = 9;
glyphname = "yoCarrier-canadian";
lastChange = "2023-01-13 15:29:45 +0000";
layers = (
{
layerId = "9563F490-07F6-43DA-A81C-32B2684714C2";
shapes = (
{
closed = 1;
nodes = (
(327,-13,o),
(376,158,o),
(376,254,cs),
(376,340,o),
(334,396,o),
(264,396,cs),
(250,396,o),
(237,394,o),
(228,389,c),
(213,316,l),
(222,319,o),
(230,321,o),
(239,321,cs),
(276,321,o),
(296,294,o),
(296,246,cs),
(296,195,o),
(271,62,o),
(199,62,cs),
(136,62,o),
(126,143,o),
(162,314,cs),
(210,545,o),
(282,640,o),
(413,640,cs),
(521,640,o),
(562,576,o),
(536,454,cs),
(439,0,l),
(533,0,l),
(628,447,ls),
(663,618,o),
(585,727,o),
(420,727,cs),
(245,727,o),
(135,604,o),
(79,340,cs),
(31,111,o),
(66,-13,o),
(188,-13,cs)
);
}
);
width = 645;
}
);
metricLeft = "te-canadian";
metricRight = "te-canadian";
note = uni160F;
unicode = 5647;
},
{
color = 9;
glyphname = "yeCarrier-canadian";
lastChange = "2023-01-13 15:28:18 +0000";
layers = (
{
layerId = "9563F490-07F6-43DA-A81C-32B2684714C2";
shapes = (
{
closed = 1;
nodes = (
(472,-13,o),
(564,276,o),
(564,445,cs),
(564,622,o),
(474,714,o),
(307,714,cs),
(157,714,l),
(139,628,l),
(293,628,ls),
(410,628,o),
(470,566,o),
(470,438,cs),
(470,316,o),
(416,67,o),
(239,67,cs),
(160,67,o),
(116,110,o),
(116,187,cs),
(116,240,o),
(139,346,o),
(211,346,cs),
(247,346,o),
(265,321,o),
(265,273,cs),
(265,237,o),
(255,198,o),
(243,162,c),
(313,162,l),
(328,202,o),
(339,247,o),
(339,287,cs),
(339,370,o),
(293,422,o),
(216,422,cs),
(87,422,o),
(36,275,o),
(36,177,cs),
(36,61,o),
(111,-13,o),
(235,-13,cs)
);
}
);
width = 583;
}
);
metricRight = "theCarrier-canadian";
note = uni1610;
unicode = 5648;
},
{
color = 9;
glyphname = "yeeCarrier-canadian";
lastChange = "2023-01-13 15:28:18 +0000";
layers = (
{
layerId = "9563F490-07F6-43DA-A81C-32B2684714C2";
shapes = (
{
closed = 1;
nodes = (
(473,-13,o),
(565,281,o),
(565,451,cs),
(565,622,o),
(473,714,o),
(309,714,cs),
(157,714,l),
(139,628,l),
(293,628,ls),
(410,628,o),
(470,566,o),
(470,443,cs),
(470,321,o),
(416,67,o),
(239,67,cs),
(160,67,o),
(116,109,o),
(116,187,cs),
(116,238,o),
(140,346,o),
(209,346,cs),
(251,346,o),
(267,306,o),
(253,240,cs),
(241,185,l),
(298,185,l),
(368,515,l),
(312,515,l),
(269,314,l),
(281,314,l),
(289,379,o),
(255,422,o),
(197,422,cs),
(84,422,o),
(37,274,o),
(37,182,cs),
(37,63,o),
(110,-13,o),
(239,-13,cs)
);
}
);
width = 583;
}
);
metricRight = "theCarrier-canadian";
metricWidth = "yeCarrier-canadian";
note = uni1611;
unicode = 5649;
},
{
color = 9;
glyphname = "yiCarrier-canadian";
lastChange = "2023-01-13 15:28:18 +0000";
layers = (
{
layerId = "9563F490-07F6-43DA-A81C-32B2684714C2";
shapes = (
{
closed = 1;
nodes = (
(474,-13,o),
(565,279,o),
(565,451,cs),
(565,622,o),
(474,714,o),
(309,714,cs),
(157,714,l),
(139,628,l),
(293,628,ls),
(410,628,o),
(470,566,o),
(470,443,cs),
(470,318,o),
(416,67,o),
(239,67,cs),
(158,67,o),
(115,111,o),
(115,185,cs),
(115,251,o),
(141,333,o),
(220,330,c),
(198,356,l),
(199,317,o),
(232,288,o),
(270,288,cs),
(310,288,o),
(341,319,o),
(341,358,cs),
(341,396,o),
(310,427,o),
(270,427,cs),
(242,427,o),
(219,412,o),
(207,390,c),
(91,385,o),
(35,274,o),
(35,174,cs),
(35,61,o),
(112,-13,o),
(234,-13,cs)
);
}
);
width = 583;
}
);
metricRight = "theCarrier-canadian";
metricWidth = "yeCarrier-canadian";
note = uni1612;
unicode = 5650;
},
{
color = 9;
glyphname = "yaCarrier-canadian";
lastChange = "2023-01-13 15:28:18 +0000";
layers = (
{
layerId = "9563F490-07F6-43DA-A81C-32B2684714C2";
shapes = (
{
closed = 1;
nodes = (
(473,0,l),
(491,86,l),
(337,86,ls),
(220,86,o),
(160,148,o),
(160,276,cs),
(160,398,o),
(214,647,o),
(391,647,cs),
(470,647,o),
(514,604,o),
(514,527,cs),
(514,474,o),
(491,368,o),
(418,368,cs),
(383,368,o),
(365,393,o),
(365,441,cs),
(365,479,o),
(374,516,o),
(387,552,c),
(316,552,l),
(302,512,o),
(291,467,o),
(291,427,cs),
(291,344,o),
(336,292,o),
(414,292,cs),
(542,292,o),
(594,439,o),
(594,537,cs),
(594,653,o),
(519,727,o),
(395,727,cs),
(158,727,o),
(65,438,o),
(65,269,cs),
(65,92,o),
(155,0,o),
(323,0,cs)
);
}
);
width = 583;
}
);
metricLeft = "=|theCarrier-canadian";
metricRight = "=|yeCarrier-canadian";
note = uni1613;
unicode = 5651;
},
{
color = 9;
glyphname = "juCarrier-canadian";
lastChange = "2023-01-13 15:28:18 +0000";
layers = (
{
layerId = "9563F490-07F6-43DA-A81C-32B2684714C2";
shapes = (
{
closed = 1;
nodes = (
(469,-13,o),
(547,137,o),
(547,266,cs),
(547,360,o),
(498,422,o),
(417,422,cs),
(321,422,o),
(271,340,o),
(257,236,cs),
(253,208,o),
(252,180,o),
(253,162,c),
(323,162,l),
(323,179,o),
(323,205,o),
(330,239,cs),
(344,305,o),
(371,346,o),
(413,346,cs),
(449,346,o),
(469,316,o),
(469,265,cs),
(469,181,o),
(427,67,o),
(301,67,cs),
(205,67,o),
(155,125,o),
(155,230,cs),
(155,380,o),
(246,628,o),
(537,628,cs),
(619,628,l),
(638,714,l),
(149,714,l),
(131,631,l),
(388,631,l),
(449,663,l),
(196,655,o),
(63,441,o),
(63,231,cs),
(63,81,o),
(149,-13,o),
(293,-13,cs)
);
}
);
width = 594;
}
);
metricRight = "=|yeCarrier-canadian";
note = uni1614;
unicode = 5652;
},
{
color = 9;
glyphname = "juSayisi-canadian";
lastChange = "2023-01-13 15:29:45 +0000";
layers = (
{
anchors = (
{
name = top_center_can;
pos = (414,714);
}
);
layerId = "9563F490-07F6-43DA-A81C-32B2684714C2";
shapes = (
{
closed = 1;
nodes = (
(440,-13,o),
(538,189,o),
(554,362,cs),
(570,544,o),
(479,659,o),
(300,669,c),
(366,631,l),
(625,631,l),
(642,714,l),
(153,714,l),
(135,628,l),
(212,628,ls),
(397,628,o),
(478,542,o),
(463,373,cs),
(454,249,o),
(402,67,o),
(245,67,cs),
(156,67,o),
(109,116,o),
(115,201,cs),
(118,256,o),
(144,346,o),
(206,346,cs),
(244,346,o),
(260,317,o),
(257,263,cs),
(257,233,o),
(248,191,o),
(237,162,c),
(307,162,l),
(320,198,o),
(329,235,o),
(331,272,cs),
(339,364,o),
(295,422,o),
(212,422,cs),
(102,422,o),
(47,304,o),
(37,207,cs),
(24,76,o),
(104,-13,o),
(243,-13,cs)
);
}
);
width = 592;
}
);
metricLeft = "yeCarrier-canadian";
metricRight = "=|juCarrier-canadian";
note = uni1615;
unicode = 5653;
},
{
color = 9;
glyphname = "joCarrier-canadian";
lastChange = "2023-01-13 15:28:18 +0000";
layers = (
{
layerId = "9563F490-07F6-43DA-A81C-32B2684714C2";
shapes = (
{
closed = 1;
nodes = (
(492,0,l),
(510,83,l),
(253,83,l),
(192,51,l),
(445,59,o),
(578,273,o),
(578,483,cs),
(578,633,o),
(492,727,o),
(348,727,cs),
(172,727,o),
(94,577,o),
(94,448,cs),
(94,354,o),
(143,292,o),
(224,292,cs),
(320,292,o),
(370,374,o),
(384,478,cs),
(388,506,o),
(389,534,o),
(388,552,c),
(318,552,l),
(318,535,o),
(318,509,o),
(311,475,cs),
(297,409,o),
(270,368,o),
(228,368,cs),
(192,368,o),
(172,398,o),
(172,449,cs),
(172,533,o),
(214,647,o),
(340,647,cs),
(436,647,o),
(486,589,o),
(486,484,cs),
(486,334,o),
(395,86,o),
(104,86,cs),
(22,86,l),
(3,0,l)
);
}
);
width = 594;
}
);
metricLeft = "yeCarrier-canadian";
metricRight = "=|juCarrier-canadian";
note = uni1616;
unicode = 5654;
},
{
color = 9;
glyphname = "jeCarrier-canadian";
lastChange = "2023-01-13 15:28:18 +0000";
layers = (
{
layerId = "9563F490-07F6-43DA-A81C-32B2684714C2";
shapes = (
{
closed = 1;
nodes = (
(562,-13,o),
(614,325,o),
(614,470,cs),
(614,631,o),
(551,727,o),
(430,727,cs),
(316,727,o),
(234,644,o),
(184,477,c),
(203,476,l),
(254,714,l),
(160.996,714,l),
(8.996,0,l),
(102,0,l),
(169,313,ls),
(215,533,o),
(293,641,o),
(405,641,cs),
(488,641,o),
(526,584,o),
(526,467,cs),
(526,378,o),
(490,62,o),
(382,62,cs),
(345,62,o),
(326,88,o),
(326,136,cs),
(326,197,o),
(354,321,o),
(437,321,cs),
(448,321,o),
(458,319,o),
(464,316,c),
(477,389,l),
(465,394,o),
(449,396,o),
(432,396,cs),
(297,396,o),
(248,231,o),
(248,133,cs),
(248,42,o),
(294,-13,o),
(375,-13,cs)
);
}
);
width = 646;
}
);
metricLeft = "nunavuth-canadian";
metricRight = "te-canadian";
note = uni1617;
unicode = 5655;
},
{
color = 9;
glyphname = "jeeCarrier-canadian";
lastChange = "2023-01-13 15:28:18 +0000";
layers = (
{
layerId = "9563F490-07F6-43DA-A81C-32B2684714C2";
shapes = (
{
closed = 1;
nodes = (
(562,-13,o),
(614,327,o),
(614,469,cs),
(614,631,o),
(551,727,o),
(430,727,cs),
(316,727,o),
(234,644,o),
(184,477,c),
(203,476,l),
(254,714,l),
(160.996,714,l),
(8.996,0,l),
(102,0,l),
(167,305,ls),
(216,535,o),
(291,641,o),
(404,641,cs),
(488,641,o),
(526,583,o),
(526,466,cs),
(526,349,o),
(488,62,o),
(368,62,cs),
(321,62,o),
(296,94,o),
(296,150,cs),
(296,207,o),
(320,309,o),
(387,330,c),
(369,244,l),
(417,244,l),
(463,464,l),
(416,464,l),
(398,382,l),
(287,360,o),
(247,215,o),
(247,131,cs),
(247,41,o),
(294,-13,o),
(375,-13,cs)
);
}
);
width = 646;
}
);
metricLeft = "nunavuth-canadian";
metricRight = "jeCarrier-canadian";
note = uni1618;
unicode = 5656;
},
{
color = 9;
glyphname = "jiCarrier-canadian";
lastChange = "2023-01-13 15:28:18 +0000";
layers = (
{
layerId = "9563F490-07F6-43DA-A81C-32B2684714C2";
shapes = (
{
closed = 1;
nodes = (
(562,-13,o),
(614,327,o),
(614,469,cs),
(614,631,o),
(551,727,o),
(430,727,cs),
(316,727,o),
(234,644,o),
(184,477,c),
(203,476,l),
(254,714,l),
(160.996,714,l),
(8.996,0,l),
(102,0,l),
(167,305,ls),
(216,535,o),
(291,641,o),
(404,641,cs),
(488,641,o),
(526,583,o),
(526,466,cs),
(526,349,o),
(488,62,o),
(368,62,cs),
(321,62,o),
(296,94,o),
(296,150,cs),
(296,198,o),
(313,278,o),
(361,309,c),
(370,295,o),
(386,285,o),
(405,285,cs),
(442,285,o),
(470,315,o),
(470,354,cs),
(470,392,o),
(442,422,o),
(405,422,cs),
(366,422,o),
(338,386,o),
(342,349,c),
(272,305,o),
(247,198,o),
(247,131,cs),
(247,41,o),
(294,-13,o),
(375,-13,cs)
);
}
);
width = 646;
}
);
metricLeft = "nunavuth-canadian";
metricRight = "jeCarrier-canadian";
note = uni1619;
unicode = 5657;
},
{
color = 9;
glyphname = "jiSayisi-canadian";
lastChange = "2023-01-13 15:29:45 +0000";
layers = (
{
layerId = "9563F490-07F6-43DA-A81C-32B2684714C2";
shapes = (
{
closed = 1;
nodes = (
(540,-13,o),
(634,362,o),
(634,539,cs),
(634,665,o),
(589,727,o),
(502,727,cs),
(362,727,o),
(318,552,o),
(318,460,cs),
(318,367,o),
(365,318,o),
(427,318,cs),
(444,318,o),
(455,320,o),
(464,325,c),
(481,398,l),
(473,395,o),
(465,393,o),
(454,393,cs),
(419,394,o),
(396,416,o),
(396,470,cs),
(396,511,o),
(419,652,o),
(495,652,cs),
(533,652,o),
(550,622,o),
(550,551,cs),
(550,434,o),
(486,73,o),
(299,73,cs),
(147,73,o),
(159,266,o),
(188,404,cs),
(254,714,l),
(160.996,714,l),
(8.996,0,l),
(102,0,l),
(165,300,l),
(144,306,l),
(112,153,o),
(145,-13,o),
(306,-13,cs)
);
}
);
width = 647;
}
);
metricLeft = "nunavuth-canadian";
metricRight = "jeCarrier-canadian";
note = uni161A;
unicode = 5658;
},
{
color = 9;
glyphname = "jaCarrier-canadian";
lastChange = "2023-01-13 15:29:45 +0000";
layers = (
{
anchors = (
{
name = top_center_can;
pos = (415,714);
}
);
layerId = "9563F490-07F6-43DA-A81C-32B2684714C2";
shapes = (
{
closed = 1;
nodes = (
(377,-13,o),
(459,70,o),
(508,237,c),
(489,238,l),
(439,0,l),
(532,0,l),
(684,714,l),
(590,714,l),
(524,402,ls),
(478,182,o),
(400,73,o),
(287,73,cs),
(204,73,o),
(166,131,o),
(166,247,cs),
(166,336,o),
(203,652,o),
(311,652,cs),
(347,652,o),
(366,627,o),
(366,579,cs),
(366,518,o),
(339,394,o),
(256,394,cs),
(245,394,o),
(235,395,o),
(229,398,c),
(216,325,l),
(228,321,o),
(243,318,o),
(260,318,cs),
(396,318,o),
(445,483,o),
(445,581,cs),
(445,673,o),
(399,728,o),
(318,728,cs),
(131,728,o),
(78,390,o),
(78,244,cs),
(78,83,o),
(142,-13,o),
(263,-13,cs)
);
}
);
width = 647;
}
);
metricLeft = "=|jeCarrier-canadian";
metricRight = "nunavuth-canadian";
note = uni161B;
unicode = 5659;
},
{
color = 9;
glyphname = "jjuCarrier-canadian";
lastChange = "2023-01-13 15:29:45 +0000";
layers = (
{
layerId = "9563F490-07F6-43DA-A81C-32B2684714C2";
shapes = (
{
closed = 1;
nodes = (
(456,-13,o),
(542,135,o),
(542,270,cs),
(542,362,o),
(494,422,o),
(414,422,cs),
(333,422,o),
(280,362,o),
(254,251,cs),
(247,221,o),
(244,186,o),
(244,162,c),
(314,162,l),
(315,177,o),
(317,204,o),
(324,237,cs),
(340,308,o),
(368,346,o),
(408,346,cs),
(444,346,o),
(464,316,o),
(464,267,cs),
(464,184,o),
(421,65,o),
(295,65,cs),
(205,65,o),
(157,124,o),
(157,233,cs),
(157,412,o),
(251,628,o),
(500,628,cs),
(612,628,l),
(630,714,l),
(516,714,ls),
(411,714,o),
(325,685,o),
(257,638,c),
(188,727,l),
(113,669,l),
(185,577,l),
(99,484,o),
(66,348,o),
(66,238,cs),
(66,85,o),
(148,-13,o),
(287,-13,cs)
);
}
);
width = 588;
}
);
metricRight = "=|yeCarrier-canadian";
note = uni161C;
unicode = 5660;
},
{
color = 9;
glyphname = "jjoCarrier-canadian";
lastChange = "2023-01-13 15:29:45 +0000";
layers = (
{
layerId = "9563F490-07F6-43DA-A81C-32B2684714C2";
shapes = (
{
closed = 1;
nodes = (
(522,45,l),
(450,137,l),
(537,230,o),
(570,366,o),
(570,476,cs),
(570,629,o),
(487,727,o),
(348,727,cs),
(179,727,o),
(93,579,o),
(93,444,cs),
(93,352,o),
(142,292,o),
(222,292,cs),
(303,292,o),
(356,352,o),
(381,463,cs),
(388,493,o),
(392,528,o),
(392,552,c),
(322,552,l),
(321,537,o),
(318,510,o),
(312,477,cs),
(296,406,o),
(268,368,o),
(228,368,cs),
(191,368,o),
(172,398,o),
(172,447,cs),
(172,530,o),
(215,649,o),
(341,649,cs),
(431,649,o),
(479,590,o),
(479,481,cs),
(479,302,o),
(384,86,o),
(135,86,cs),
(23,86,l),
(5,0,l),
(120,0,ls),
(224,0,o),
(310,29,o),
(378,76,c),
(447,-13,l)
);
}
);
width = 588;
}
);
metricLeft = "yeCarrier-canadian";
metricRight = "=|jjuCarrier-canadian";
note = uni161D;
unicode = 5661;
},
{
color = 9;
glyphname = "jjeCarrier-canadian";
lastChange = "2023-01-13 15:28:18 +0000";
layers = (
{
layerId = "9563F490-07F6-43DA-A81C-32B2684714C2";
shapes = (
{
closed = 1;
nodes = (
(568,-13,o),
(619,325,o),
(619,469,cs),
(619,640,o),
(543,727,o),
(404,727,cs),
(342,727,o),
(280,707,o),
(229,661,c),
(173,727,l),
(104,663,l),
(168,588,l),
(141,546,o),
(119,492,o),
(104,424,cs),
(14,0,l),
(107,0,l),
(197,422,ls),
(228,567,o),
(296,641,o),
(398,641,cs),
(488,641,o),
(531,587,o),
(531,467,cs),
(531,380,o),
(495,62,o),
(386,62,cs),
(350,62,o),
(331,88,o),
(331,136,cs),
(331,197,o),
(358,321,o),
(441,321,cs),
(452,321,o),
(462,319,o),
(468,316,c),
(482,389,l),
(470,394,o),
(454,396,o),
(437,396,cs),
(302,396,o),
(253,231,o),
(253,133,cs),
(253,42,o),
(298,-13,o),
(380,-13,cs)
);
}
);
width = 651;
}
);
metricRight = "jeCarrier-canadian";
note = uni161E;
unicode = 5662;
},
{
color = 9;
glyphname = "jjeeCarrier-canadian";
lastChange = "2023-01-13 15:28:18 +0000";
layers = (
{
layerId = "9563F490-07F6-43DA-A81C-32B2684714C2";
shapes = (
{
closed = 1;
nodes = (
(568,-13,o),
(619,325,o),
(619,469,cs),
(619,640,o),
(543,727,o),
(404,727,cs),
(342,727,o),
(280,707,o),
(229,661,c),
(173,727,l),
(104,663,l),
(168,588,l),
(141,546,o),
(119,492,o),
(104,424,cs),
(14,0,l),
(107,0,l),
(197,422,ls),
(228,567,o),
(296,641,o),
(398,641,cs),
(488,641,o),
(531,587,o),
(531,467,cs),
(531,370,o),
(497,62,o),
(375,62,cs),
(329,62,o),
(301,92,o),
(301,152,cs),
(301,218,o),
(326,314,o),
(392,331,c),
(374,244,l),
(421,244,l),
(468,464,l),
(420,464,l),
(403,382,l),
(294,360,o),
(253,222,o),
(253,133,cs),
(253,42,o),
(298,-13,o),
(380,-13,cs)
);
}
);
width = 651;
}
);
metricLeft = "jjeCarrier-canadian";
metricRight = "jeCarrier-canadian";
note = uni161F;
unicode = 5663;
},
{
color = 9;
glyphname = "jjiCarrier-canadian";
lastChange = "2023-01-13 15:29:45 +0000";
layers = (
{
layerId = "9563F490-07F6-43DA-A81C-32B2684714C2";
shapes = (
{
closed = 1;
nodes = (
(490,-13,o),
(559,92,o),
(601,294,cs),
(658,568,o),
(585,727,o),
(404,727,cs),
(335,727,o),
(276,705,o),
(229,662,c),
(173,727,l),
(104,663,l),
(168,590,l),
(140,546,o),
(118,490,o),
(104,424,cs),
(14,0,l),
(107,0,l),
(197,422,ls),
(228,567,o),
(295,641,o),
(398,641,cs),
(522,641,o),
(561,528,o),
(514,300,cs),
(479,137,o),
(442,62,o),
(372,62,cs),
(312,62,o),
(289,117,o),
(309,211,cs),
(319,261,o),
(337,294,o),
(365,309,c),
(374,295,o),
(391,285,o),
(410,285,cs),
(447,285,o),
(475,316,o),
(475,354,cs),
(475,392,o),
(447,422,o),
(410,422,cs),
(365,422,o),
(344,380,o),
(347,348,c),
(304,322,o),
(275,271,o),
(261,202,cs),
(233,69,o),
(281,-13,o),
(380,-13,cs)
);
}
);
width = 650;
}
);
metricLeft = "jjeCarrier-canadian";
metricRight = "jeCarrier-canadian";
note = uni1620;
unicode = 5664;
},
{
color = 9;
glyphname = "jjaCarrier-canadian";
lastChange = "2023-01-13 15:29:45 +0000";
layers = (
{
layerId = "9563F490-07F6-43DA-A81C-32B2684714C2";
shapes = (
{
closed = 1;
nodes = (
(356,-13,o),
(418,7,o),
(469,53,c),
(525,-13,l),
(594,51,l),
(530,126,l),
(557,168,o),
(579,222,o),
(594,290,cs),
(684,714,l),
(591,714,l),
(501,292,ls),
(470,147,o),
(402,73,o),
(300,73,cs),
(210,73,o),
(167,127,o),
(167,247,cs),
(167,334,o),
(204,652,o),
(312,652,cs),
(348,652,o),
(367,626,o),
(367,578,cs),
(367,517,o),
(340,393,o),
(257,393,cs),
(246,393,o),
(236,395,o),
(230,398,c),
(216,325,l),
(228,320,o),
(244,318,o),
(261,318,cs),
(396,318,o),
(445,483,o),
(445,581,cs),
(445,672,o),
(400,727,o),
(318,727,cs),
(130,727,o),
(78,389,o),
(78,245,cs),
(78,74,o),
(155,-13,o),
(294,-13,cs)
);
}
);
width = 652;
}
);
metricLeft = "=|jeCarrier-canadian";
metricRight = "=|jjeCarrier-canadian";
note = uni1621;
unicode = 5665;
},
{
color = 9;
glyphname = "luCarrier-canadian";
lastChange = "2023-01-13 15:29:45 +0000";
layers = (
{
layerId = "9563F490-07F6-43DA-A81C-32B2684714C2";
shapes = (
{
closed = 1;
nodes = (
(418,-13,o),
(502,67,o),
(538,236,cs),
(640,714,l),
(547,714,l),
(447,245,ls),
(421,127,o),
(370,73,o),
(284,73,cs),
(199,73,o),
(156,127,o),
(156,228,cs),
(156,350,o),
(216,616,o),
(404,639,c),
(420,714,l),
(148,714,l),
(131,636,l),
(300,636,l),
(368,664,l),
(159,654,o),
(61,395,o),
(61,223,cs),
(61,76,o),
(139,-13,o),
(281,-13,cs)
);
}
);
width = 600;
}
);
metricRight = "te-canadian";
note = uni1622;
unicode = 5666;
},
{
color = 9;
glyphname = "loCarrier-canadian";
lastChange = "2023-01-13 15:29:45 +0000";
layers = (
{
layerId = "9563F490-07F6-43DA-A81C-32B2684714C2";
shapes = (
{
closed = 1;
nodes = (
(100,0,l),
(200,469,ls),
(225,587,o),
(277,641,o),
(363,641,cs),
(448,641,o),
(491,587,o),
(491,486,cs),
(491,364,o),
(431,98,o),
(243,75,c),
(227,0,l),
(499,0,l),
(515,78,l),
(346,78,l),
(279,50,l),
(488,60,o),
(586,319,o),
(586,491,cs),
(586,638,o),
(508,727,o),
(366,727,cs),
(228,727,o),
(144,647,o),
(108,478,cs),
(7,0,l)
);
}
);
width = 600;
}
);
metricLeft = "te-canadian";
metricRight = "=|luCarrier-canadian";
note = uni1623;
unicode = 5667;
},
{
color = 9;
glyphname = "leCarrier-canadian";
lastChange = "2023-01-13 15:28:18 +0000";
layers = (
{
anchors = (
{
name = middle_center_can;
pos = (311,357);
}
);
layerId = "9563F490-07F6-43DA-A81C-32B2684714C2";
shapes = (
{
closed = 1;
nodes = (
(188,0,ls),
(496,0,o),
(569,291,o),
(569,471,cs),
(569,629,o),
(505,727,o),
(397,727,cs),
(311,727,o),
(238,663,o),
(195,547,c),
(206,547,l),
(241,714,l),
(158,714,l),
(90,396,l),
(169,396,l),
(204,549,o),
(277,641,o),
(364,641,cs),
(437,641,o),
(475,577,o),
(475,462,cs),
(475,327,o),
(421,86,o),
(190,86,cs),
(24,86,l),
(6,0,l)
);
}
);
width = 585;
}
);
metricRight = "theCarrier-canadian";
note = uni1624;
unicode = 5668;
},
{
color = 9;
glyphname = "laCarrier-canadian";
lastChange = "2023-01-13 15:28:18 +0000";
layers = (
{
layerId = "9563F490-07F6-43DA-A81C-32B2684714C2";
shapes = (
{
closed = 1;
nodes = (
(474,0,l),
(493,86,l),
(342,86,ls),
(218,86,o),
(156,143,o),
(156,261,cs),
(156,380,o),
(218,641,o),
(372,641,cs),
(464,641,o),
(505,545,o),
(480,396,c),
(559,396,l),
(626,714,l),
(542,714,l),
(503,529,l),
(512,525,l),
(518,652,o),
(462,727,o),
(366,727,cs),
(155,727,o),
(63,422,o),
(63,257,cs),
(63,91,o),
(154,0,o),
(326,0,cs)
);
}
);
width = 585;
}
);
metricLeft = "=|theCarrier-canadian";
metricRight = "=|leCarrier-canadian";
note = uni1627;
unicode = 5671;
},
{
color = 1;
glyphname = "dluCarrier-canadian";
lastChange = "2023-01-13 15:29:45 +0000";
layers = (
{
layerId = "9563F490-07F6-43DA-A81C-32B2684714C2";
shapes = (
{
closed = 1;
nodes = (
(509,-13,o),
(570,308,o),
(570,433,cs),
(570,562,o),
(514,640,o),
(405,664,c),
(421,642,l),
(621,642,l),
(603,558,l),
(671,558,l),
(723,798,l),
(654,798,l),
(636,714,l),
(378,714,l),
(362,638,l),
(447,619,o),
(483,560,o),
(483,456,cs),
(483,368,o),
(442,73,o),
(261,73,cs),
(166,73,o),
(131,142,o),
(159,275,cs),
(252,714,l),
(159,714,l),
(67,284,ls),
(27,93,o),
(96,-13,o),
(253,-13,cs)
);
}
);
width = 640;
}
);
metricLeft = "te-canadian";
note = uni1628;
unicode = 5672;
},
{
color = 9;
glyphname = "dloCarrier-canadian";
lastChange = "2023-01-13 15:29:45 +0000";
layers = (
{
layerId = "9563F490-07F6-43DA-A81C-32B2684714C2";
shapes = (
{
closed = 1;
nodes = (
(536,-84,l),
(587,156,l),
(518,156,l),
(499,72,l),
(338,72,l),
(285,55,l),
(468,65,o),
(586,292,o),
(586,491,cs),
(586,638,o),
(508,727,o),
(366,727,cs),
(228,727,o),
(144,647,o),
(108,478,cs),
(7,0,l),
(100,0,l),
(200,469,ls),
(225,587,o),
(277,641,o),
(363,641,cs),
(448,641,o),
(491,587,o),
(491,486,cs),
(491,364,o),
(431,98,o),
(243,75,c),
(227,0,l),
(485,0,l),
(467,-84,l)
);
}
);
width = 640;
}
);
metricLeft = "te-canadian";
metricRight = "dluCarrier-canadian";
note = uni1629;
unicode = 5673;
},
{
color = 9;
glyphname = "dleCarrier-canadian";
lastChange = "2023-01-13 15:28:18 +0000";
layers = (
{
anchors = (
{
name = middle_center_can;
pos = (325,357);
}
);
layerId = "9563F490-07F6-43DA-A81C-32B2684714C2";
shapes = (
{
closed = 1;
nodes = (
(201,0,ls),
(509,0,o),
(582,291,o),
(582,471,cs),
(582,629,o),
(518,727,o),
(410,727,cs),
(322,727,o),
(238,658,o),
(194,533,c),
(201,533,l),
(241,726,l),
(308,726,l),
(322,793,l),
(122,793,l),
(108,726,l),
(174,726,l),
(103,396,l),
(182,396,l),
(217,549,o),
(290,641,o),
(377,641,cs),
(450,641,o),
(488,577,o),
(488,462,cs),
(488,327,o),
(434,86,o),
(203,86,cs),
(37,86,l),
(19,0,l)
);
}
);
width = 598;
}
);
metricRight = "theCarrier-canadian";
note = uni162A;
unicode = 5674;
},
{
color = 9;
glyphname = "dlaCarrier-canadian";
lastChange = "2023-01-13 15:28:18 +0000";
layers = (
{
layerId = "9563F490-07F6-43DA-A81C-32B2684714C2";
shapes = (
{
closed = 1;
nodes = (
(474,0,l),
(493,86,l),
(342,86,ls),
(218,86,o),
(156,143,o),
(156,261,cs),
(156,380,o),
(218,641,o),
(372,641,cs),
(464,641,o),
(505,545,o),
(480,396,c),
(559,396,l),
(629,726,l),
(694,726,l),
(708,793,l),
(509,793,l),
(494,726,l),
(560,726,l),
(516,521,l),
(527,517,l),
(533,652,o),
(462,727,o),
(366,727,cs),
(155,727,o),
(63,422,o),
(63,257,cs),
(63,91,o),
(154,0,o),
(326,0,cs)
);
}
);
width = 598;
}
);
metricLeft = "=|theCarrier-canadian";
metricRight = "=|dleCarrier-canadian";
note = uni162D;
unicode = 5677;
},
{
color = 9;
glyphname = "lhuCarrier-canadian";
lastChange = "2023-01-13 15:29:45 +0000";
layers = (
{
layerId = "9563F490-07F6-43DA-A81C-32B2684714C2";
shapes = (
{
closed = 1;
nodes = (
(513,-13,o),
(588,259,o),
(588,428,cs),
(588,547,o),
(545,635,o),
(467,666,c),
(496,636,l),
(653,636,l),
(669,714,l),
(456,714,l),
(439,639,l),
(482,617,o),
(504,560,o),
(504,480,cs),
(504,353,o),
(457,73,o),
(285,73,cs),
(201,73,o),
(159,127,o),
(159,230,cs),
(159,342,o),
(211,585,o),
(346,639,c),
(362,714,l),
(148,714,l),
(131,636,l),
(289,636,l),
(330,671,l),
(145,624,o),
(64,377,o),
(64,223,cs),
(64,76,o),
(140,-13,o),
(281,-13,cs)
);
}
);
width = 618;
}
);
metricLeft = "luCarrier-canadian";
metricRight = "=|";
note = uni162E;
unicode = 5678;
},
{
color = 9;
glyphname = "lhoCarrier-canadian";
lastChange = "2023-01-13 15:29:45 +0000";
layers = (
{
layerId = "9563F490-07F6-43DA-A81C-32B2684714C2";
shapes = (
{
closed = 1;
nodes = (
(209,0,l),
(225,75,l),
(182,97,o),
(161,154,o),
(161,234,cs),
(161,361,o),
(208,641,o),
(380,641,cs),
(463,641,o),
(506,587,o),
(506,484,cs),
(506,372,o),
(454,129,o),
(319,75,c),
(303,0,l),
(516,0,l),
(533,78,l),
(375,78,l),
(334,43,l),
(520,90,o),
(601,337,o),
(601,491,cs),
(601,638,o),
(525,727,o),
(383,727,cs),
(151,727,o),
(76,455,o),
(76,286,cs),
(76,167,o),
(119,79,o),
(197,48,c),
(169,78,l),
(12,78,l),
(-5,0,l)
);
}
);
width = 617;
}
);
metricLeft = "luCarrier-canadian";
metricRight = "=|";
note = uni162F;
unicode = 5679;
},
{
color = 9;
glyphname = "lheCarrier-canadian";
lastChange = "2023-01-13 15:28:18 +0000";
layers = (
{
anchors = (
{
name = middle_center_can;
pos = (326,357);
}
);
layerId = "9563F490-07F6-43DA-A81C-32B2684714C2";
shapes = (
{
closed = 1;
nodes = (
(503,-13,o),
(592,292,o),
(592,474,cs),
(592,631,o),
(523,727,o),
(406,727,cs),
(318,727,o),
(250,674,o),
(210,573,c),
(215,571,l),
(245,714,l),
(161,714,l),
(101,431,l),
(180,431,l),
(219,574,o),
(285,641,o),
(371,641,cs),
(455,641,o),
(499,580,o),
(499,471,cs),
(499,344,o),
(441,73,o),
(271,73,cs),
(178,73,o),
(130,154,o),
(148,283,c),
(70,283,l),
(9,0,l),
(92.992,0,l),
(130,176,l),
(120,176,l),
(117,60,o),
(181,-13,o),
(289,-13,cs)
);
}
);
width = 607;
}
);
metricLeft = "nunavuth-canadian";
metricRight = "theCarrier-canadian";
note = uni1630;
unicode = 5680;
},
{
color = 9;
glyphname = "lhaCarrier-canadian";
lastChange = "2023-01-13 15:28:18 +0000";
layers = (
{
layerId = "9563F490-07F6-43DA-A81C-32B2684714C2";
shapes = (
{
closed = 1;
nodes = (
(335,-13,o),
(403,40,o),
(443,141,c),
(438,143,l),
(408,0,l),
(492,0,l),
(552,283,l),
(473,283,l),
(434,140,o),
(368,73,o),
(282,73,cs),
(198,73,o),
(154,134,o),
(154,243,cs),
(154,370,o),
(213,641,o),
(382,641,cs),
(475,641,o),
(523,560,o),
(505,431,c),
(584,431,l),
(644,714,l),
(560,714,l),
(523,538,l),
(533,538,l),
(536,654,o),
(472,727,o),
(368,727,cs),
(150,727,o),
(62,422,o),
(62,240,cs),
(62,83,o),
(130,-13,o),
(247,-13,cs)
);
}
);
width = 607;
}
);
metricLeft = "=|theCarrier-canadian";
metricRight = "nunavuth-canadian";
note = uni1633;
unicode = 5683;
},
{
color = 9;
glyphname = "tlhuCarrier-canadian";
lastChange = "2023-01-13 15:28:18 +0000";
layers = (
{
layerId = "9563F490-07F6-43DA-A81C-32B2684714C2";
shapes = (
{
closed = 1;
nodes = (
(513,-13,o),
(588,259,o),
(588,428,cs),
(588,540,o),
(560,628,o),
(480,666,c),
(474,642,l),
(640,642,l),
(622,558,l),
(690,558,l),
(741,798,l),
(672,798,l),
(654,714,l),
(456,714,l),
(439,639,l),
(482,617,o),
(504,560,o),
(504,480,cs),
(504,353,o),
(457,73,o),
(285,73,cs),
(201,73,o),
(159,127,o),
(159,230,cs),
(159,342,o),
(211,585,o),
(346,639,c),
(362,714,l),
(148,714,l),
(131,636,l),
(304,636,l),
(295,658,l),
(131,596,o),
(64,365,o),
(64,223,cs),
(64,76,o),
(140,-13,o),
(281,-13,cs)
);
}
);
width = 655;
}
);
metricLeft = "lhuCarrier-canadian";
note = uni1634;
unicode = 5684;
},
{
color = 9;
glyphname = "tlhoCarrier-canadian";
lastChange = "2023-01-13 15:29:45 +0000";
layers = (
{
layerId = "9563F490-07F6-43DA-A81C-32B2684714C2";
shapes = (
{
closed = 1;
nodes = (
(30,-84,l),
(48,0,l),
(247,0,l),
(263,75,l),
(221,97,o),
(199,154,o),
(199,234,cs),
(199,361,o),
(246,641,o),
(418,641,cs),
(501,641,o),
(544,587,o),
(544,484,cs),
(544,372,o),
(492,129,o),
(357,75,c),
(341,0,l),
(555,0,l),
(571,78,l),
(399,78,l),
(408,56,l),
(571,118,o),
(639,349,o),
(639,491,cs),
(639,638,o),
(563,727,o),
(422,727,cs),
(189,727,o),
(114,455,o),
(114,286,cs),
(114,174,o),
(143,86,o),
(222,48,c),
(228,72,l),
(63,72,l),
(81,156,l),
(12,156,l),
(-39,-84,l)
);
}
);
width = 656;
}
);
metricLeft = "=|tlhuCarrier-canadian";
metricRight = "lhuCarrier-canadian";
note = uni1635;
unicode = 5685;
},
{
color = 9;
glyphname = "tlheCarrier-canadian";
lastChange = "2023-01-13 15:28:18 +0000";
layers = (
{
anchors = (
{
name = middle_center_can;
pos = (334,357);
}
);
layerId = "9563F490-07F6-43DA-A81C-32B2684714C2";
shapes = (
{
closed = 1;
nodes = (
(512,-13,o),
(602,292,o),
(602,474,cs),
(602,631,o),
(533,727,o),
(415,727,cs),
(309,727,o),
(234,658,o),
(192,537,c),
(209,569,l),
(243,726,l),
(307,726,l),
(322,793,l),
(122,793,l),
(108,726,l),
(174,726,l),
(110,431,l),
(189,431,l),
(229,574,o),
(294,641,o),
(381,641,cs),
(464,641,o),
(510,580,o),
(510,471,cs),
(510,344,o),
(450,73,o),
(281,73,cs),
(187,73,o),
(140,154,o),
(158,283,c),
(79,283,l),
(19,0,l),
(103,0,l),
(139,176,l),
(130,176,l),
(127,60,o),
(191,-13,o),
(299,-13,cs)
);
}
);
width = 617;
}
);
metricLeft = "dleCarrier-canadian";
metricRight = "theCarrier-canadian";
note = uni1636;
unicode = 5686;
},
{
color = 9;
glyphname = "tlhaCarrier-canadian";
lastChange = "2023-01-13 15:28:18 +0000";
layers = (
{
layerId = "9563F490-07F6-43DA-A81C-32B2684714C2";
shapes = (
{
closed = 1;
nodes = (
(335,-13,o),
(404,40,o),
(444,141,c),
(439,143,l),
(408.995,0,l),
(493,0,l),
(553,283,l),
(474,283,l),
(435,140,o),
(369,73,o),
(282,73,cs),
(198,73,o),
(154,134,o),
(154,243,cs),
(154,370,o),
(213,641,o),
(382,641,cs),
(476,641,o),
(524,560,o),
(506,431,c),
(584,431,l),
(647,726,l),
(712,726,l),
(727,793,l),
(528,793,l),
(513,726,l),
(579,726,l),
(537,530,l),
(546,529,l),
(547,658,o),
(473,727,o),
(368,727,cs),
(150,727,o),
(62,422,o),
(62,240,cs),
(62,83,o),
(130,-13,o),
(247,-13,cs)
);
}
);
width = 617;
}
);
metricLeft = "=|theCarrier-canadian";
metricRight = "=|dleCarrier-canadian";
note = uni1639;
unicode = 5689;
},
{
color = 9;
glyphname = "tluCarrier-canadian";
lastChange = "2023-01-13 15:28:18 +0000";
layers = (
{
layerId = "9563F490-07F6-43DA-A81C-32B2684714C2";
shapes = (
{
closed = 1;
nodes = (
(259,-13,o),
(309,25,o),
(348,112,c),
(320,112,l),
(328,31,o),
(373,-13,o),
(447,-13,cs),
(631,-13,o),
(689,308,o),
(689,450,cs),
(689,558,o),
(654,625,o),
(588,656,c),
(566,642,l),
(739,642,l),
(720,558,l),
(789,558,l),
(840,798,l),
(771,798,l),
(753.008,714,l),
(506,714,l),
(490,638,l),
(566,632,o),
(602,583,o),
(602,477,cs),
(602,376,o),
(557,72,o),
(446,72,cs),
(393,72,o),
(376,115,o),
(393,196,cs),
(417,313,l),
(329,313,l),
(305,196,ls),
(287,112,o),
(256,72,o),
(208,72,cs),
(165,72,o),
(145,100,o),
(145,172,cs),
(145,246,o),
(196,640,o),
(395,638,c),
(411,714,l),
(149,714,l),
(132,636,l),
(300,636,l),
(285,651,l),
(111,585,o),
(54,305,o),
(54,165,cs),
(54,48,o),
(101,-13,o),
(190,-13,cs)
);
}
);
width = 754;
}
);
metricRight = "tlhuCarrier-canadian";
note = uni163A;
unicode = 5690;
},
{
color = 1;
glyphname = "tloCarrier-canadian";
lastChange = "2023-01-13 15:29:45 +0000";
layers = (
{
layerId = "9563F490-07F6-43DA-A81C-32B2684714C2";
shapes = (
{
closed = 1;
nodes = (
(652,-84,l),
(703,156,l),
(634,156,l),
(616,72,l),
(456,72,l),
(469,58,l),
(652,122,o),
(711,406,o),
(711,549,cs),
(711,666,o),
(663,727,o),
(574,727,cs),
(505,727,o),
(455,689,o),
(416,602,c),
(444,601,l),
(436,683,o),
(392,727,o),
(318,727,cs),
(133,727,o),
(75,406,o),
(75,264,cs),
(75,161,o),
(109,95,o),
(169,63,c),
(192,78,l),
(13,78,l),
(-4,0,l),
(259,0,l),
(275,76,l),
(199,82,o),
(162,131,o),
(162,237,cs),
(162,338,o),
(208,642,o),
(318,642,cs),
(371,642,o),
(389,599,o),
(372,518,cs),
(347,401,l),
(435,401,l),
(460,518,ls),
(478,602,o),
(509,642,o),
(556,642,cs),
(599,642,o),
(619,614,o),
(619,542,cs),
(619,468,o),
(568,74,o),
(370,76,c),
(353,0,l),
(601,0,l),
(583,-84,l)
);
}
);
width = 753;
}
);
metricLeft = "tluCarrier-canadian";
metricRight = "tlhuCarrier-canadian";
note = uni163B;
unicode = 5691;
},
{
color = 9;
glyphname = "tleCarrier-canadian";
lastChange = "2023-01-13 15:28:18 +0000";
layers = (
{
anchors = (
{
name = middle_center_can;
pos = (274,357);
}
);
layerId = "9563F490-07F6-43DA-A81C-32B2684714C2";
shapes = (
{
closed = 1;
nodes = (
(452,-13,o),
(546,87,o),
(546,224,cs),
(546,302,o),
(506,359,o),
(441,367,c),
(437,346,l),
(546,354,o),
(618,456,o),
(618,557,cs),
(618,656,o),
(547,727,o),
(434,727,cs),
(329,727,o),
(241,665,o),
(199,555,c),
(206,553,l),
(242,726,l),
(308,726,l),
(322,793,l),
(122,793,l),
(108,726,l),
(174,726,l),
(111,431,l),
(188,431,l),
(221,572,o),
(293,643,o),
(399,643,cs),
(477,643,o),
(523,601,o),
(523,536,cs),
(523,460,o),
(473,396,o),
(391,396,cs),
(361,396,l),
(345,319,l),
(373,319,ls),
(425,319,o),
(457,286,o),
(457,230,cs),
(457,140,o),
(403,71,o),
(300,71,cs),
(185,71,o),
(132,147,o),
(156,283,c),
(79,283,l),
(19,0,l),
(103,0,l),
(138,165,l),
(122,164,l),
(119,56,o),
(197,-13,o),
(314,-13,cs)
);
}
);
width = 615;
}
);
metricLeft = "dleCarrier-canadian";
metricRight = "geCarrier-canadian";
note = uni163C;
unicode = 5692;
},
{
color = 9;
glyphname = "tlaCarrier-canadian";
lastChange = "2023-01-13 15:28:18 +0000";
layers = (
{
layerId = "9563F490-07F6-43DA-A81C-32B2684714C2";
shapes = (
{
closed = 1;
nodes = (
(322,-13,o),
(402,37,o),
(448,127,c),
(439,144,l),
(408,0,l),
(491,0,l),
(552,283,l),
(475,283,l),
(442,142,o),
(370,71,o),
(263,71,cs),
(185,71,o),
(139,113,o),
(139,178,cs),
(139,254,o),
(189,318,o),
(271,318,cs),
(301,318,l),
(317,395,l),
(289,395,ls),
(237,395,o),
(205,428,o),
(205,484,cs),
(205,574,o),
(259,643,o),
(363,643,cs),
(477,643,o),
(530,567,o),
(506,431,c),
(583,431,l),
(646,726,l),
(711,726,l),
(725,793,l),
(525,793,l),
(510,726,l),
(577,726,l),
(536,532,l),
(544,544,l),
(551,655,o),
(473,727,o),
(348,727,cs),
(210,727,o),
(116,627,o),
(116,490,cs),
(116,418,o),
(151,363,o),
(207,349,c),
(213,366,l),
(110,352,o),
(44,254,o),
(44,157,cs),
(44,58,o),
(115,-13,o),
(228,-13,cs)
);
}
);
width = 615;
}
);
metricLeft = "=|geCarrier-canadian";
metricRight = "=|dleCarrier-canadian";
note = uni163F;
unicode = 5695;
},
{
color = 9;
glyphname = "zuCarrier-canadian";
lastChange = "2023-01-13 15:28:18 +0000";
layers = (
{
layerId = "9563F490-07F6-43DA-A81C-32B2684714C2";
shapes = (
{
closed = 1;
nodes = (
(478,-13,o),
(564,135,o),
(564,321,cs),
(564,388,o),
(552,466,o),
(552,536,cs),
(552,598,o),
(575,633,o),
(632,633,cs),
(652,633,l),
(669,714,l),
(623,714,ls),
(513,714,o),
(465,654,o),
(465,531,cs),
(465,467,o),
(476,398,o),
(476,318,cs),
(476,186,o),
(421,73,o),
(283,73,cs),
(193,73,o),
(142,120,o),
(142,197,cs),
(142,328,o),
(296,507,o),
(296,618,cs),
(296,678,o),
(256,714,o),
(187,714,cs),
(146,714,l),
(129,633,l),
(158,633,ls),
(191,633,o),
(205,620,o),
(205,595,cs),
(205,516,o),
(47,344,o),
(47,183,cs),
(47,66,o),
(134,-13,o),
(273,-13,cs)
);
}
);
width = 617;
}
);
metricRight = "=|";
note = uni1640;
unicode = 5696;
},
